<?xml version="1.0" standalone="no"?>
<!DOCTYPE svg PUBLIC "-//W3C//DTD SVG 1.1//EN" "http://www.w3.org/Graphics/SVG/1.1/DTD/svg11.dtd" >
<svg xmlns="http://www.w3.org/2000/svg" xmlns:xlink="http://www.w3.org/1999/xlink" version="1.1">
<metadata>
Created by FontForge 20170731 at Wed Aug  3 10:58:41 2016
 By ,,,
(c) New Cloud Technologies Ltd., 2014-2017. All rights reserved.
</metadata>
<defs>
<font id="XOCaliburn" horiz-adv-x="1020" >
  <font-face 
    font-family="XO Caliburn"
    font-weight="400"
    font-stretch="normal"
    units-per-em="2048"
    panose-1="2 15 5 2 2 2 4 3 2 4"
    ascent="1536"
    descent="-512"
    x-height="982"
    cap-height="1332"
    bbox="-569 -385 2124 1747"
    underline-thickness="134"
    underline-position="-433"
    unicode-range="U+000D-2212"
  />
<missing-glyph horiz-adv-x="1038" 
d="M978 1332v-1332h-918v1332h918zM891 81v1170h-746v-1170h746z" />
    <glyph glyph-name=".notdef" horiz-adv-x="1038" 
d="M978 1332v-1332h-918v1332h918zM891 81v1170h-746v-1170h746z" />
    <glyph glyph-name="uni0000" horiz-adv-x="0" 
 />
    <glyph glyph-name="uni0000" horiz-adv-x="0" 
 />
    <glyph glyph-name="uni000D" unicode="&#xd;" horiz-adv-x="0" 
 />
    <glyph glyph-name="space" unicode=" " horiz-adv-x="463" 
 />
    <glyph glyph-name="space" unicode="&#xa0;" horiz-adv-x="463" 
 />
    <glyph glyph-name="exclam" unicode="!" horiz-adv-x="667" 
d="M424 557l-46 -166h-89l-45 166v757l20 18h139l21 -18v-757zM244 176l20 18h139l21 -18v-158l-21 -18h-139l-20 18v158z" />
    <glyph glyph-name="quotedbl" unicode="&#x22;" horiz-adv-x="821" 
d="M327 970l-19 -18h-79l-79 246v204l19 18h139l19 -18v-432zM494 1402l19 18h139l18 -18v-202l-78 -248h-79l-19 18v432z" />
    <glyph glyph-name="numbersign" unicode="#" 
d="M417 963h270l51 351l19 18h130l18 -18l-51 -351h136l20 -18v-117l-20 -18h-157l-42 -288h199l20 -18v-117l-20 -18h-220l-50 -351l-19 -18h-130l-18 18l50 351h-271l-50 -351l-18 -18h-130l-19 18l50 351h-136l-19 18v117l19 18h157l42 288h-199l-19 18v117l19 18h221
l51 351l18 18h130l19 -18zM354 522h270l42 288h-271z" />
    <glyph glyph-name="dollar" unicode="$" horiz-adv-x="1038" 
d="M107 228l19 15q82 -34 176.5 -49.5t184.5 -15.5h28q51 0 94.5 5.5t75.5 22t50.5 46t18.5 77.5q0 51 -27.5 82.5t-72.5 51.5t-102 33t-117 26t-117 31.5t-102 50t-72.5 80.5t-27.5 123q0 70 27.5 126t73.5 95t104.5 59.5t121.5 20.5v224l18 18h108l19 -18v-224
q75 0 147.5 -11.5t141.5 -39.5l18 -23l-14 -106l-24 -19q-73 26 -149.5 40.5t-164.5 14.5h-28q-41 0 -80.5 -5.5t-71.5 -20.5t-51.5 -41t-19.5 -68q0 -53 27.5 -85t72.5 -52t102 -32t117 -24.5t117 -31t102 -51t72.5 -83.5t27.5 -130q0 -74 -30 -131t-78.5 -96t-110 -59
t-123.5 -20v-241l-19 -18h-108l-18 18v241q-43 0 -82.5 2.5t-78 8.5t-77 16t-78.5 25l-20 19v123z" />
    <glyph glyph-name="percent" unicode="%" horiz-adv-x="1464" 
d="M64 1033q0 76 15 135t48.5 99.5t86.5 61.5t129 21h16q77 0 130.5 -20.5t86.5 -60.5t47.5 -99.5t14.5 -136.5v-17q0 -81 -14 -144t-46 -105.5t-86 -64.5t-133 -22h-16q-80 0 -133.5 22t-85.5 64.5t-46 105.5t-14 144v17zM343 1216q-46 0 -72.5 -12t-40.5 -35.5t-18 -57.5
t-4 -78v-17q0 -47 4 -84t18 -63t40.5 -40t72.5 -14h16q46 0 72.5 14t40.5 40.5t18 63.5t4 83v17q0 42 -4 76t-18 58t-40.5 36.5t-72.5 12.5h-16zM1133 1332l14 -18l-708 -1314h-112l-15 18l708 1314h113zM850 334q0 76 15 135.5t48.5 100t86.5 61.5t129 21h16
q77 0 130.5 -20.5t86.5 -61t47.5 -100t14.5 -136.5v-17q0 -81 -14 -143.5t-46 -105t-86 -64.5t-133 -22h-16q-80 0 -133.5 22t-85.5 64.5t-46 105t-14 143.5v17zM1129 518q-46 0 -72.5 -12.5t-40.5 -36t-18 -57.5t-4 -78v-17q0 -47 4 -84t18 -62.5t40.5 -39.5t72.5 -14h16
q46 0 72.5 14t40.5 40.5t18 63.5t4 82v17q0 43 -4 77t-18 58t-40.5 36.5t-72.5 12.5h-16z" />
    <glyph glyph-name="ampersand" unicode="&#x26;" horiz-adv-x="1397" 
d="M1267 598l-16 -18h-133q-14 -71 -34 -138.5t-53 -129.5l295 -294l-11 -18h-179l-192 193q-80 -103 -180 -157t-226 -54h-20q-93 0 -171.5 20t-135 63.5t-88.5 113t-32 167.5v21q0 132 70 231t198 157q-39 35 -68 66t-49 65t-30 73t-10 89v21q0 78 34.5 134t88.5 91
q43 28 94 42t104 14h20q57 0 111.5 -20.5t97.5 -57.5t69.5 -89t26.5 -116v-21q0 -62 -18.5 -112.5t-51 -90t-77.5 -70t-98 -51.5l323 -306q34 68 50 140t16 136l16 18h243l16 -18v-94zM450 666q-55 -27 -90.5 -55t-56.5 -60.5t-29 -70.5t-8 -84v-22q0 -72 15 -120t46 -76.5
t78.5 -40t112.5 -11.5h20q44 0 87.5 12t83 33.5t73.5 52t60 68.5zM503 814q48 19 81.5 39.5t55.5 46.5t32 59t10 77v21q0 75 -37.5 112t-107.5 37h-21q-66 0 -107 -36.5t-41 -108.5v-22q0 -41 10 -72t27.5 -57t42.5 -49t55 -47z" />
    <glyph glyph-name="quotesingle" unicode="'" horiz-adv-x="452" 
d="M315 1148l-70 -196h-40l-70 196v254l19 18h142l19 -18v-254z" />
    <glyph glyph-name="parenleft" unicode="(" horiz-adv-x="621" 
d="M262 550q0 -114 16.5 -225t53 -214t95.5 -195.5t144 -168.5l-12 -17h-153q-156 180 -237 381.5t-81 438.5v52q0 230 82.5 434t235.5 386h153l12 -17q-84 -77 -143 -169.5t-96 -195.5t-53.5 -214t-16.5 -224v-52z" />
    <glyph glyph-name="parenright" unicode=")" horiz-adv-x="621" 
d="M359 602q0 113 -17 224t-54 214t-96 195.5t-143 169.5l12 17h154q153 -182 235.5 -386t82.5 -434v-52q0 -237 -81 -438.5t-237 -381.5h-154l-12 17q85 76 144 168.5t96 195.5t53.5 214t16.5 225v52z" />
    <glyph glyph-name="asterisk" unicode="*" 
d="M909 1037l19 -18v-82l-19 -19h-271l-19 18v83l19 18h271zM380 1037l19 -18v-83l-19 -18h-271l-19 18v82l19 19h271zM362 612l-26 -6l-74 40l-6 25l135 228l26 6l73 -41l8 -24zM627 1056l-26 -7l-73 42l-8 24l136 228l26 6l74 -40l6 -26zM762 671l-7 -25l-73 -41l-26 7
l-136 228l8 24l73 41l26 -6zM498 1115l-8 -24l-73 -42l-26 7l-135 227l7 26l73 41l26 -7z" />
    <glyph glyph-name="plus" unicode="+" 
d="M586 278l-19 -18h-118l-18 18v352h-366l-18 18v114l18 18h366v352l18 18h118l19 -18v-352h365l19 -18v-114l-19 -18h-365v-352z" />
    <glyph glyph-name="comma" unicode="," horiz-adv-x="511" 
d="M165 198l19 18h162l19 -18v-161q0 -42 -11 -67l-103 -195h-73l-13 19l101 194v12h-85l-16 18v180z" />
    <glyph glyph-name="hyphen" unicode="-" horiz-adv-x="627" 
d="M550 630l21 -18v-126l-21 -18h-472l-20 18v126l20 18h472z" />
    <glyph glyph-name="hyphen" unicode="&#xad;" horiz-adv-x="627" 
d="M550 630l21 -18v-126l-21 -18h-472l-20 18v126l20 18h472z" />
    <glyph glyph-name="period" unicode="." horiz-adv-x="517" 
d="M339 0h-165l-16 18v180l19 18h162l19 -18v-180z" />
    <glyph glyph-name="slash" unicode="/" horiz-adv-x="791" 
d="M788 1404l13 -18l-658 -1611h-140l-13 18l655 1611h143z" />
    <glyph glyph-name="zero" unicode="0" horiz-adv-x="1038" 
d="M511 -18q-94 0 -163 25.5t-117 71.5t-78 108.5t-47 136.5t-23 156.5t-6 167.5v36q0 85 6 167.5t23 156.5t47 136.5t78 108.5t117 71.5t163 25.5h17q94 0 163 -25.5t117 -71.5t78 -108.5t46.5 -136.5t22.5 -156.5t6 -167.5v-36q0 -85 -6 -167.5t-22.5 -156.5t-46.5 -136.5
t-78 -108.5t-117 -71.5t-163 -25.5h-17zM510 1188q-58 0 -99 -23t-68.5 -61.5t-43 -89.5t-24 -107t-10.5 -113.5t-2 -109.5v-36q0 -52 2 -109.5t10.5 -113.5t24 -107t43 -89.5t68.5 -61.5t99 -23h18q58 0 99 23t68.5 61.5t43 89.5t24 107t10.5 113.5t2 109.5v36
q0 52 -2 109.5t-10.5 113.5t-24 107t-43 89.5t-68.5 61.5t-99 23h-18z" />
    <glyph glyph-name="one" unicode="1" horiz-adv-x="1038" 
d="M433 162v1006l-190 -45l-20 13l-25 118l13 21l251 75h130l17 -18v-1170h239l17 -18v-126l-17 -18h-665l-17 18v126l17 18h250z" />
    <glyph glyph-name="two" unicode="2" horiz-adv-x="1038" 
d="M85 162l351 349q62 62 108 109.5t79.5 86t55.5 71t35 63.5t18 63.5t5 71.5v27q0 52 -17.5 87.5t-48 57t-71.5 31t-89 9.5h-26q-78 0 -159 -18t-155 -60l-24 14l-23 131l15 20q38 16 82.5 30t90 24t90.5 15.5t83 5.5h26q85 0 158.5 -20.5t128 -63t85.5 -108t31 -155.5v-27
q0 -41 -5.5 -77.5t-19.5 -74t-39.5 -79t-65 -92t-96 -112.5t-133.5 -141l-225 -233v-5h605l17 -18v-126l-17 -18h-833l-17 18v144z" />
    <glyph glyph-name="three" unicode="3" horiz-adv-x="1038" 
d="M659 1170h-520l-17 18v126l17 18h724l17 -18v-137l-310 -357q87 -12 155 -40t114.5 -76t71 -116.5t24.5 -160.5v-18q0 -102 -33.5 -181.5t-92.5 -134t-139.5 -83t-175.5 -28.5h-25q-39 0 -82.5 4.5t-88.5 12t-90.5 17t-87.5 20.5l-18 22v134l17 18h8q74 -30 156 -48
t164 -18h25q62 0 114.5 15.5t91 47.5t60 82.5t21.5 119.5v18q0 90 -25.5 140t-70.5 74.5t-107 30t-135 5.5h-36l-52 104z" />
    <glyph glyph-name="four" unicode="4" horiz-adv-x="1038" 
d="M631 482v400l155 126h22v-526h140l16 -18v-126l-16 -18h-140v-302l-15 -18h-146l-16 18v302h-559l-14 18v144l546 850h185l19 -18l-565 -832h388z" />
    <glyph glyph-name="five" unicode="5" horiz-adv-x="1038" 
d="M141 1314l17 18h719l18 -18v-126l-18 -18h-559v-350q17 1 44 3t56 3.5t55.5 2.5t43.5 1q88 0 163 -19.5t129.5 -66t85.5 -122.5t31 -190v-18q0 -209 -116 -320.5t-335 -111.5h-26q-85 0 -163.5 12t-156.5 37l-17 15v130l17 18h12q74 -22 148.5 -36t159.5 -14h26
q134 0 204 66t70 204v18q0 76 -25 123.5t-67.5 74.5t-99 37t-119.5 10q-31 0 -67.5 -2.5t-73.5 -7t-70.5 -9.5t-57.5 -10l-28 18v648z" />
    <glyph glyph-name="six" unicode="6" horiz-adv-x="1038" 
d="M853 1159l-22 -18q-57 27 -125.5 37t-150.5 10h-17q-81 0 -135.5 -32.5t-87.5 -89.5t-47.5 -133.5t-14.5 -163.5v-18q143 85 303 85h18q89 0 160.5 -27t122 -78t77.5 -124t27 -165v-36q0 -96 -31.5 -174t-88 -133.5t-135.5 -86t-173 -30.5h-18q-128 0 -212.5 44
t-134.5 122.5t-70.5 187.5t-20.5 240v90q0 92 9.5 178.5t31.5 162.5t57 139t86 108.5t119.5 70.5t157.5 25h17q38 0 78.5 -2.5t80 -8t76 -14t66.5 -20.5l15 -19zM253 603q0 -104 6 -189t32 -145t78.5 -92.5t145.5 -32.5h18q129 0 190.5 69t61.5 193v36q0 128 -65 184.5
t-191 56.5h-17q-70 0 -135.5 -19t-123.5 -61z" />
    <glyph glyph-name="seven" unicode="7" horiz-adv-x="1038" 
d="M931 1332l17 -18v-135l-522 -1179h-178l-12 18l527 1152h-656l-17 18v126l17 18h824z" />
    <glyph glyph-name="eight" unicode="8" horiz-adv-x="1038" 
d="M532 1350q80 0 149.5 -23.5t121 -65t81 -98.5t29.5 -124v-27q0 -99 -47.5 -169.5t-135.5 -113.5v-4q51 -20 94.5 -53.5t74.5 -77t48.5 -94t17.5 -105.5v-36q0 -90 -32 -160t-89.5 -118t-136.5 -73.5t-172 -25.5h-34q-95 0 -173.5 25.5t-135.5 73.5t-88.5 118t-31.5 160
v36q0 55 16.5 106t47.5 94t74.5 76.5t96.5 53.5v4q-89 43 -135.5 113.5t-46.5 169.5v27q0 67 29.5 124.5t80.5 98.5t120 64.5t149 23.5h28zM788 400q0 54 -20 98t-54.5 76t-81.5 49.5t-100 17.5h-28q-54 0 -101 -17.5t-81 -49t-53.5 -76t-19.5 -98.5v-36q0 -63 18.5 -107
t52 -71t79.5 -39t102 -12h36q52 0 98 12t80 39t53.5 71t19.5 107v36zM532 794q42 0 80.5 15.5t68.5 43t47.5 64.5t17.5 80v18q0 45 -18.5 79t-48.5 57t-68.5 34.5t-78.5 11.5h-28q-39 0 -77 -11.5t-68 -34.5t-48.5 -57t-18.5 -79v-18q0 -48 16 -85.5t44 -64t67 -40t85 -13.5
h28z" />
    <glyph glyph-name="nine" unicode="9" horiz-adv-x="1038" 
d="M168 173l22 18q28 -14 63.5 -23t75 -14t81 -7.5t82.5 -2.5h17q81 0 134 32.5t84.5 89.5t44.5 133.5t13 163.5v18q-143 -85 -303 -85h-18q-89 0 -161 27t-122 77.5t-77 123.5t-27 166v36q0 98 28.5 176.5t83.5 133.5t135 84.5t182 29.5h17q132 0 216.5 -44t134 -122.5
t68.5 -188t19 -239.5v-90q0 -138 -21 -262.5t-72.5 -218t-138.5 -148.5t-220 -55h-17q-38 0 -80 2.5t-82.5 7.5t-77.5 13.5t-66 19.5l-19 21zM785 729q0 104 -6 189t-32 145t-78.5 92.5t-145.5 32.5h-17q-130 0 -191.5 -69t-61.5 -193v-36q0 -128 63 -184.5t190 -56.5h17
q70 0 137 19t125 61z" />
    <glyph glyph-name="colon" unicode=":" horiz-adv-x="548" 
d="M355 0h-165l-16 18v180l19 18h162l19 -18v-180zM355 766h-165l-16 18v180l19 18h162l19 -18v-180z" />
    <glyph glyph-name="semicolon" unicode=";" horiz-adv-x="548" 
d="M355 766h-165l-16 18v180l19 18h162l19 -18v-180zM174 198l19 18h162l19 -18v-161q0 -42 -11 -67l-103 -195h-73l-13 19l101 194v12h-85l-16 18v180z" />
    <glyph glyph-name="less" unicode="&#x3c;" 
d="M909 37l-20 -18l-784 416l-15 24v90l15 25l784 426l20 -18v-138l-639 -335v-9l639 -326v-137z" />
    <glyph glyph-name="equal" unicode="=" 
d="M842 873l18 -18v-108l-18 -18h-665l-17 18v108l17 18h665zM842 489l18 -18v-108l-18 -18h-665l-17 18v108l17 18h665z" />
    <glyph glyph-name="greater" unicode="&#x3e;" 
d="M111 174l639 326v9l-639 335v138l20 18l784 -426l15 -25v-90l-15 -24l-784 -416l-20 18v137z" />
    <glyph glyph-name="question" unicode="?" horiz-adv-x="949" 
d="M531 388l-26 -18h-132l-16 18v250q49 29 104.5 63.5t102.5 78t78 97.5t31 122v18q0 53 -15 86.5t-42 52t-64.5 25.5t-82.5 7h-17q-69 0 -144.5 -16t-143.5 -43l-20 14l-20 123l15 23q35 12 74.5 23.5t80 19.5t81 13t77.5 5h17q78 0 146.5 -16.5t120 -55.5t81.5 -103
t30 -158v-18q0 -86 -25.5 -149t-69 -112.5t-101 -89.5t-120.5 -80v-180zM505 0h-135l-13 18v180l16 18h132l26 -18v-180z" />
    <glyph glyph-name="at" unicode="@" horiz-adv-x="1831" 
d="M1708 592q0 -60 -9 -120.5t-27 -119t-45.5 -113.5t-64.5 -104h-419l-19 18v88q-63 -50 -130 -78.5t-151 -28.5q-93 0 -157.5 37t-105 97t-59 135.5t-18.5 151.5v27q0 77 27 153.5t78 137t123 98t162 37.5q65 0 127.5 -10t121.5 -38l96 48h44v-755h210q21 33 37.5 75
t28.5 87t18.5 89.5t6.5 82.5q0 144 -42 263.5t-124.5 205.5t-203.5 134t-278 48q-149 0 -274 -51.5t-216 -141t-141.5 -210.5t-50.5 -259q0 -144 48 -264.5t136.5 -208.5t214 -137t279.5 -49q83 0 161 9t158 31l21 -17l11 -88l-15 -19q-87 -15 -169.5 -23.5t-170.5 -8.5
q-181 0 -329.5 58t-254 161.5t-163.5 246t-58 311.5q0 108 28 207.5t80 186t125 157.5t163 121.5t195 78t220 27.5q183 0 327 -56t243.5 -157t152 -241.5t52.5 -309.5zM1124 823q-50 21 -101.5 35.5t-107.5 14.5q-68 0 -116.5 -25.5t-79 -67t-44.5 -93.5t-14 -105v-27
q0 -54 9 -105t34 -91.5t68 -65t111 -24.5q33 0 65 8t63 21t59 30t54 35v460z" />
    <glyph glyph-name="A" unicode="A" horiz-adv-x="1185" 
d="M869 353h-553l-120 -353h-158l-12 20l444 1292l20 20h206l20 -20l444 -1292l-12 -20h-158zM370 509h446l-220 643h-6z" />
    <glyph glyph-name="B" unicode="B" horiz-adv-x="1114" 
d="M542 1347q129 0 214.5 -27.5t135.5 -74.5t70.5 -110t20.5 -133v-20q0 -91 -45 -159t-145 -119v-7q54 -16 98 -43.5t76 -65.5t49.5 -86t17.5 -105v-19q0 -95 -25.5 -166t-79.5 -118t-137.5 -70.5t-200.5 -23.5h-411l-16 18v1296l16 18q49 4 90 7t81 4.5t81.5 2.5t90.5 1
h19zM854 397q0 67 -21.5 110t-60.5 68t-94.5 35t-123.5 10h-216v-468h241q74 0 126.5 14t85.5 42t48 70.5t15 99.5v19zM809 982q0 63 -16 104t-49 65t-84 34t-121 10h-20q-30 0 -51 -0.5t-39.5 -2t-39.5 -3.5t-51 -5v-426h130q85 0 149 9t106.5 32.5t64 62.5t21.5 99v21z
" />
    <glyph glyph-name="C" unicode="C" horiz-adv-x="1092" 
d="M1017 88l-14 -24q-48 -25 -93 -41t-90.5 -25t-93 -12.5t-101.5 -3.5h-14q-139 1 -238 49.5t-162.5 135t-93 208t-29.5 270.5v36q0 147 30.5 269t94.5 210.5t163 138t235 51.5h14q52 0 100 -4t93.5 -13t90.5 -25t92 -40l16 -22l-14 -142l-17 -11h-9q-42 30 -84 48.5
t-84 29t-86 14t-90 3.5h-13q-101 -2 -169 -42.5t-108.5 -109.5t-57.5 -160.5t-17 -194.5v-36q0 -104 17 -195t57.5 -158.5t108.5 -107t169 -40.5h13q52 0 99.5 4t91.5 15.5t87 31t86 51.5h6l14 -14v-144z" />
    <glyph glyph-name="D" unicode="D" horiz-adv-x="1260" 
d="M164 1313l17 19q81 12 167.5 14t167.5 2q158 0 280 -34t205.5 -111t127 -201t43.5 -305v-36q0 -169 -48.5 -293.5t-135 -206t-206 -121.5t-262.5 -40h-339l-17 18v1295zM338 162h182q109 0 196 30t148.5 92t94.5 155.5t33 221.5v36q0 136 -28.5 229.5t-86.5 151
t-146.5 83t-208.5 25.5q-42 0 -91.5 -2.5t-92.5 -10.5v-1011z" />
    <glyph glyph-name="E" unicode="E" horiz-adv-x="1000" 
d="M338 769h486l19 -18v-120l-19 -18h-486v-457h568l19 -18v-120l-19 -18h-723l-19 18v1296l19 18h723l19 -18v-120l-19 -18h-568v-407z" />
    <glyph glyph-name="F" unicode="F" horiz-adv-x="941" 
d="M338 757h456l19 -18v-120l-19 -18h-456v-583l-19 -18h-136l-19 18v1296l19 18h691l19 -18v-120l-19 -18h-536v-419z" />
    <glyph glyph-name="G" unicode="G" horiz-adv-x="1292" 
d="M1010 535h-321l-11 18v122l11 18h477l18 -18v-589q-53 -25 -112 -44.5t-120 -32.5t-122 -20t-118 -7h-28q-166 0 -280 44.5t-184 130t-101 210.5t-31 286v36q0 148 38.5 270t113.5 209t186.5 134.5t257.5 47.5h28q118 0 232 -18t223 -63l17 -23l-17 -117l-19 -15h-12
q-50 24 -96.5 39.5t-96.5 24.5t-106 12.5t-125 3.5h-28q-107 0 -184.5 -40t-127.5 -109t-74 -161t-24 -195v-36q0 -117 15.5 -212.5t59.5 -162.5t122 -103.5t204 -36.5h28q36 0 76.5 2t81 7.5t78.5 15t71 24.5v348z" />
    <glyph glyph-name="H" unicode="H" horiz-adv-x="1276" 
d="M164 18v1296l16 18h141l17 -18v-546h600v546l18 18h139l17 -18v-1296l-17 -18h-139l-18 18v594h-600v-594l-17 -18h-141z" />
    <glyph glyph-name="I" unicode="I" horiz-adv-x="516" 
d="M348 18l-17 -18h-146l-17 18v1296l17 18h146l17 -18v-1296z" />
    <glyph glyph-name="J" unicode="J" horiz-adv-x="653" 
d="M121 1314l17 18h348l17 -18v-911q0 -97 -12.5 -174t-43.5 -131t-84 -83t-133 -29h-25q-28 0 -50.5 2.5t-43.5 6.5t-43 9.5t-49 10.5l-15 18l17 114l19 18q35 -7 67 -15t78 -8h24q44 0 68 17.5t35.5 51.5t14 84t2.5 114v767h-191l-17 18v120z" />
    <glyph glyph-name="K" unicode="K" horiz-adv-x="1064" 
d="M338 770h71l418 562h198l13 -18l-465 -616l487 -680l-12 -18h-194l-434 616h-82v-598l-19 -18h-136l-19 18v1296l19 18h136l19 -18v-544z" />
    <glyph glyph-name="L" unicode="L" horiz-adv-x="861" 
d="M164 18v1296l19 18h136l19 -18v-1158h493l18 -18v-120l-18 -18h-648z" />
    <glyph glyph-name="M" unicode="M" horiz-adv-x="1751" 
d="M190 1312l19 20h256l21 -18l392 -1036h6l390 1036l21 18h248l19 -20l30 -1294l-17 -18h-136l-17 18l-24 1135h-6l-426 -1113l-22 -20h-136l-22 20l-426 1113h-6l-24 -1135l-17 -18h-136l-17 18z" />
    <glyph glyph-name="N" unicode="N" horiz-adv-x="1322" 
d="M1158 20l-18 -20h-166l-631 1032h-5v-1012l-19 -20h-136l-19 20v1292l17 20h167l633 -1032h3v1012l13 20h145l16 -20v-1292z" />
    <glyph glyph-name="O" unicode="O" horiz-adv-x="1356" 
d="M90 681q0 148 32 271.5t101.5 211.5t178 137t261.5 49h29q153 0 262 -49t178.5 -137t101.5 -211.5t32 -271.5v-36q0 -149 -32 -271t-101.5 -209t-178.5 -135t-262 -48h-29q-153 0 -261.5 48t-178 135t-101.5 209t-32 271v36zM663 1188q-114 0 -189 -39.5t-119.5 -108.5
t-62 -161.5t-17.5 -197.5v-36q0 -105 17.5 -196.5t62 -159t119.5 -106.5t189 -39h29q115 0 190 39t119 106.5t61.5 159t17.5 196.5v36q0 105 -17.5 197.5t-61.5 161.5t-119 108.5t-190 39.5h-29z" />
    <glyph glyph-name="P" unicode="P" horiz-adv-x="1058" 
d="M322 18l-17 -18h-140l-17 18v1296l17 18q38 4 82.5 7.5t91 5t92 2.5t86.5 1q95 0 179.5 -25.5t148 -77t100.5 -131t37 -187.5v-18q0 -108 -38.5 -189.5t-104 -136.5t-151.5 -82.5t-180 -27.5h-186v-455zM322 629h160q69 0 127.5 15.5t101.5 49t67 86.5t24 128v18
q0 74 -25.5 125t-69 82.5t-100 45t-117.5 13.5q-18 0 -40.5 -0.5t-45 -1.5t-44.5 -3.5t-38 -6.5v-551z" />
    <glyph glyph-name="Q" unicode="Q" horiz-adv-x="1378" 
d="M1263 -233l-19 -19q-50 -8 -96.5 -13t-100.5 -5q-82 0 -154 10.5t-129 38t-96.5 75.5t-56.5 123l-2 7q-137 9 -234 61t-159 138t-91 203.5t-29 258.5v36q0 148 32 271.5t101.5 211.5t178 137t261.5 49h29q153 0 262 -49t178.5 -137t101.5 -211.5t32 -271.5v-36
q0 -138 -27.5 -253t-86 -200.5t-151 -138.5t-221.5 -66v-11q12 -29 37.5 -47t58.5 -28.5t69.5 -14t71.5 -3.5q19 0 47 2t57.5 4.5t57.5 6t46 6.5h12l20 -17v-118zM281 645q0 -105 17.5 -196.5t62 -159t119.5 -106.5t189 -39h29q115 0 190 39t119 106.5t61.5 159t17.5 196.5
v36q0 105 -17.5 197.5t-61.5 161.5t-119 108.5t-190 39.5h-29q-114 0 -189 -39.5t-119.5 -108.5t-62 -161.5t-17.5 -197.5v-36z" />
    <glyph glyph-name="R" unicode="R" horiz-adv-x="1112" 
d="M338 18l-17 -18h-140l-17 18v1296l17 18q91 12 173 14t174 2q93 0 177 -20.5t148 -68t101.5 -124.5t37.5 -189q0 -71 -20 -130.5t-57 -107t-89.5 -83.5t-116.5 -58l412 -549l-12 -18h-192l-407 553h-172v-535zM812 946q0 71 -23 118.5t-62.5 76t-92 40t-110.5 11.5
q-50 0 -93 -2.5t-93 -9.5v-483h166q61 0 117 12t98.5 41t67.5 77t25 119z" />
    <glyph glyph-name="S" unicode="S" horiz-adv-x="941" 
d="M88 194l27 15q28 -12 62.5 -24.5t73 -23t80.5 -17t84 -6.5h20q57 0 105 11t83 33.5t54.5 57.5t19.5 83v20q0 38 -7.5 69.5t-28 59.5t-56 54t-91.5 53l-183 90q-68 33 -113.5 69t-73 79t-39 95.5t-11.5 118.5v20q0 73 27.5 129t75.5 94t114 57t143 19h20q33 0 75 -2.5
t85.5 -8.5t85.5 -15t77 -22l21 -22l-11 -128l-24 -17q-22 11 -54.5 21.5t-69.5 19t-75 13.5t-69 5h-20q-112 0 -169.5 -39.5t-57.5 -109.5v-20q0 -40 10 -71.5t33.5 -58.5t62.5 -52.5t98 -53.5l177 -87q61 -30 104 -64.5t70.5 -76.5t40.5 -93t13 -114v-20q0 -96 -33 -163
t-90 -109t-133 -61t-161 -19h-20q-94 0 -183.5 15.5t-170.5 55.5l-16 28z" />
    <glyph glyph-name="T" unicode="T" horiz-adv-x="998" 
d="M586 20l-20 -20h-134l-20 20v1156h-348l-20 20v116l20 20h870l20 -20v-116l-20 -20h-348v-1156z" />
    <glyph glyph-name="U" unicode="U" horiz-adv-x="1314" 
d="M666 138q97 0 158.5 24.5t97 71t49 112.5t13.5 150v816l20 20h134l20 -20v-821q0 -116 -22 -209.5t-77.5 -160.5t-151 -103t-241.5 -36h-18q-146 0 -241.5 36t-151 103t-77.5 160.5t-22 209.5v821l20 20h134l20 -20v-816q0 -84 13.5 -150t49 -112.5t97 -71t158.5 -24.5
h18z" />
    <glyph glyph-name="V" unicode="V" horiz-adv-x="1162" 
d="M588 180h6l394 1152h158l12 -20l-444 -1292l-20 -20h-206l-20 20l-444 1292l12 20h158z" />
    <glyph glyph-name="W" unicode="W" horiz-adv-x="1822" 
d="M908 1040l-264 -1020l-22 -20h-199l-24 20l-355 1292l16 20h146l22 -20l293 -1115h6l279 1115l29 20h152l19 -20l289 -1115h6l293 1115l22 20h146l16 -20l-355 -1292l-24 -20h-199l-22 20l-264 1020h-6z" />
    <glyph glyph-name="X" unicode="X" horiz-adv-x="1063" 
d="M528 550l-314 -550h-173l-9 20l377 653l-363 639l14 20h168l300 -538h6l300 538h168l14 -20l-363 -639l377 -653l-9 -20h-173l-314 550h-6z" />
    <glyph glyph-name="Y" unicode="Y" horiz-adv-x="998" 
d="M586 20l-20 -20h-134l-20 20v496l-390 796l11 20h167l296 -615h6l296 615h167l11 -20l-390 -796v-496z" />
    <glyph glyph-name="Z" unicode="Z" horiz-adv-x="959" 
d="M877 1332l20 -21v-109l-621 -1046h621l20 -21v-115l-20 -20h-807l-20 20v110l618 1045h-560l-20 20v116l20 20z" />
    <glyph glyph-name="bracketleft" unicode="[" horiz-adv-x="628" 
d="M531 1350l19 -18v-114l-19 -18h-267v-1410h267l19 -18v-114l-19 -18h-422l-19 18v1674l19 18h422z" />
    <glyph glyph-name="backslash" unicode="\" horiz-adv-x="791" 
d="M146 1404l655 -1611l-13 -18h-140l-658 1611l13 18h143z" />
    <glyph glyph-name="bracketright" unicode="]" horiz-adv-x="628" 
d="M364 1200h-267l-19 18v114l19 18h422l19 -18v-1674l-19 -18h-422l-19 18v114l19 18h267v1410z" />
    <glyph glyph-name="asciicircum" unicode="^" 
d="M515 1265h-12l-241 -353h-196l-3 12l369 502h152l371 -502l-3 -12h-197z" />
    <glyph glyph-name="underscore" unicode="_" 
d="M1040 -306h-1060v144h1060v-144z" />
    <glyph glyph-name="grave" unicode="`" horiz-adv-x="596" 
d="M486 1147l-8 -19h-130l-254 238v18h197z" />
    <glyph glyph-name="a" unicode="a" horiz-adv-x="981" 
d="M148 936l15 18q77 23 159 34.5t160 11.5h17q82 0 145.5 -19.5t106 -63t64.5 -112.5t22 -167v-620l-15 -18h-122l-17 18l-8 91h-4q-73 -59 -148.5 -93t-165.5 -34q-61 0 -110.5 17t-85 50.5t-54.5 82.5t-19 113v17q0 78 30.5 141t97 106.5t171.5 67t254 23.5h30v17
q0 63 -7 108t-29.5 74t-65 43t-114.5 14h-17q-69 0 -129 -14t-125 -40h-11l-17 14zM671 464h-57q-80 0 -147.5 -9.5t-116.5 -32.5t-76.5 -61t-27.5 -94v-18q0 -24 7 -47.5t25 -42t50 -30t83 -11.5q76 0 138 30.5t122 82.5v233z" />
    <glyph glyph-name="b" unicode="b" horiz-adv-x="1076" 
d="M150 1408l18 18h130l18 -18v-515q33 27 63.5 47t63.5 33.5t70 20t83 6.5h18q112 0 185 -38t116 -103.5t60 -153t17 -185.5v-27q0 -90 -22 -181t-71 -164.5t-129 -119.5t-195 -46h-15q-79 0 -152.5 17.5t-146.5 50.5l-92 -68h-19v1426zM316 179q55 -29 106 -41t113 -12h18
q81 0 133 28t82.5 77t42 116.5t11.5 145.5v27q0 73 -8 134.5t-33 106.5t-72 70t-126 25h-18q-40 0 -72.5 -6t-62 -18.5t-57 -31.5t-57.5 -45v-576z" />
    <glyph glyph-name="c" unicode="c" horiz-adv-x="866" 
d="M790 819l-19 -16h-12q-34 15 -60.5 25t-52.5 16t-55.5 9t-69.5 3h-17q-72 0 -120.5 -22t-78 -66.5t-42 -110.5t-12.5 -153v-27q0 -87 12.5 -152.5t42 -110t78 -66.5t120.5 -22h17q37 0 66.5 2.5t56.5 8.5t54 16t60 26h15l17 -18l18 -117l-16 -20q-38 -12 -70 -20.5
t-62.5 -13t-64 -6.5t-74.5 -2h-17q-117 0 -197 32.5t-129.5 95t-71 155t-21.5 212.5v27q0 120 24 212.5t75 155.5t130.5 95.5t189.5 32.5h17q39 0 72.5 -2t65 -7t62.5 -14t67 -23l16 -20z" />
    <glyph glyph-name="d" unicode="d" horiz-adv-x="1076" 
d="M792 0l-20 20l-6 64h-6q-32 -26 -63.5 -45t-65 -31.5t-71 -19t-82.5 -6.5h-18q-112 0 -185 37t-115.5 102t-59 154t-16.5 193v29q0 57 9.5 116.5t30 115.5t52.5 105t78.5 86t107 58.5t137.5 21.5h15q125 0 246 -46v454l18 18h130l18 -18v-1388l-20 -20h-114zM760 803
q-55 29 -107 41t-114 12h-18q-81 0 -133 -28.5t-81.5 -77t-41 -114t-11.5 -139.5v-29q0 -79 7.5 -142t32 -107.5t71.5 -68.5t126 -24h18q40 0 73 6t62.5 18.5t57.5 31.5t58 45v576z" />
    <glyph glyph-name="e" unicode="e" horiz-adv-x="1019" 
d="M916 74l-12 -26q-39 -16 -78.5 -28t-82 -20.5t-90 -13t-103.5 -4.5h-17q-120 0 -205 27.5t-139.5 87.5t-79.5 155t-25 229v27q0 127 29 220t84.5 153.5t137 89.5t185.5 29h17q101 0 177.5 -24.5t128 -69.5t77.5 -108.5t26 -141.5v-18q0 -60 -20.5 -100t-56 -64t-82.5 -34
t-99 -10h-438v-20q0 -150 71.5 -218.5t217.5 -68.5h17q50 0 88.5 4.5t71.5 13t64 22t66 31.5h11l25 -14zM701 570q48 0 67.5 16t19.5 53v14q0 44 -16 82t-48 65.5t-79 43t-108 15.5h-17q-57 0 -106.5 -14.5t-86 -47t-57 -84.5t-20.5 -127v-16h451z" />
    <glyph glyph-name="f" unicode="f" horiz-adv-x="625" 
d="M218 838h-152l-18 17v109l18 18h152v110q0 82 14 138t44 90.5t76.5 49.5t110.5 15q29 0 62 -2t59 -7l19 -16l-21 -116l-16 -12h-10q-15 5 -32.5 7t-45.5 2q-18 0 -34.5 -6t-30 -22.5t-21.5 -46.5t-8 -78v-106h165l19 -18v-109l-19 -17h-165v-820l-19 -18h-128l-19 18v820
z" />
    <glyph glyph-name="g" unicode="g" horiz-adv-x="964" 
d="M814 187q0 -69 10 -131t10 -120q0 -73 -29 -128.5t-81.5 -92.5t-126.5 -56t-165 -19q-38 0 -73.5 2.5t-71 7.5t-72 14t-76.5 21l-18 26l41 122h33q55 -23 110.5 -36t122.5 -13q117 0 181.5 37.5t64.5 123.5q0 24 -4 50.5t-9 53t-9 50.5t-4 43v13h-6q-32 -26 -57.5 -42
t-50 -26t-50 -13.5t-56.5 -3.5h-18q-83 0 -146 32.5t-105 90t-63.5 137.5t-21.5 176v19q0 57 8.5 114.5t27 110t46.5 98.5t67.5 79.5t90.5 53t115 19.5h15q30 0 56 -2.5t52.5 -8.5t56 -16.5t65.5 -26.5l121 54h19v-813zM648 813q-27 15 -49.5 23.5t-43 13t-41.5 5.5t-45 1
h-18q-58 0 -98.5 -24t-65.5 -67.5t-36 -104.5t-11 -135v-19q0 -141 46 -216.5t155 -75.5h18q51 0 95.5 19t93.5 62v518z" />
    <glyph glyph-name="h" unicode="h" horiz-adv-x="1076" 
d="M316 882h5q76 67 153 92.5t158 25.5h15q83 0 139 -26t90.5 -72.5t49 -111t14.5 -141.5v-631l-19 -18h-128l-19 16v606q0 57 -5.5 100.5t-24.5 73.5t-55 45t-97 15h-15q-74 0 -143 -37t-118 -100v-701l-19 -18h-128l-19 16v1392l19 18h128l19 -16v-528z" />
    <glyph glyph-name="i" unicode="i" horiz-adv-x="470" 
d="M318 18l-18 -18h-130l-18 18v946l20 18h128l18 -18v-946zM152 1332l18 18h130l18 -18v-154l-18 -18h-133l-15 18v154z" />
    <glyph glyph-name="j" unicode="j" horiz-adv-x="490" 
d="M336 -79q0 -59 -13.5 -110t-44.5 -89t-82 -60t-126 -22q-46 0 -98 13l-17 21v96l20 14h47q76 0 112 35.5t36 113.5v905h-90l-20 20v106l20 18h238l18 -18v-1043zM170 1332l18 18h130l18 -18v-154l-18 -18h-133l-15 18v154z" />
    <glyph glyph-name="k" unicode="k" horiz-adv-x="931" 
d="M316 20l-17 -20h-132l-17 20v1386l17 20h132l17 -20v-820h83l288 396h165l15 -19l-331 -443l360 -499l-9 -21h-172l-316 454h-83v-434z" />
    <glyph glyph-name="l" unicode="l" horiz-adv-x="470" 
d="M442 18l-15 -18q-26 -8 -55.5 -13t-58.5 -5q-44 0 -75.5 12t-51.5 39t-29.5 70t-9.5 105v1200l17 18h132l17 -18v-1186q0 -30 3 -49t10 -29.5t18 -14t27 -3.5h43l20 -12z" />
    <glyph glyph-name="m" unicode="m" horiz-adv-x="1636" 
d="M150 962l20 20h106l20 -20l14 -104h6q54 61 122.5 100t156.5 39q101 0 164.5 -55.5t90.5 -147.5q21 54 55 92t76.5 63t91 36.5t97.5 11.5q161 0 245.5 -96t84.5 -276v-605l-19 -20h-128l-19 18v602q0 115 -49.5 174t-146.5 59q-44 0 -85 -15t-73.5 -44t-52 -73
t-19.5 -101v-600l-19 -20h-128l-19 18v602q0 118 -51.5 175.5t-145.5 57.5q-64 0 -123.5 -33.5t-105.5 -94.5v-705l-19 -20h-128l-19 18v944z" />
    <glyph glyph-name="n" unicode="n" horiz-adv-x="1076" 
d="M150 964l19 18h116l19 -16l6 -84h5q76 67 156 92.5t161 25.5h15q83 0 139 -26t90.5 -72.5t49 -111t14.5 -141.5v-629l-19 -20h-128l-19 18v604q0 57 -5.5 100.5t-24.5 73.5t-55 45t-97 15h-15q-74 0 -143 -37t-118 -100v-699l-19 -20h-128l-19 18v946z" />
    <glyph glyph-name="o" unicode="o" horiz-adv-x="1080" 
d="M84 511q0 121 31 212.5t89 153t140.5 92.5t185.5 31h20q103 0 185.5 -31t140.5 -92.5t89 -153t31 -212.5v-40q0 -121 -31 -212.5t-89 -153t-140.5 -92.5t-185.5 -31h-20q-103 0 -185.5 31t-140.5 92.5t-89 153t-31 212.5v40zM254 471q0 -176 70.5 -260.5t205.5 -84.5h20
q133 0 204.5 84.5t71.5 260.5v40q0 175 -71.5 260t-204.5 85h-20q-135 0 -205.5 -85t-70.5 -260v-40z" />
    <glyph glyph-name="p" unicode="p" horiz-adv-x="1076" 
d="M150 962l20 20h114l20 -20l6 -64h6q32 25 63 44.5t65 32t71.5 19t82.5 6.5h18q112 0 185 -37t115.5 -102t59 -154t16.5 -193v-29q0 -86 -21.5 -175t-70.5 -162t-128.5 -119.5t-194.5 -46.5h-15q-125 0 -246 46v-370l-18 -18h-130l-18 18v1304zM316 179q55 -29 107 -41
t114 -12h18q81 0 133 28t81.5 77t41 114.5t11.5 139.5v29q0 79 -7.5 142t-32.5 107.5t-71.5 68.5t-125.5 24h-18q-40 0 -73 -6t-62.5 -18.5t-57.5 -31.5t-58 -45v-576z" />
    <glyph glyph-name="q" unicode="q" horiz-adv-x="1076" 
d="M926 -342l-18 -18h-130l-18 18v444h-6q-32 -26 -62 -45t-62.5 -31.5t-68.5 -19t-81 -6.5h-18q-112 0 -185 37t-116 102t-60 154t-17 193v29q0 57 9.5 115t30 112t52.5 101t78.5 82t107 55t137.5 20h15q79 0 153.5 -17.5t147.5 -50.5l92 68h19v-1342zM760 803
q-55 29 -107 41t-114 12h-18q-81 0 -133 -25.5t-81.5 -71t-41 -108t-11.5 -136.5v-29q0 -79 8 -142t33 -107.5t72 -68.5t126 -24h18q40 0 72.5 6t61.5 18.5t57 31.5t58 45v558z" />
    <glyph glyph-name="r" unicode="r" horiz-adv-x="714" 
d="M672 854l-20 -16q-29 10 -55 13t-62 3q-33 0 -71.5 -18t-71.5 -55.5t-54.5 -96t-21.5 -139.5v-525l-20 -20h-126l-20 20v942l20 20h110l20 -20l10 -108h6q27 43 56.5 71t59 44t58.5 22.5t56 6.5q25 0 55.5 -4t61.5 -12l18 -19z" />
    <glyph glyph-name="s" unicode="s" horiz-adv-x="801" 
d="M674 819l-31 -15q-52 26 -106.5 39t-102.5 13q-92 0 -132.5 -30.5t-40.5 -90.5q0 -23 4 -42.5t15.5 -36t32 -30.5t54.5 -26l145 -51q56 -20 97.5 -44.5t68.5 -57.5t40.5 -76t13.5 -100q0 -54 -16 -106t-56 -92.5t-108 -65.5t-171 -25q-97 0 -173.5 22.5t-132.5 64.5v29
l43 97h35q45 -32 104.5 -50.5t120.5 -18.5q92 0 140 33t48 99q0 33 -7 56.5t-22.5 40.5t-39.5 30t-58 25l-146 51q-57 20 -95 46t-61 60.5t-32.5 79t-9.5 102.5q0 53 16.5 99t53.5 79.5t96.5 53t145.5 19.5q45 0 81.5 -2.5t68.5 -7.5t63.5 -13.5t67.5 -21.5l14 -30z" />
    <glyph glyph-name="t" unicode="t" horiz-adv-x="686" 
d="M222 982v213l20 20h126l20 -20v-213h181l19 -18v-109l-19 -17h-181v-548q0 -52 3.5 -83.5t12.5 -49t26 -23.5t44 -6q31 0 57.5 3.5t48.5 12.5l24 -16l17 -101l-17 -21q-12 -5 -30 -9t-39 -7t-42 -4.5t-38 -1.5q-71 0 -116 18t-71 55.5t-36 95t-10 135.5v550h-136l-18 17
v109l18 18h136z" />
    <glyph glyph-name="u" unicode="u" horiz-adv-x="1076" 
d="M926 18l-19 -18h-116l-19 16l-6 84h-5q-76 -67 -156 -92.5t-161 -25.5h-15q-83 0 -139 26t-90.5 72.5t-49 111t-14.5 141.5v629l19 20h128l19 -18v-604q0 -57 5.5 -100.5t24.5 -73.5t55 -45t97 -15h15q74 0 143 37t118 100v699l19 20h128l19 -18v-946z" />
    <glyph glyph-name="v" unicode="v" horiz-adv-x="925" 
d="M376 0l-26 20l-334 944l11 18h153l280 -794h6l280 794h153l11 -18l-334 -944l-26 -20h-174z" />
    <glyph glyph-name="w" unicode="w" horiz-adv-x="1464" 
d="M333 0l-26 20l-291 942l13 20h135l22 -20l231 -764h6l228 764l23 20h116l23 -20l228 -764h6l231 764l22 20h135l13 -20l-291 -942l-26 -20h-161l-24 20l-214 707l-214 -707l-24 -20h-161z" />
    <glyph glyph-name="x" unicode="x" horiz-adv-x="887" 
d="M829 982l11 -19l-291 -467l308 -478l-11 -18h-164l-235 376h-6l-235 -376h-165l-11 18l309 478l-292 467l12 19h161l221 -357h6l221 357h161z" />
    <glyph glyph-name="y" unicode="y" horiz-adv-x="927" 
d="M563 4l-132 -364h-154l-16 21l149 385h-50l-335 916l12 20h149l280 -779h6l279 779h148l13 -20z" />
    <glyph glyph-name="z" unicode="z" horiz-adv-x="809" 
d="M749 862l-486 -718h466l20 -20v-104l-20 -20h-649l-20 20v100l488 718h-441l-20 20v104l20 20h622l20 -20v-100z" />
    <glyph glyph-name="braceleft" unicode="{" horiz-adv-x="644" 
d="M16 575l19 17h44q54 0 87 31t51 79t24 106.5t6 114.5v117q0 177 65 261t214 84h79l18 -17v-115l-18 -18h-46q-45 0 -72 -13t-42 -37.5t-19.5 -61t-4.5 -83.5v-111q0 -95 -7 -160t-26.5 -110.5t-53 -77.5t-87.5 -60v-8q54 -28 87.5 -60t53 -77.5t26.5 -110.5t7 -160v-111
q0 -47 4.5 -83.5t19.5 -61.5t42 -37.5t72 -12.5h46l18 -17v-115l-18 -18h-79q-149 0 -214 84t-65 261v118q0 55 -6 113.5t-24 106.5t-51 79t-87 31h-44l-19 18v115z" />
    <glyph glyph-name="bar" unicode="|" horiz-adv-x="943" 
d="M380 1404l19 18h142l19 -18v-1771l-19 -18h-142l-19 18v1771z" />
    <glyph glyph-name="braceright" unicode="}" horiz-adv-x="644" 
d="M628 460l-19 -18h-44q-54 0 -87 -31t-51 -79t-24 -106.5t-6 -113.5v-118q0 -177 -65 -261t-214 -84h-79l-18 18v115l18 17h46q45 0 72 12.5t42 37.5t19.5 61.5t4.5 83.5v111q0 95 7 160t26.5 110.5t53 77.5t87.5 60v8q-54 28 -87.5 60t-53 77.5t-26.5 110.5t-7 160v111
q0 47 -4.5 83.5t-19.5 61t-42 37.5t-72 13h-46l-18 18v115l18 17h79q149 0 214 -84t65 -261v-117q0 -56 6 -114.5t24 -106.5t51 -79t87 -31h44l19 -17v-115z" />
    <glyph glyph-name="asciitilde" unicode="~" 
d="M949 792l17 -18q0 -63 -16 -119.5t-49 -99t-83.5 -67.5t-119.5 -25q-54 0 -92.5 13.5t-68 34.5t-53 44.5t-46 44.5t-48 34.5t-58.5 13.5q-44 0 -69 -12.5t-38.5 -34.5t-17 -53t-3.5 -67l-13 -18h-118l-17 18q0 64 15.5 120.5t47.5 99t82.5 67t120.5 24.5q53 0 91.5 -13.5
t68.5 -34.5t54 -44.5t47.5 -44.5t49 -34.5t58.5 -13.5q44 0 69 12.5t38 34.5t16 52.5t3 67.5l13 18h119z" />
    <glyph glyph-name="exclamdown" unicode="&#xa1;" horiz-adv-x="667" 
d="M244.052 423.068l45.9941 165.979h88.9893l44.9941 -165.979v-756.908l-19.9971 -17.998h-138.983l-20.9971 17.998v756.908zM424.029 804.021l-19.9971 -17.998h-138.983l-20.9971 17.998v157.98l20.9971 17.998h138.983l19.9971 -17.998v-157.98z" />
    <glyph glyph-name="cent" unicode="&#xa2;" 
d="M464 249q-95 0 -169.5 30t-125.5 87.5t-78 142.5t-27 195v52q0 113 27 198.5t78.5 142.5t125.5 86t169 29v195l18 19h130l19 -19v-195q75 -4 141 -17.5t136 -39.5l16 -18l-20 -121l-22 -16h-12q-79 37 -155.5 49t-164.5 12q-89 0 -149 -12t-96 -46t-51.5 -93.5
t-15.5 -153.5v-52q0 -95 17.5 -154.5t55 -93t96.5 -45.5t143 -12q88 0 174 12t167 47h15l18 -17v-122l-18 -22q-38 -12 -70.5 -20.5t-65 -14t-66.5 -8.5t-73 -5v-230l-19 -19h-130l-18 19v230z" />
    <glyph glyph-name="sterling" unicode="&#xa3;" horiz-adv-x="1038" 
d="M676 623l-19 -18h-228q0 -64 -3.5 -123.5t-17.5 -115t-41.5 -107.5t-76.5 -101v-5h666l18 -18v-117l-18 -18h-913l-19 18v122l19 13q61 41 101 93t64 110.5t34 121.5t10 127h-209l-19 18v108l19 18h209v100q0 70 3 135t15 120.5t36.5 101t67 78t107 50t156.5 17.5
q35 0 64.5 -1.5t56.5 -5t52.5 -9t52.5 -12.5l18 -23l-19 -111l-25 -19h-9q-27 7 -47 11.5t-39.5 7t-42.5 3.5t-57 1q-70 0 -112 -17t-64.5 -56t-29.5 -103.5t-7 -160.5v-107h228l19 -18v-108z" />
    <glyph glyph-name="currency" unicode="&#xa4;" 
d="M892 1000h24l71 -69v-24l-170 -161q75 -96 75 -209q0 -54 -17 -105t-55 -102l167 -162v-25l-71 -68h-24l-168 161q-52 -36 -105 -49t-110 -13q-58 0 -112 12.5t-104 47.5l-166 -159h-24l-71 68v25l165 160q-35 48 -50 99.5t-15 108.5q0 59 16.5 112t48.5 98l-165 161v24
l71 69h24l163 -160q51 36 104.5 50t111.5 14q56 0 110 -14t108 -52zM262 536q0 -64 20.5 -109.5t54.5 -74.5t78.5 -42.5t93.5 -13.5q48 0 93.5 14t81 43t57 75t21.5 109q0 64 -20.5 110t-56 76t-82 44t-97.5 14q-39 0 -82 -14.5t-79 -44.5t-59.5 -76.5t-23.5 -109.5z" />
    <glyph glyph-name="yen" unicode="&#xa5;" horiz-adv-x="1038" 
d="M852 666l18 -18v-96l-18 -18h-236l-9 -18v-124h245l18 -18v-96l-18 -18h-245v-240l-20 -20h-134l-20 20v240h-246l-17 18v96l17 18h246v124l-9 18h-237l-17 18v96l17 18h172l-316 646l11 20h167l296 -615h6l296 615h167l11 -20l-317 -646h172z" />
    <glyph glyph-name="brokenbar" unicode="&#xa6;" 
d="M426 1426h166v-767h-166v767zM426 407h166v-767h-166v767z" />
    <glyph glyph-name="section" unicode="&#xa7;" 
d="M868 1162l-21 -16h-6q-75 30 -149.5 42t-154.5 12h-19q-53 0 -98 -6t-77.5 -21t-51 -40t-18.5 -62v-16q0 -35 11 -62t36.5 -49.5t68 -41.5t104.5 -37l217 -60q54 -15 99 -37.5t77.5 -52.5t50 -68.5t17.5 -85.5v-31q0 -47 -13 -84t-38 -68.5t-61.5 -59.5t-82.5 -56v-5
q57 -30 91 -56t52 -53.5t23.5 -58.5t5.5 -72v-17q0 -75 -30.5 -131t-87 -93t-135 -55.5t-174.5 -18.5h-19q-41 0 -87 5t-91.5 14t-89.5 20.5t-82 24.5l-16 20l18 113l20 16h9q77 -32 157 -47.5t165 -15.5h19q50 0 95 8t79.5 25.5t55 45.5t20.5 68v17q0 34 -16.5 58t-46.5 42
t-72 32.5t-93 28.5l-213 59q-71 19 -120 47t-79.5 62.5t-44.5 74.5t-14 84v32q0 82 51.5 146.5t141.5 110.5v9q-33 17 -61 38t-48.5 49.5t-31.5 65.5t-11 86v16q0 80 31 135.5t88 90.5t137 51t178 16h17q81 0 161 -16t156 -39l16 -21zM431 733q-30 -12 -65 -28.5t-65 -37.5
t-49.5 -48t-19.5 -60v-32q0 -33 8.5 -58t27 -44.5t48 -34t72.5 -26.5l190 -53q37 13 73.5 32.5t65 45t46 57t17.5 67.5v16q0 52 -35 90.5t-118 61.5z" />
    <glyph glyph-name="dieresis" unicode="&#xa8;" horiz-adv-x="804" 
d="M496 1314l19 18h142l19 -18v-168l-19 -18h-145l-16 18v168zM128 1314l19 18h142l19 -18v-168l-19 -18h-145l-16 18v168z" />
    <glyph glyph-name="copyright" unicode="&#xa9;" horiz-adv-x="1709" 
d="M1641 568q0 -203 -44.5 -349t-140 -240t-244.5 -139t-358 -45t-357.5 45t-243.5 139t-139 240t-44 349q0 202 44 349.5t139 243.5t243.5 142.5t357.5 46.5t358 -46.5t244.5 -142.5t140 -243.5t44.5 -349.5zM1534 568q0 180 -36.5 309t-117.5 212t-210.5 122t-315.5 39
t-315.5 -39t-210 -122t-117 -212t-36.5 -309t36.5 -307.5t117 -208t210 -117.5t315.5 -37t315.5 37t210.5 117.5t117.5 208t36.5 307.5zM890 1026q81 0 153.5 -8t145.5 -34l15 -20l-13 -116l-18 -16h-13q-35 13 -66 22.5t-63 15.5t-66 9t-75 3h-18q-80 0 -134.5 -17.5
t-87.5 -54t-47 -94.5t-14 -139v-24q0 -81 14 -138.5t47 -94t87.5 -53.5t134.5 -17h18q76 0 148.5 11.5t140.5 40.5h15l17 -16v-120l-17 -18q-78 -23 -149.5 -32.5t-154.5 -9.5h-18q-119 0 -202.5 28t-136.5 84t-77.5 140t-24.5 195v24q0 223 108.5 336t332.5 113h18z" />
    <glyph glyph-name="ordfeminine" unicode="&#xaa;" horiz-adv-x="824" 
d="M636 826h-77l-16 14l-9 60h-6q-46 -41 -94 -57.5t-113 -16.5q-36 0 -67.5 10t-55 30t-36.5 49t-13 68q0 33 19 67.5t61.5 62.5t111 46t167.5 18h20v36q0 61 -35 89.5t-89 28.5q-49 0 -88 -14t-77 -39h-18l-41 71l9 23q35 21 62 33.5t52.5 19.5t52.5 9t63 2q52 0 95 -13
t74 -40t48.5 -68t17.5 -97v-373zM360 916q48 0 90.5 18t77.5 52v101h-16q-68 0 -113.5 -7.5t-74 -21t-40.5 -31t-12 -37.5q0 -41 25 -57.5t63 -16.5z" />
    <glyph glyph-name="guillemotleft" unicode="&#xab;" horiz-adv-x="1049" 
d="M544 483l272 418h127l11 -18l-239 -400l239 -398l-11 -19h-127zM132 483l272 418h127l11 -18l-239 -400l239 -398l-11 -19h-127z" />
    <glyph glyph-name="logicalnot" unicode="&#xac;" 
d="M756 570h-664l-18 18v114l18 18h811l19 -18v-446l-19 -18h-128l-19 18v314z" />
    <glyph glyph-name="registered" unicode="&#xae;" horiz-adv-x="1038" 
d="M1003 923q0 -130 -25.5 -224t-83 -155t-150.5 -90t-227 -29t-226 29t-149 90t-82.5 155t-25.5 224t25.5 225t82.5 156.5t149 91.5t226 30t227 -30t150.5 -91.5t83 -156.5t25.5 -225zM923 923q0 116 -18.5 197t-65 132t-124.5 74.5t-198 23.5q-119 0 -197 -23.5
t-124 -74.5t-64 -132t-18 -197t18 -196.5t64 -130.5t124 -72.5t197 -22.5q120 0 198 22.5t124.5 72.5t65 130.5t18.5 196.5zM411 633l-8 -8h-73l-8 8v569l8 7q45 6 88.5 7t89.5 1t88 -7.5t74.5 -27.5t51.5 -54.5t19 -89.5q0 -68 -34 -108.5t-99 -62.5l201 -234l-6 -8h-104
l-194 236h-94v-228zM652 1038q0 36 -13 57t-34 31.5t-48.5 13.5t-55.5 3q-26 0 -46 -2t-44 -5v-201h84q36 0 65 4.5t49.5 15.5t31.5 31t11 52z" />
    <glyph glyph-name="macron" unicode="&#xaf;" horiz-adv-x="807" 
d="M665 1316l21 -18v-92l-21 -18h-523l-20 18v92l20 18h523z" />
    <glyph glyph-name="macron" unicode="&#x2c9;" horiz-adv-x="807" 
d="M665 1316l21 -18v-92l-21 -18h-523l-20 18v92l20 18h523z" />
    <glyph glyph-name="degree" unicode="&#xb0;" horiz-adv-x="694" 
d="M60 1145q0 63 22 114.5t61 88.5t92.5 57.5t116.5 20.5q64 0 118 -20.5t93 -57.5t61 -88.5t22 -114.5q0 -62 -22 -113.5t-61 -88t-93 -57t-118 -20.5q-63 0 -116.5 20.5t-92.5 57t-61 88t-22 113.5zM190 1144q0 -77 42 -120t120 -43t120.5 43t42.5 120q0 78 -42.5 122.5
t-120.5 44.5t-120 -44.5t-42 -122.5z" />
    <glyph glyph-name="plusminus" unicode="&#xb1;" 
d="M586 318l-19 -18h-118l-18 18v332h-366l-18 18v114l18 18h366v332l18 18h118l19 -18v-332h365l19 -18v-114l-19 -18h-365v-332zM65 60l-18 18v114l18 18h886l19 -18v-114l-19 -18h-886z" />
    <glyph glyph-name="twosuperior" unicode="&#xb2;" horiz-adv-x="688" 
d="M108 1368l11 23q28 13 53 21.5t49.5 13.5t50.5 7.5t55 2.5h15q46 0 91.5 -12.5t80.5 -40.5t57 -73t22 -110v-18q0 -54 -17 -103.5t-45 -94.5t-64 -85t-75 -75.5t-77.5 -65.5t-70.5 -55h335l15 -18v-81l-15 -18h-476l-15 18v122q31 26 70.5 56t81 65t81 73.5t71 80.5
t50.5 86.5t19 91.5v18q0 33 -10 56t-26.5 37.5t-38 21.5t-44.5 7h-15q-25 0 -46 -2.5t-40.5 -8t-39 -14.5t-40.5 -23h-9l-18 7z" />
    <glyph glyph-name="threesuperior" unicode="&#xb3;" horiz-adv-x="685" 
d="M227 1097l176 212h-277l-14 18v81l14 18h441v-98l-183 -208q50 0 90.5 -14.5t69.5 -44.5t44.5 -75.5t15.5 -107.5v-16q0 -68 -24 -119.5t-62.5 -86.5t-87.5 -53t-99 -18h-14q-56 0 -106 12t-103 35l-14 15v88l14 16h12q44 -25 96 -37t101 -12h14q31 0 57 8.5t44.5 27.5
t29 49.5t10.5 74.5v16q0 41 -17 67t-46.5 41t-69.5 20.5t-85 5.5z" />
    <glyph glyph-name="acute" unicode="&#xb4;" horiz-adv-x="598" 
d="M301 1384h197v-18l-254 -238h-130l-8 19z" />
    <glyph glyph-name="mu" unicode="&#xb5;" horiz-adv-x="1126" 
d="M324 274q24 -28 48.5 -51t52.5 -39.5t59.5 -25.5t70.5 -9q41 0 74.5 8.5t63.5 24.5t57 38.5t55 49.5v694l18 18h140l18 -18v-815h92l19 -17v-114l-19 -18h-250l-18 18v103q-28 -27 -55 -49.5t-56.5 -38.5t-63.5 -24.5t-75 -8.5t-71.5 7t-56.5 21t-50.5 35t-52.5 48v-454
l-19 -17h-139l-19 17v1307l19 18h139l19 -18v-690z" />
    <glyph glyph-name="paragraph" unicode="&#xb6;" horiz-adv-x="1200" 
d="M936 -252l-18 -18h-120l-18 18v1448h-207v-1448l-19 -18h-118l-19 18v809q-101 0 -175 30t-122 83.5t-71.5 127t-23.5 161.5t31.5 157t89 117t139 73.5t180.5 25.5h682l18 -18v-100l-18 -18h-211v-1448z" />
    <glyph glyph-name="periodcentered" unicode="&#xb7;" horiz-adv-x="517" 
d="M341 500h-165l-16 18v180l19 18h162l19 -18v-180z" />
    <glyph glyph-name="periodcentered" unicode="&#x2219;" horiz-adv-x="517" 
d="M341 500h-165l-16 18v180l19 18h162l19 -18v-180z" />
    <glyph glyph-name="cedilla" unicode="&#xb8;" horiz-adv-x="629" 
d="M415 32v-51q32 -46 47 -84.5t15 -69.5q0 -37 -8 -70.5t-28.5 -59.5t-56 -41.5t-90.5 -15.5q-25 0 -43.5 0.5t-35 2t-33.5 4.5t-39 8l-14 21l13 106l21 14h8q39 -12 91 -12q23 0 36.5 7t21 17.5t10 24t2.5 26.5q0 27 -28 69.5t-70 84.5l15 19h166z" />
    <glyph glyph-name="onesuperior" unicode="&#xb9;" horiz-adv-x="504" 
d="M167 697v589l-94 -19l-17 15l-12 76l12 26l129 46h94l16 -18v-715h101l14 -18v-81l-14 -18h-336l-15 18v81l15 18h107z" />
    <glyph glyph-name="ordmasculine" unicode="&#xba;" horiz-adv-x="865" 
d="M433 1440q67 0 122.5 -22t94.5 -62t60.5 -96.5t21.5 -125.5q0 -70 -21.5 -126.5t-60.5 -97t-94.5 -62.5t-122.5 -22q-68 0 -123.5 22t-94.5 62.5t-60.5 97t-21.5 126.5q0 69 21.5 125.5t60.5 96.5t94.5 62t123.5 22zM433 943q161 0 161 190q0 97 -40 143.5t-121 46.5
q-84 0 -123 -46.5t-39 -143.5t39 -143.5t123 -46.5z" />
    <glyph glyph-name="guillemotright" unicode="&#xbb;" horiz-adv-x="1049" 
d="M335 483l-239 400l11 18h127l272 -418l-272 -417h-127l-11 19zM646 66h-127l-11 19l239 398l-239 400l11 18h127l272 -418z" />
    <glyph glyph-name="onequarter" unicode="&#xbc;" horiz-adv-x="1303" 
d="M858 326v-14h211v241l101 80h27v-321h76l15 -20v-79l-15 -18h-76v-177l-17 -18h-95l-16 18v177h-345l-15 24v93l344 530h144l2 -18zM167 617v589l-94 -19l-17 15l-12 76l12 26l129 46h94l16 -18v-715h101l14 -18v-81l-14 -18h-336l-15 18v81l15 18h107zM324 0h-100
l-13 18l776 1332h99l14 -18z" />
    <glyph glyph-name="onehalf" unicode="&#xbd;" horiz-adv-x="1375" 
d="M164 617v589l-104 -23l-16 15l-12 76l11 26l139 50h95l15 -18v-715h94l13 -18v-81l-13 -18h-329l-15 18v81l15 18h107zM853 782l11 23q28 13 53 21.5t49.5 13.5t50.5 7.5t55 2.5h15q46 0 91.5 -12.5t80.5 -40.5t57 -73t22 -110v-18q0 -54 -17 -103.5t-45 -94.5t-64 -85
t-75 -75.5t-77.5 -65.5t-70.5 -55h335l15 -18v-81l-15 -18h-476l-15 18v122q31 26 70.5 56t81 65t81 73.5t71 80.5t50.5 86.5t19 91.5v18q0 33 -10 56t-26.5 37.5t-38 21.5t-44.5 7h-15q-25 0 -46 -2.5t-40.5 -8t-39 -14.5t-40.5 -23h-9l-18 7zM303 0h-100l-13 18l776 1332
h99l14 -18z" />
    <glyph glyph-name="threequarters" unicode="&#xbe;" horiz-adv-x="1383" 
d="M909 326v-14h230v251l100 80h28v-331h77l15 -20v-79l-15 -18h-77v-177l-19 -18h-92l-17 18v177h-344l-15 24v93l344 530h142l1 -18zM167 1003l176 212h-277l-14 18v81l14 18h441v-98l-183 -208q50 0 90.5 -14.5t69.5 -44.5t44.5 -75.5t15.5 -107.5v-16q0 -68 -24 -119.5
t-62.5 -86.5t-87.5 -53t-99 -18h-14q-56 0 -106 12t-103 35l-14 15v88l14 16h12q44 -25 96 -37t101 -12h14q31 0 57 8.5t44.5 27.5t29 49.5t10.5 74.5v16q0 41 -17 67t-46.5 41t-69.5 20.5t-85 5.5zM415 0h-100l-13 18l774 1332h99l14 -18z" />
    <glyph glyph-name="questiondown" unicode="&#xbf;" horiz-adv-x="949" 
d="M448.064 605.047l25.9971 17.998h131.984l15.998 -17.998v-249.969q-48.9941 -28.9971 -104.487 -63.4922q-55.4932 -34.4961 -102.488 -77.9912q-46.9941 -43.4941 -77.9902 -97.4873q-30.9961 -53.9941 -30.9961 -121.985v-17.998q0 -52.9932 14.998 -86.4893
t41.9951 -51.9941q26.9971 -18.4971 64.4922 -25.4961q37.4951 -7 82.4902 -7h16.9971q68.9922 0 144.482 15.998q75.4912 15.998 143.482 42.9951l19.998 -13.998l19.998 -122.985l-14.999 -22.9971q-34.9951 -11.998 -74.4902 -23.4971q-39.4951 -11.498 -79.9902 -19.498
q-40.4951 -7.99805 -80.9902 -12.998q-40.4951 -4.99902 -77.4912 -4.99902h-16.9971q-77.9912 0 -146.482 16.498t-119.985 55.4932t-81.4902 102.987t-29.9961 157.98v17.998q0 85.9893 25.4971 148.981t68.9912 112.486q43.4951 49.4941 100.987 89.4893
q57.4932 39.9951 120.485 79.9902v179.978zM474.062 993h134.983l12.999 -17.998v-179.978l-15.998 -17.998h-131.984l-25.9971 17.998v179.978z" />
    <glyph glyph-name="Agrave" unicode="&#xc0;" horiz-adv-x="1185" 
d="M869 353h-553l-120 -353h-158l-12 20l444 1292l20 20h206l20 -20l444 -1292l-12 -20h-158zM370 509h446l-220 643h-6zM758 1499l-8 -19h-130l-254 238v18h197z" />
    <glyph glyph-name="Aacute" unicode="&#xc1;" horiz-adv-x="1185" 
d="M869 353h-553l-120 -353h-158l-12 20l444 1292l20 20h206l20 -20l444 -1292l-12 -20h-158zM370 509h446l-220 643h-6zM631 1736h197v-18l-254 -238h-130l-8 19z" />
    <glyph glyph-name="Acircumflex" unicode="&#xc2;" horiz-adv-x="1185" 
d="M869 353h-553l-120 -353h-158l-12 20l444 1292l20 20h206l20 -20l444 -1292l-12 -20h-158zM370 509h446l-220 643h-6zM598 1634h-12l-174 -154h-127l-3 12l203 244h214l203 -244l-3 -12h-127z" />
    <glyph glyph-name="Atilde" unicode="&#xc3;" horiz-adv-x="1185" 
d="M869 353h-553l-120 -353h-158l-12 20l444 1292l20 20h206l20 -20l444 -1292l-12 -20h-158zM370 509h446l-220 643h-6zM319 1488l-17 18v20q0 92 46 135t121 43q27 0 67.5 -18t86.5 -43q26 -14 50 -22.5t40 -8.5q27 0 36 14t9 40v20l17 18h90l17 -18v-20q0 -49 -12 -83
t-33.5 -55t-51.5 -30.5t-66 -9.5q-27 0 -66.5 14.5t-84.5 40.5q-30 17 -55.5 27t-38.5 10q-29 0 -38.5 -14t-9.5 -40v-20l-18 -18h-89z" />
    <glyph glyph-name="Adieresis" unicode="&#xc4;" horiz-adv-x="1185" 
d="M869 353h-553l-120 -353h-158l-12 20l444 1292l20 20h206l20 -20l444 -1292l-12 -20h-158zM370 509h446l-220 643h-6zM686 1666l19 18h142l19 -18v-168l-19 -18h-145l-16 18v168zM318 1666l19 18h142l19 -18v-168l-19 -18h-145l-16 18v168z" />
    <glyph glyph-name="Aring" unicode="&#xc5;" horiz-adv-x="1185" 
d="M380 1438q0 54 17.5 91.5t46.5 60.5t67.5 33.5t80.5 10.5q43 0 81.5 -10.5t67.5 -33.5t46 -60.5t17 -91.5q0 -60 -20.5 -99.5t-55.5 -62.5l432 -1256l-12 -20h-158l-121 353h-553l-120 -353h-158l-12 20l431 1256q-35 23 -56 62.5t-21 99.5zM370 509h446l-220 643h-6z
M488 1438q0 -55 25 -79.5t69 -26.5h10q46 0 75 24t29 82t-29 82t-75 24q-48 0 -76 -24t-28 -82z" />
    <glyph glyph-name="AE" unicode="&#xc6;" horiz-adv-x="1563" 
d="M887 769h492l19 -18v-120l-17 -18h-486l30 -457h567l20 -18v-120l-17 -18h-722l-21 18l-18 339h-408l-152 -357h-171l-11 18l574 1296l20 18h845l21 -18v-120l-19 -18h-568zM692 1176h-12l-289 -667h335z" />
    <glyph glyph-name="Ccedilla" unicode="&#xc7;" horiz-adv-x="1092" 
d="M1017 88l-14 -24q-75 -38 -143 -56.5t-142 -23.5v-4q34 -51 50 -93.5t16 -72.5q0 -33 -8.5 -64.5t-29 -55.5t-55.5 -39t-87 -15q-24 0 -42 0.5t-34 2t-32.5 4t-37.5 7.5l-14 19l13 95l21 13h7q39 -11 87 -11q22 0 35.5 7t20.5 18t9.5 23.5t2.5 24.5q0 22 -18.5 62.5
t-51.5 78.5q-128 8 -219 59t-149.5 137t-86 204t-27.5 261v36q0 147 30.5 269t94.5 210.5t163 138t235 51.5h14q52 0 100 -4t93.5 -13t90.5 -25t92 -40l16 -22l-14 -142l-17 -11h-9q-42 30 -84 48.5t-84 29t-86 14t-90 3.5h-13q-101 -2 -169 -42.5t-108.5 -109.5
t-57.5 -160.5t-17 -194.5v-36q0 -104 17 -195t57.5 -158.5t108.5 -107t169 -40.5h13q52 0 99.5 4t91.5 15.5t87 31t86 51.5h6l14 -14v-144z" />
    <glyph glyph-name="Egrave" unicode="&#xc8;" horiz-adv-x="1000" 
d="M338 769h486l19 -18v-120l-19 -18h-486v-457h568l19 -18v-120l-19 -18h-723l-19 18v1296l19 18h723l19 -18v-120l-19 -18h-568v-407zM706 1499l-8 -19h-130l-254 238v18h197z" />
    <glyph glyph-name="Eacute" unicode="&#xc9;" horiz-adv-x="1000" 
d="M338 769h486l19 -18v-120l-19 -18h-486v-457h568l19 -18v-120l-19 -18h-723l-19 18v1296l19 18h723l19 -18v-120l-19 -18h-568v-407zM589 1736h197v-18l-254 -238h-130l-8 19z" />
    <glyph glyph-name="Ecircumflex" unicode="&#xca;" horiz-adv-x="1000" 
d="M338 769h486l19 -18v-120l-19 -18h-486v-457h568l19 -18v-120l-19 -18h-723l-19 18v1296l19 18h723l19 -18v-120l-19 -18h-568v-407zM550 1634h-12l-174 -154h-127l-3 12l203 244h214l203 -244l-3 -12h-127z" />
    <glyph glyph-name="Edieresis" unicode="&#xcb;" horiz-adv-x="1000" 
d="M338 769h486l19 -18v-120l-19 -18h-486v-457h568l19 -18v-120l-19 -18h-723l-19 18v1296l19 18h723l19 -18v-120l-19 -18h-568v-407zM644 1666l19 18h142l19 -18v-168l-19 -18h-145l-16 18v168zM276 1666l19 18h142l19 -18v-168l-19 -18h-145l-16 18v168z" />
    <glyph glyph-name="Igrave" unicode="&#xcc;" horiz-adv-x="516" 
d="M348 18l-17 -18h-146l-17 18v1296l17 18h146l17 -18v-1296zM434 1510l-8 -19h-130l-254 238v18h197z" />
    <glyph glyph-name="Iacute" unicode="&#xcd;" horiz-adv-x="516" 
d="M348 18l-17 -18h-146l-17 18v1296l17 18h146l17 -18v-1296zM287 1736h197v-18l-254 -238h-130l-8 19z" />
    <glyph glyph-name="Icircumflex" unicode="&#xce;" horiz-adv-x="516" 
d="M348 18l-17 -18h-146l-17 18v1296l17 18h146l17 -18v-1296zM264 1634h-12l-174 -154h-127l-3 12l203 244h214l203 -244l-3 -12h-127z" />
    <glyph glyph-name="Idieresis" unicode="&#xcf;" horiz-adv-x="516" 
d="M348 18l-17 -18h-146l-17 18v1296l17 18h146l17 -18v-1296zM352 1666l19 18h142l19 -18v-168l-19 -18h-145l-16 18v168zM-16 1666l19 18h142l19 -18v-168l-19 -18h-145l-16 18v168z" />
    <glyph glyph-name="Eth" unicode="&#xd0;" horiz-adv-x="1279" 
d="M194 612h-147l-20 18v120l20 18h147v545l17 19q81 12 167.5 14t167.5 2q158 0 280 -34t205.5 -111t127 -201t43.5 -305v-36q0 -169 -48.5 -293.5t-135 -206t-206 -121.5t-262.5 -40h-339l-17 18v594zM368 768h259l20 -18v-120l-20 -18h-259v-450h182q109 0 196 30
t148.5 92t94.5 155.5t33 221.5v36q0 136 -28.5 229.5t-86.5 151t-146.5 83t-208.5 25.5q-42 0 -91.5 -2.5t-92.5 -10.5v-405z" />
    <glyph glyph-name="Ntilde" unicode="&#xd1;" horiz-adv-x="1322" 
d="M1158 20l-18 -20h-166l-631 1032h-5v-1012l-19 -20h-136l-19 20v1292l17 20h167l633 -1032h3v1012l13 20h145l16 -20v-1292zM383 1488l-17 18v20q0 92 46 135t121 43q27 0 67.5 -18t86.5 -43q26 -14 50 -22.5t40 -8.5q27 0 36 14t9 40v20l17 18h90l17 -18v-20
q0 -49 -12 -83t-33.5 -55t-51.5 -30.5t-66 -9.5q-27 0 -66.5 14.5t-84.5 40.5q-30 17 -55.5 27t-38.5 10q-29 0 -38.5 -14t-9.5 -40v-20l-18 -18h-89z" />
    <glyph glyph-name="Ograve" unicode="&#xd2;" horiz-adv-x="1356" 
d="M90 681q0 148 32 271.5t101.5 211.5t178 137t261.5 49h29q153 0 262 -49t178.5 -137t101.5 -211.5t32 -271.5v-36q0 -149 -32 -271t-101.5 -209t-178.5 -135t-262 -48h-29q-153 0 -261.5 48t-178 135t-101.5 209t-32 271v36zM663 1188q-114 0 -189 -39.5t-119.5 -108.5
t-62 -161.5t-17.5 -197.5v-36q0 -105 17.5 -196.5t62 -159t119.5 -106.5t189 -39h29q115 0 190 39t119 106.5t61.5 159t17.5 196.5v36q0 105 -17.5 197.5t-61.5 161.5t-119 108.5t-190 39.5h-29zM848 1499l-8 -19h-130l-254 238v18h197z" />
    <glyph glyph-name="Oacute" unicode="&#xd3;" horiz-adv-x="1356" 
d="M90 681q0 148 32 271.5t101.5 211.5t178 137t261.5 49h29q153 0 262 -49t178.5 -137t101.5 -211.5t32 -271.5v-36q0 -149 -32 -271t-101.5 -209t-178.5 -135t-262 -48h-29q-153 0 -261.5 48t-178 135t-101.5 209t-32 271v36zM663 1188q-114 0 -189 -39.5t-119.5 -108.5
t-62 -161.5t-17.5 -197.5v-36q0 -105 17.5 -196.5t62 -159t119.5 -106.5t189 -39h29q115 0 190 39t119 106.5t61.5 159t17.5 196.5v36q0 105 -17.5 197.5t-61.5 161.5t-119 108.5t-190 39.5h-29zM691 1736h197v-18l-254 -238h-130l-8 19z" />
    <glyph glyph-name="Ocircumflex" unicode="&#xd4;" horiz-adv-x="1356" 
d="M90 681q0 148 32 271.5t101.5 211.5t178 137t261.5 49h29q153 0 262 -49t178.5 -137t101.5 -211.5t32 -271.5v-36q0 -149 -32 -271t-101.5 -209t-178.5 -135t-262 -48h-29q-153 0 -261.5 48t-178 135t-101.5 209t-32 271v36zM663 1188q-114 0 -189 -39.5t-119.5 -108.5
t-62 -161.5t-17.5 -197.5v-36q0 -105 17.5 -196.5t62 -159t119.5 -106.5t189 -39h29q115 0 190 39t119 106.5t61.5 159t17.5 196.5v36q0 105 -17.5 197.5t-61.5 161.5t-119 108.5t-190 39.5h-29zM684 1634h-12l-174 -154h-127l-3 12l203 244h214l203 -244l-3 -12h-127z" />
    <glyph glyph-name="Otilde" unicode="&#xd5;" horiz-adv-x="1356" 
d="M90 681q0 148 32 271.5t101.5 211.5t178 137t261.5 49h29q153 0 262 -49t178.5 -137t101.5 -211.5t32 -271.5v-36q0 -149 -32 -271t-101.5 -209t-178.5 -135t-262 -48h-29q-153 0 -261.5 48t-178 135t-101.5 209t-32 271v36zM663 1188q-114 0 -189 -39.5t-119.5 -108.5
t-62 -161.5t-17.5 -197.5v-36q0 -105 17.5 -196.5t62 -159t119.5 -106.5t189 -39h29q115 0 190 39t119 106.5t61.5 159t17.5 196.5v36q0 105 -17.5 197.5t-61.5 161.5t-119 108.5t-190 39.5h-29zM405 1488l-17 18v20q0 92 46 135t121 43q27 0 67.5 -18t86.5 -43
q26 -14 50 -22.5t40 -8.5q27 0 36 14t9 40v20l17 18h90l17 -18v-20q0 -49 -12 -83t-33.5 -55t-51.5 -30.5t-66 -9.5q-27 0 -66.5 14.5t-84.5 40.5q-30 17 -55.5 27t-38.5 10q-29 0 -38.5 -14t-9.5 -40v-20l-18 -18h-89z" />
    <glyph glyph-name="Odieresis" unicode="&#xd6;" horiz-adv-x="1356" 
d="M90 681q0 148 32 271.5t101.5 211.5t178 137t261.5 49h29q153 0 262 -49t178.5 -137t101.5 -211.5t32 -271.5v-36q0 -149 -32 -271t-101.5 -209t-178.5 -135t-262 -48h-29q-153 0 -261.5 48t-178 135t-101.5 209t-32 271v36zM663 1188q-114 0 -189 -39.5t-119.5 -108.5
t-62 -161.5t-17.5 -197.5v-36q0 -105 17.5 -196.5t62 -159t119.5 -106.5t189 -39h29q115 0 190 39t119 106.5t61.5 159t17.5 196.5v36q0 105 -17.5 197.5t-61.5 161.5t-119 108.5t-190 39.5h-29zM772 1666l19 18h142l19 -18v-168l-19 -18h-145l-16 18v168zM404 1666l19 18
h142l19 -18v-168l-19 -18h-145l-16 18v168z" />
    <glyph glyph-name="multiply" unicode="&#xd7;" 
d="M261 348l-26 1l-83 83v26l249 249l-259 259v25l80 81h26l259 -259l249 249h25l84 -84v-26l-249 -249l258 -258l1 -26l-80 -81l-27 1l-258 258z" />
    <glyph glyph-name="Oslash" unicode="&#xd8;" horiz-adv-x="1359" 
d="M1152 1402h102l12 -20l-148 -202q77 -89 112.5 -216t35.5 -283v-36q0 -149 -32 -271t-101.5 -209t-178.5 -135t-262 -48h-29q-111 0 -197.5 25t-152.5 72l-109 -149h-106l-8 21l145 199q-76 88 -110.5 213.5t-34.5 281.5v36q0 148 32 271.5t101.5 211.5t178 137t261.5 49
h29q111 0 197 -25.5t152 -73.5zM416 220q44 -37 105 -56.5t142 -19.5h29q115 0 190 39t119 106.5t61.5 159t17.5 196.5v36q0 102 -16 190.5t-57 157.5zM939 1111q-45 37 -105.5 57t-141.5 20h-29q-114 0 -189 -39.5t-119.5 -108.5t-62 -161.5t-17.5 -197.5v-36
q0 -101 15.5 -188.5t55.5 -154.5z" />
    <glyph glyph-name="Ugrave" unicode="&#xd9;" horiz-adv-x="1314" 
d="M666 138q97 0 158.5 24.5t97 71t49 112.5t13.5 150v816l20 20h134l20 -20v-821q0 -116 -22 -209.5t-77.5 -160.5t-151 -103t-241.5 -36h-18q-146 0 -241.5 36t-151 103t-77.5 160.5t-22 209.5v821l20 20h134l20 -20v-816q0 -84 13.5 -150t49 -112.5t97 -71t158.5 -24.5
h18zM804 1499l-8 -19h-130l-254 238v18h197z" />
    <glyph glyph-name="Uacute" unicode="&#xda;" horiz-adv-x="1314" 
d="M666 138q97 0 158.5 24.5t97 71t49 112.5t13.5 150v816l20 20h134l20 -20v-821q0 -116 -22 -209.5t-77.5 -160.5t-151 -103t-241.5 -36h-18q-146 0 -241.5 36t-151 103t-77.5 160.5t-22 209.5v821l20 20h134l20 -20v-816q0 -84 13.5 -150t49 -112.5t97 -71t158.5 -24.5
h18zM679 1736h197v-18l-254 -238h-130l-8 19z" />
    <glyph glyph-name="Ucircumflex" unicode="&#xdb;" horiz-adv-x="1314" 
d="M666 138q97 0 158.5 24.5t97 71t49 112.5t13.5 150v816l20 20h134l20 -20v-821q0 -116 -22 -209.5t-77.5 -160.5t-151 -103t-241.5 -36h-18q-146 0 -241.5 36t-151 103t-77.5 160.5t-22 209.5v821l20 20h134l20 -20v-816q0 -84 13.5 -150t49 -112.5t97 -71t158.5 -24.5
h18zM663 1634h-12l-174 -154h-127l-3 12l203 244h214l203 -244l-3 -12h-127z" />
    <glyph glyph-name="Udieresis" unicode="&#xdc;" horiz-adv-x="1314" 
d="M666 138q97 0 158.5 24.5t97 71t49 112.5t13.5 150v816l20 20h134l20 -20v-821q0 -116 -22 -209.5t-77.5 -160.5t-151 -103t-241.5 -36h-18q-146 0 -241.5 36t-151 103t-77.5 160.5t-22 209.5v821l20 20h134l20 -20v-816q0 -84 13.5 -150t49 -112.5t97 -71t158.5 -24.5
h18zM751 1666l19 18h142l19 -18v-168l-19 -18h-145l-16 18v168zM383 1666l19 18h142l19 -18v-168l-19 -18h-145l-16 18v168z" />
    <glyph glyph-name="Yacute" unicode="&#xdd;" horiz-adv-x="998" 
d="M586 20l-20 -20h-134l-20 20v496l-390 796l11 20h167l296 -615h6l296 615h167l11 -20l-390 -796v-496zM523 1736h197v-18l-254 -238h-130l-8 19z" />
    <glyph glyph-name="Thorn" unicode="&#xde;" horiz-adv-x="1058" 
d="M338 1123h125q134 0 231 -27.5t160 -81t93 -131.5t30 -179v-18q0 -99 -30 -176.5t-93 -130t-160 -80t-231 -27.5h-125v-272l-18 -18h-138l-18 18v1332l18 18h138l18 -16v-211zM463 428q84 0 146.5 11t104 39.5t62.5 79t21 128.5v18q0 72 -21 122t-62.5 81.5t-104 45.5
t-146.5 14h-125v-539h125z" />
    <glyph glyph-name="germandbls" unicode="&#xdf;" horiz-adv-x="1080" 
d="M466 196h34q18 -16 41 -28t47.5 -20.5t48.5 -12.5t45 -4h20q68 0 100 40t32 106v20q0 50 -23 85.5t-57 64.5t-74 56t-74 60t-57 76.5t-23 106.5q0 52 18.5 88t47 64.5t61 52t61 50t47 59t18.5 79.5q0 31 -11 57t-36 45t-64 30t-95 11q-62 0 -108 -17.5t-76 -56
t-44.5 -99.5t-14.5 -147v-942l-20 -20h-134l-20 20v934q0 112 28 199.5t82 148t133 92.5t181 32q96 0 165.5 -26.5t113.5 -68.5t65 -93.5t21 -100.5q0 -57 -18.5 -100t-47 -76.5t-61 -60.5t-61 -52t-47 -51t-18.5 -57q0 -38 24 -65t59.5 -52.5t77.5 -52.5t77.5 -63.5
t59.5 -87t24 -122.5v-20q0 -72 -23 -127t-64.5 -92.5t-98.5 -56.5t-126 -19h-20q-84 0 -151.5 20t-119.5 70v27z" />
    <glyph glyph-name="agrave" unicode="&#xe0;" horiz-adv-x="981" 
d="M148 936l15 18q77 23 159 34.5t160 11.5h17q82 0 145.5 -19.5t106 -63t64.5 -112.5t22 -167v-620l-15 -18h-122l-17 18l-8 91h-4q-73 -59 -148.5 -93t-165.5 -34q-61 0 -110.5 17t-85 50.5t-54.5 82.5t-19 113v17q0 78 30.5 141t97 106.5t171.5 67t254 23.5h30v17
q0 63 -7 108t-29.5 74t-65 43t-114.5 14h-17q-69 0 -129 -14t-125 -40h-11l-17 14zM671 464h-57q-80 0 -147.5 -9.5t-116.5 -32.5t-76.5 -61t-27.5 -94v-18q0 -24 7 -47.5t25 -42t50 -30t83 -11.5q76 0 138 30.5t122 82.5v233zM686 1147l-8 -19h-130l-254 238v18h197z" />
    <glyph glyph-name="aacute" unicode="&#xe1;" horiz-adv-x="981" 
d="M148 936l15 18q77 23 159 34.5t160 11.5h17q82 0 145.5 -19.5t106 -63t64.5 -112.5t22 -167v-620l-15 -18h-122l-17 18l-8 91h-4q-73 -59 -148.5 -93t-165.5 -34q-61 0 -110.5 17t-85 50.5t-54.5 82.5t-19 113v17q0 78 30.5 141t97 106.5t171.5 67t254 23.5h30v17
q0 63 -7 108t-29.5 74t-65 43t-114.5 14h-17q-69 0 -129 -14t-125 -40h-11l-17 14zM671 464h-57q-80 0 -147.5 -9.5t-116.5 -32.5t-76.5 -61t-27.5 -94v-18q0 -24 7 -47.5t25 -42t50 -30t83 -11.5q76 0 138 30.5t122 82.5v233zM519 1384h197v-18l-254 -238h-130l-8 19z" />
    <glyph glyph-name="acircumflex" unicode="&#xe2;" horiz-adv-x="981" 
d="M148 936l15 18q77 23 159 34.5t160 11.5h17q82 0 145.5 -19.5t106 -63t64.5 -112.5t22 -167v-620l-15 -18h-122l-17 18l-8 91h-4q-73 -59 -148.5 -93t-165.5 -34q-61 0 -110.5 17t-85 50.5t-54.5 82.5t-19 113v17q0 78 30.5 141t97 106.5t171.5 67t254 23.5h30v17
q0 63 -7 108t-29.5 74t-65 43t-114.5 14h-17q-69 0 -129 -14t-125 -40h-11l-17 14zM671 464h-57q-80 0 -147.5 -9.5t-116.5 -32.5t-76.5 -61t-27.5 -94v-18q0 -24 7 -47.5t25 -42t50 -30t83 -11.5q76 0 138 30.5t122 82.5v233zM516 1282h-12l-174 -154h-127l-3 12l203 244
h214l203 -244l-3 -12h-127z" />
    <glyph glyph-name="atilde" unicode="&#xe3;" horiz-adv-x="981" 
d="M148 936l15 18q77 23 159 34.5t160 11.5h17q82 0 145.5 -19.5t106 -63t64.5 -112.5t22 -167v-620l-15 -18h-122l-17 18l-8 91h-4q-73 -59 -148.5 -93t-165.5 -34q-61 0 -110.5 17t-85 50.5t-54.5 82.5t-19 113v17q0 78 30.5 141t97 106.5t171.5 67t254 23.5h30v17
q0 63 -7 108t-29.5 74t-65 43t-114.5 14h-17q-69 0 -129 -14t-125 -40h-11l-17 14zM671 464h-57q-80 0 -147.5 -9.5t-116.5 -32.5t-76.5 -61t-27.5 -94v-18q0 -24 7 -47.5t25 -42t50 -30t83 -11.5q76 0 138 30.5t122 82.5v233zM237 1128l-17 18v20q0 92 46 135t121 43
q27 0 67.5 -18t86.5 -43q26 -14 50 -22.5t40 -8.5q27 0 36 14t9 40v20l17 18h90l17 -18v-20q0 -49 -12 -83t-33.5 -55t-51.5 -30.5t-66 -9.5q-27 0 -66.5 14.5t-84.5 40.5q-30 17 -55.5 27t-38.5 10q-29 0 -38.5 -14t-9.5 -40v-20l-18 -18h-89z" />
    <glyph glyph-name="adieresis" unicode="&#xe4;" horiz-adv-x="981" 
d="M148 936l15 18q77 23 159 34.5t160 11.5h17q82 0 145.5 -19.5t106 -63t64.5 -112.5t22 -167v-620l-15 -18h-122l-17 18l-8 91h-4q-73 -59 -148.5 -93t-165.5 -34q-61 0 -110.5 17t-85 50.5t-54.5 82.5t-19 113v17q0 78 30.5 141t97 106.5t171.5 67t254 23.5h30v17
q0 63 -7 108t-29.5 74t-65 43t-114.5 14h-17q-69 0 -129 -14t-125 -40h-11l-17 14zM671 464h-57q-80 0 -147.5 -9.5t-116.5 -32.5t-76.5 -61t-27.5 -94v-18q0 -24 7 -47.5t25 -42t50 -30t83 -11.5q76 0 138 30.5t122 82.5v233zM604 1314l19 18h142l19 -18v-168l-19 -18h-145
l-16 18v168zM236 1314l19 18h142l19 -18v-168l-19 -18h-145l-16 18v168z" />
    <glyph glyph-name="aring" unicode="&#xe5;" horiz-adv-x="981" 
d="M148 936l15 18q77 23 159 34.5t160 11.5h17q82 0 145.5 -19.5t106 -63t64.5 -112.5t22 -167v-620l-15 -18h-122l-17 18l-8 91h-4q-73 -59 -148.5 -93t-165.5 -34q-61 0 -110.5 17t-85 50.5t-54.5 82.5t-19 113v17q0 78 30.5 141t97 106.5t171.5 67t254 23.5h30v17
q0 63 -7 108t-29.5 74t-65 43t-114.5 14h-17q-69 0 -129 -14t-125 -40h-11l-17 14zM671 464h-57q-80 0 -147.5 -9.5t-116.5 -32.5t-76.5 -61t-27.5 -94v-18q0 -24 7 -47.5t25 -42t50 -30t83 -11.5q76 0 138 30.5t122 82.5v233zM296 1232q0 54 17.5 91.5t46.5 60.5t67.5 33.5
t80.5 10.5q43 0 81.5 -10.5t67.5 -33.5t46 -60.5t17 -91.5t-17 -91.5t-46 -60.5t-67.5 -33.5t-81.5 -10.5q-42 0 -80.5 10.5t-67.5 33.5t-46.5 60.5t-17.5 91.5zM404 1232q0 -58 28 -82t76 -24q46 0 75 24t29 82t-29 82t-75 24q-48 0 -76 -24t-28 -82z" />
    <glyph glyph-name="ae" unicode="&#xe6;" horiz-adv-x="1583" 
d="M684 576v67q0 109 -60.5 165t-174.5 56q-74 0 -134.5 -16t-122.5 -48l-27 10l-34 85l11 26q50 27 91.5 42.5t80 23.5t75 10.5t75.5 2.5q51 0 99 -9t90 -26t76 -42.5t57 -59.5q57 74 130.5 105.5t177.5 31.5q103 0 175.5 -24.5t118 -71t66.5 -113t21 -150.5
q0 -104 -50 -148.5t-156 -44.5h-419v-14q0 -77 12.5 -136t44 -99t85 -60.5t135.5 -20.5q93 0 157 20.5t107 45.5l31 -10l30 -86l-11 -27q-5 -6 -34 -19t-74 -26.5t-102.5 -23.5t-121.5 -10q-69 0 -122 11.5t-94 33t-72.5 53.5t-57.5 74q-33 -41 -74 -73t-87 -54t-96 -33.5
t-102 -11.5q-71 0 -128.5 18.5t-98 52.5t-63 82.5t-22.5 108.5q0 85 34 147.5t95.5 103.5t148 61t191.5 20h123zM1242 576q37 0 57.5 13t20.5 57q0 66 -14.5 108.5t-44 67t-74 34t-104.5 9.5q-62 0 -106 -22t-72 -59.5t-41.5 -88t-13.5 -107.5v-12h392zM704 275
q-11 35 -15.5 72.5t-4.5 80.5v20h-140q-68 0 -123 -12.5t-93.5 -36.5t-59 -59.5t-20.5 -81.5q0 -35 7.5 -61t27 -43.5t54.5 -26.5t91 -9q66 0 136.5 35.5t139.5 121.5z" />
    <glyph glyph-name="ccedilla" unicode="&#xe7;" horiz-adv-x="866" 
d="M790 819l-19 -16h-12q-34 15 -60.5 25t-52.5 16t-55.5 9t-69.5 3h-17q-72 0 -120.5 -22t-78 -66.5t-42 -110.5t-12.5 -153v-27q0 -87 12.5 -152.5t42 -110t78 -66.5t120.5 -22h17q37 0 66.5 2.5t56.5 8.5t54 16t60 26h15l17 -18l18 -117l-16 -20q-32 -10 -58.5 -17.5
t-52 -12t-51.5 -7.5t-55 -4v-6q32 -46 47 -82.5t15 -67.5q0 -37 -8 -70.5t-28.5 -59.5t-56 -41.5t-90.5 -15.5q-25 0 -43.5 0.5t-35 2t-33.5 4.5t-39 8l-14 21l13 106l21 14h8q39 -12 91 -12q23 0 36.5 7t21 17.5t10 24t2.5 26.5q0 23 -20.5 57.5t-52.5 70.5
q-92 11 -156 48.5t-103.5 99.5t-57 148t-17.5 194v27q0 120 24 212.5t75 155.5t130.5 95.5t189.5 32.5h17q39 0 72.5 -2t65 -7t62.5 -14t67 -23l14 -22z" />
    <glyph glyph-name="egrave" unicode="&#xe8;" horiz-adv-x="1019" 
d="M916 74l-12 -26q-39 -16 -78.5 -28t-82 -20.5t-90 -13t-103.5 -4.5h-17q-120 0 -205 27.5t-139.5 87.5t-79.5 155t-25 229v27q0 127 29 220t84.5 153.5t137 89.5t185.5 29h17q101 0 177.5 -24.5t128 -69.5t77.5 -108.5t26 -141.5v-18q0 -60 -20.5 -100t-56 -64t-82.5 -34
t-99 -10h-438v-20q0 -150 71.5 -218.5t217.5 -68.5h17q50 0 88.5 4.5t71.5 13t64 22t66 31.5h11l25 -14zM701 570q48 0 67.5 16t19.5 53v14q0 44 -16 82t-48 65.5t-79 43t-108 15.5h-17q-57 0 -106.5 -14.5t-86 -47t-57 -84.5t-20.5 -127v-16h451zM696 1147l-8 -19h-130
l-254 238v18h197z" />
    <glyph glyph-name="eacute" unicode="&#xe9;" horiz-adv-x="1019" 
d="M916 74l-12 -26q-39 -16 -78.5 -28t-82 -20.5t-90 -13t-103.5 -4.5h-17q-120 0 -205 27.5t-139.5 87.5t-79.5 155t-25 229v27q0 127 29 220t84.5 153.5t137 89.5t185.5 29h17q101 0 177.5 -24.5t128 -69.5t77.5 -108.5t26 -141.5v-18q0 -60 -20.5 -100t-56 -64t-82.5 -34
t-99 -10h-438v-20q0 -150 71.5 -218.5t217.5 -68.5h17q50 0 88.5 4.5t71.5 13t64 22t66 31.5h11l25 -14zM701 570q48 0 67.5 16t19.5 53v14q0 44 -16 82t-48 65.5t-79 43t-108 15.5h-17q-57 0 -106.5 -14.5t-86 -47t-57 -84.5t-20.5 -127v-16h451zM559 1384h197v-18
l-254 -238h-130l-8 19z" />
    <glyph glyph-name="ecircumflex" unicode="&#xea;" horiz-adv-x="1019" 
d="M916 74l-12 -26q-39 -16 -78.5 -28t-82 -20.5t-90 -13t-103.5 -4.5h-17q-120 0 -205 27.5t-139.5 87.5t-79.5 155t-25 229v27q0 127 29 220t84.5 153.5t137 89.5t185.5 29h17q101 0 177.5 -24.5t128 -69.5t77.5 -108.5t26 -141.5v-18q0 -60 -20.5 -100t-56 -64t-82.5 -34
t-99 -10h-438v-20q0 -150 71.5 -218.5t217.5 -68.5h17q50 0 88.5 4.5t71.5 13t64 22t66 31.5h11l25 -14zM701 570q48 0 67.5 16t19.5 53v14q0 44 -16 82t-48 65.5t-79 43t-108 15.5h-17q-57 0 -106.5 -14.5t-86 -47t-57 -84.5t-20.5 -127v-16h451zM542 1282h-12l-174 -154
h-127l-3 12l203 244h214l203 -244l-3 -12h-127z" />
    <glyph glyph-name="edieresis" unicode="&#xeb;" horiz-adv-x="1019" 
d="M916 74l-12 -26q-39 -16 -78.5 -28t-82 -20.5t-90 -13t-103.5 -4.5h-17q-120 0 -205 27.5t-139.5 87.5t-79.5 155t-25 229v27q0 127 29 220t84.5 153.5t137 89.5t185.5 29h17q101 0 177.5 -24.5t128 -69.5t77.5 -108.5t26 -141.5v-18q0 -60 -20.5 -100t-56 -64t-82.5 -34
t-99 -10h-438v-20q0 -150 71.5 -218.5t217.5 -68.5h17q50 0 88.5 4.5t71.5 13t64 22t66 31.5h11l25 -14zM701 570q48 0 67.5 16t19.5 53v14q0 44 -16 82t-48 65.5t-79 43t-108 15.5h-17q-57 0 -106.5 -14.5t-86 -47t-57 -84.5t-20.5 -127v-16h451zM630 1314l19 18h142
l19 -18v-168l-19 -18h-145l-16 18v168zM262 1314l19 18h142l19 -18v-168l-19 -18h-145l-16 18v168z" />
    <glyph glyph-name="igrave" unicode="&#xec;" horiz-adv-x="470" 
d="M318 18l-19 -18h-128l-19 18v946l19 18h128l19 -18v-946zM408 1147l-8 -19h-130l-254 238v18h197z" />
    <glyph glyph-name="iacute" unicode="&#xed;" horiz-adv-x="470" 
d="M318 18l-19 -18h-128l-19 18v946l19 18h128l19 -18v-946zM264 1384h197v-18l-254 -238h-130l-8 19z" />
    <glyph glyph-name="icircumflex" unicode="&#xee;" horiz-adv-x="470" 
d="M318 18l-19 -18h-128l-19 18v946l19 18h128l19 -18v-946zM241 1282h-12l-174 -154h-127l-3 12l203 244h214l203 -244l-3 -12h-127z" />
    <glyph glyph-name="idieresis" unicode="&#xef;" horiz-adv-x="470" 
d="M318 18l-19 -18h-128l-19 18v946l19 18h128l19 -18v-946zM329 1314l19 18h142l19 -18v-168l-19 -18h-145l-16 18v168zM-39 1314l19 18h142l19 -18v-168l-19 -18h-145l-16 18v168z" />
    <glyph glyph-name="eth" unicode="&#xf0;" horiz-adv-x="1076" 
d="M760 1227q106 -100 163 -240.5t57 -313.5v-88q0 -137 -27.5 -248t-83 -189.5t-139.5 -121t-198 -42.5h-20q-91 0 -169.5 31t-136.5 89.5t-91 141t-33 186.5v40q0 86 28 163t80.5 135.5t128 93t170.5 34.5h20q93 0 164.5 -37t134.5 -114h6q-1 118 -53.5 216t-144.5 177
l-232 -140h-17l-45 68l4 17l199 120q-60 36 -129 61t-145 36v23l47 101h25q102 -14 190 -46.5t162 -83.5l160 97l14 -4l46 -68l-3 -14zM814 544q-15 41 -39 80.5t-58.5 70t-80.5 49t-103 18.5h-20q-66 0 -116 -23t-83 -62t-49.5 -92t-16.5 -113v-40q0 -72 21 -128.5
t57 -95.5t84 -59.5t102 -20.5h20q62 0 114 24t89.5 71t58 117.5t20.5 163.5v40z" />
    <glyph glyph-name="ntilde" unicode="&#xf1;" horiz-adv-x="1076" 
d="M150 964l19 18h116l19 -16l6 -84h5q76 67 156 92.5t161 25.5h15q83 0 139 -26t90.5 -72.5t49 -111t14.5 -141.5v-629l-19 -20h-128l-19 18v604q0 57 -5.5 100.5t-24.5 73.5t-55 45t-97 15h-15q-74 0 -143 -37t-118 -100v-699l-19 -20h-128l-19 18v946zM279 1128l-17 18
v20q0 92 46 135t121 43q27 0 67.5 -18t86.5 -43q26 -14 50 -22.5t40 -8.5q27 0 36 14t9 40v20l17 18h90l17 -18v-20q0 -49 -12 -83t-33.5 -55t-51.5 -30.5t-66 -9.5q-27 0 -66.5 14.5t-84.5 40.5q-30 17 -55.5 27t-38.5 10q-29 0 -38.5 -14t-9.5 -40v-20l-18 -18h-89z" />
    <glyph glyph-name="ograve" unicode="&#xf2;" horiz-adv-x="1080" 
d="M84 511q0 121 31 212.5t89 153t140.5 92.5t185.5 31h20q103 0 185.5 -31t140.5 -92.5t89 -153t31 -212.5v-40q0 -121 -31 -212.5t-89 -153t-140.5 -92.5t-185.5 -31h-20q-103 0 -185.5 31t-140.5 92.5t-89 153t-31 212.5v40zM254 471q0 -176 70.5 -260.5t205.5 -84.5h20
q133 0 204.5 84.5t71.5 260.5v40q0 175 -71.5 260t-204.5 85h-20q-135 0 -205.5 -85t-70.5 -260v-40zM704 1147l-8 -19h-130l-254 238v18h197z" />
    <glyph glyph-name="oacute" unicode="&#xf3;" horiz-adv-x="1080" 
d="M84 511q0 121 31 212.5t89 153t140.5 92.5t185.5 31h20q103 0 185.5 -31t140.5 -92.5t89 -153t31 -212.5v-40q0 -121 -31 -212.5t-89 -153t-140.5 -92.5t-185.5 -31h-20q-103 0 -185.5 31t-140.5 92.5t-89 153t-31 212.5v40zM254 471q0 -176 70.5 -260.5t205.5 -84.5h20
q133 0 204.5 84.5t71.5 260.5v40q0 175 -71.5 260t-204.5 85h-20q-135 0 -205.5 -85t-70.5 -260v-40zM591 1384h197v-18l-254 -238h-130l-8 19z" />
    <glyph glyph-name="ocircumflex" unicode="&#xf4;" horiz-adv-x="1080" 
d="M84 511q0 121 31 212.5t89 153t140.5 92.5t185.5 31h20q103 0 185.5 -31t140.5 -92.5t89 -153t31 -212.5v-40q0 -121 -31 -212.5t-89 -153t-140.5 -92.5t-185.5 -31h-20q-103 0 -185.5 31t-140.5 92.5t-89 153t-31 212.5v40zM254 471q0 -176 70.5 -260.5t205.5 -84.5h20
q133 0 204.5 84.5t71.5 260.5v40q0 175 -71.5 260t-204.5 85h-20q-135 0 -205.5 -85t-70.5 -260v-40zM546 1282h-12l-174 -154h-127l-3 12l203 244h214l203 -244l-3 -12h-127z" />
    <glyph glyph-name="otilde" unicode="&#xf5;" horiz-adv-x="1080" 
d="M84 511q0 121 31 212.5t89 153t140.5 92.5t185.5 31h20q103 0 185.5 -31t140.5 -92.5t89 -153t31 -212.5v-40q0 -121 -31 -212.5t-89 -153t-140.5 -92.5t-185.5 -31h-20q-103 0 -185.5 31t-140.5 92.5t-89 153t-31 212.5v40zM254 471q0 -176 70.5 -260.5t205.5 -84.5h20
q133 0 204.5 84.5t71.5 260.5v40q0 175 -71.5 260t-204.5 85h-20q-135 0 -205.5 -85t-70.5 -260v-40zM267 1128l-17 18v20q0 92 46 135t121 43q27 0 67.5 -18t86.5 -43q26 -14 50 -22.5t40 -8.5q27 0 36 14t9 40v20l17 18h90l17 -18v-20q0 -49 -12 -83t-33.5 -55
t-51.5 -30.5t-66 -9.5q-27 0 -66.5 14.5t-84.5 40.5q-30 17 -55.5 27t-38.5 10q-29 0 -38.5 -14t-9.5 -40v-20l-18 -18h-89z" />
    <glyph glyph-name="odieresis" unicode="&#xf6;" horiz-adv-x="1080" 
d="M84 511q0 121 31 212.5t89 153t140.5 92.5t185.5 31h20q103 0 185.5 -31t140.5 -92.5t89 -153t31 -212.5v-40q0 -121 -31 -212.5t-89 -153t-140.5 -92.5t-185.5 -31h-20q-103 0 -185.5 31t-140.5 92.5t-89 153t-31 212.5v40zM254 471q0 -176 70.5 -260.5t205.5 -84.5h20
q133 0 204.5 84.5t71.5 260.5v40q0 175 -71.5 260t-204.5 85h-20q-135 0 -205.5 -85t-70.5 -260v-40zM634 1314l19 18h142l19 -18v-168l-19 -18h-145l-16 18v168zM266 1314l19 18h142l19 -18v-168l-19 -18h-145l-16 18v168z" />
    <glyph glyph-name="divide" unicode="&#xf7;" 
d="M591 166h-165l-16 18v180l19 18h162l19 -18v-180zM591 894h-165l-16 18v180l19 18h162l19 -18v-180zM952 710l18 -18v-108l-18 -18h-885l-17 18v108l17 18h885z" />
    <glyph glyph-name="oslash" unicode="&#xf8;" horiz-adv-x="1084" 
d="M925 1096h79l11 -18l-145 -200q57 -64 87 -157t30 -217v-27q0 -241 -110.5 -368t-326.5 -127h-17q-156 0 -257 68l-118 -164h-79l-11 18l144 200q-116 127 -116 373v27q0 242 110 369t327 127h17q78 0 141.5 -17.5t114.5 -51.5zM810 504q0 150 -41 232l-402 -559
q58 -45 166 -45h17q73 0 123 21.5t80.5 64t43.5 107.5t13 152v27zM272 477q0 -74 10 -132t31 -100l402 559q-59 46 -165 46h-17q-74 0 -124 -21.5t-80.5 -64.5t-43.5 -108t-13 -152v-27z" />
    <glyph glyph-name="ugrave" unicode="&#xf9;" horiz-adv-x="1076" 
d="M926 18l-19 -18h-116l-19 16l-6 84h-5q-76 -67 -156 -92.5t-161 -25.5h-15q-83 0 -139 26t-90.5 72.5t-49 111t-14.5 141.5v629l19 20h128l19 -18v-604q0 -57 5.5 -100.5t24.5 -73.5t55 -45t97 -15h15q74 0 143 37t118 100v699l19 20h128l19 -18v-946zM716 1147l-8 -19
h-130l-254 238v18h197z" />
    <glyph glyph-name="uacute" unicode="&#xfa;" horiz-adv-x="1076" 
d="M926 18l-19 -18h-116l-19 16l-6 84h-5q-76 -67 -156 -92.5t-161 -25.5h-15q-83 0 -139 26t-90.5 72.5t-49 111t-14.5 141.5v629l19 20h128l19 -18v-604q0 -57 5.5 -100.5t24.5 -73.5t55 -45t97 -15h15q74 0 143 37t118 100v699l19 20h128l19 -18v-946zM563 1384h197v-18
l-254 -238h-130l-8 19z" />
    <glyph glyph-name="ucircumflex" unicode="&#xfb;" horiz-adv-x="1076" 
d="M926 18l-19 -18h-116l-19 16l-6 84h-5q-76 -67 -156 -92.5t-161 -25.5h-15q-83 0 -139 26t-90.5 72.5t-49 111t-14.5 141.5v629l19 20h128l19 -18v-604q0 -57 5.5 -100.5t24.5 -73.5t55 -45t97 -15h15q74 0 143 37t118 100v699l19 20h128l19 -18v-946zM546 1282h-12
l-174 -154h-127l-3 12l203 244h214l203 -244l-3 -12h-127z" />
    <glyph glyph-name="udieresis" unicode="&#xfc;" horiz-adv-x="1076" 
d="M926 18l-19 -18h-116l-19 16l-6 84h-5q-76 -67 -156 -92.5t-161 -25.5h-15q-83 0 -139 26t-90.5 72.5t-49 111t-14.5 141.5v629l19 20h128l19 -18v-604q0 -57 5.5 -100.5t24.5 -73.5t55 -45t97 -15h15q74 0 143 37t118 100v699l19 20h128l19 -18v-946zM638 1314l19 18
h142l19 -18v-168l-19 -18h-145l-16 18v168zM270 1314l19 18h142l19 -18v-168l-19 -18h-145l-16 18v168z" />
    <glyph glyph-name="yacute" unicode="&#xfd;" horiz-adv-x="927" 
d="M563 4l-132 -364h-154l-16 21l149 385h-50l-335 916l12 20h149l280 -779h6l279 779h148l13 -20zM503 1384h197v-18l-254 -238h-130l-8 19z" />
    <glyph glyph-name="thorn" unicode="&#xfe;" horiz-adv-x="1076" 
d="M150 1406l20 20h126l20 -20v-478h6q32 21 60.5 35t59.5 22t66 11.5t80 3.5h18q112 0 186.5 -37t118.5 -101.5t62.5 -151t18.5 -186.5v-31q0 -86 -20 -173.5t-67 -158.5t-125 -116t-193 -45h-15q-64 0 -130 11.5t-126 34.5v-388l-18 -18h-130l-18 18v1748zM316 197
q55 -29 112 -41t119 -12h18q81 0 131.5 26.5t78 73.5t37.5 111t10 138v31q0 75 -9 136t-35.5 104.5t-75 67.5t-127.5 24h-18q-40 0 -71.5 -4.5t-59 -14.5t-54 -25t-56.5 -37v-578z" />
    <glyph glyph-name="ydieresis" unicode="&#xff;" horiz-adv-x="927" 
d="M563 4l-132 -364h-154l-16 21l149 385h-50l-335 916l12 20h149l280 -779h6l279 779h148l13 -20zM567 1314l19 18h142l19 -18v-168l-19 -18h-145l-16 18v168zM199 1314l19 18h142l19 -18v-168l-19 -18h-145l-16 18v168z" />
    <glyph glyph-name="Gbreve" unicode="&#x11e;" horiz-adv-x="1292" 
d="M1010 535h-321l-11 18v122l11 18h477l18 -18v-589q-53 -25 -112 -44.5t-120 -32.5t-122 -20t-118 -7h-28q-166 0 -280 44.5t-184 130t-101 210.5t-31 286v36q0 148 38.5 270t113.5 209t186.5 134.5t257.5 47.5h28q118 0 232 -18t223 -63l17 -23l-17 -117l-19 -15h-12
q-50 24 -96.5 39.5t-96.5 24.5t-106 12.5t-125 3.5h-28q-107 0 -184.5 -40t-127.5 -109t-74 -161t-24 -195v-36q0 -117 15.5 -212.5t59.5 -162.5t122 -103.5t204 -36.5h28q36 0 76.5 2t81 7.5t78.5 15t71 24.5v348zM522 1700l20 -20v-11q0 -32 6.5 -53.5t23 -35t44 -19.5
t69.5 -6q41 0 68 6t43.5 19.5t23 35t6.5 53.5v11l20 20h84l20 -20v-11q0 -53 -13.5 -95.5t-44.5 -72t-82 -45.5t-125 -16q-75 0 -126 16t-82.5 45.5t-45 72t-13.5 95.5v11l20 20h84z" />
    <glyph glyph-name="gbreve" unicode="&#x11f;" horiz-adv-x="964" 
d="M814 187q0 -69 10 -131t10 -120q0 -73 -29 -128.5t-81.5 -92.5t-126.5 -56t-165 -19q-38 0 -73.5 2.5t-71 7.5t-72 14t-76.5 21l-18 26l41 122h33q55 -23 110.5 -36t122.5 -13q117 0 181.5 37.5t64.5 123.5q0 24 -4 50.5t-9 53t-9 50.5t-4 43v13h-6q-32 -26 -57.5 -42
t-50 -26t-50 -13.5t-56.5 -3.5h-18q-83 0 -146 32.5t-105 90t-63.5 137.5t-21.5 176v19q0 57 8.5 114.5t27 110t46.5 98.5t67.5 79.5t90.5 53t115 19.5h15q30 0 56 -2.5t52.5 -8.5t56 -16.5t65.5 -26.5l121 54h19v-813zM648 813q-27 15 -49.5 23.5t-43 13t-41.5 5.5t-45 1
h-18q-58 0 -98.5 -24t-65.5 -67.5t-36 -104.5t-11 -135v-19q0 -141 46 -216.5t155 -75.5h18q51 0 95.5 19t93.5 62v518zM320 1333l20 -20v-11q0 -32 6.5 -53.5t23 -35t44 -19.5t69.5 -6q41 0 68 6t43.5 19.5t23 35t6.5 53.5v11l20 20h84l20 -20v-11q0 -53 -13.5 -95.5
t-44.5 -72t-82 -45.5t-125 -16q-75 0 -126 16t-82.5 45.5t-45 72t-13.5 95.5v11l20 20h84z" />
    <glyph glyph-name="Idotaccent" unicode="&#x130;" horiz-adv-x="516" 
d="M348 18l-17 -18h-146l-17 18v1296l17 18h146l17 -18v-1296zM363 1504l-20 -20h-170l-20 20v176l20 20h170l20 -20v-176z" />
    <glyph glyph-name="dotlessi" unicode="&#x131;" horiz-adv-x="470" 
d="M318 18l-19 -18h-128l-19 18v946l19 18h128l19 -18v-946z" />
    <glyph glyph-name="OE" unicode="&#x152;" horiz-adv-x="1775" 
d="M96 687q0 145 25 267t82 210t148.5 137t224.5 49h26q108 0 195.5 -41.5t155.5 -129.5h7v135l17 18h679l17 -18v-119l-17 -19h-535v-414h460l17 -19v-107l-17 -18h-460v-462h550l17 -19v-119l-17 -18h-694l-17 18v138h-7q-67 -89 -155 -131.5t-196 -42.5h-26
q-133 0 -224.5 49t-148.5 137t-82 210t-25 267v42zM258 645q0 -257 76.5 -382t241.5 -125h26q75 0 140.5 26t114 86.5t76 159.5t27.5 244v24q0 145 -27.5 244t-76 159.5t-114 86.5t-140.5 26h-26q-83 0 -143 -36.5t-99 -103t-57.5 -160t-18.5 -207.5v-42z" />
    <glyph glyph-name="oe" unicode="&#x153;" horiz-adv-x="1740" 
d="M84 510q0 103 25.5 191.5t79.5 154.5t138.5 104t202.5 40h11q58 0 111.5 -8.5t101 -29t87.5 -53t72 -80.5q33 48 72.5 81t86 53t99 28.5t111.5 8.5h20q83 0 152.5 -24.5t119 -70.5t77 -112.5t27.5 -150.5q0 -60 -19 -99t-53 -62t-81.5 -32.5t-105.5 -9.5h-422
q0 -76 14.5 -134.5t49 -98t90 -60t138.5 -20.5h20q85 0 153.5 17t139.5 57h24l52 -126l-13 -22q-85 -39 -173.5 -54.5t-182.5 -15.5h-20q-62 0 -115.5 9.5t-100.5 31t-87 56.5t-75 87q-63 -95 -154.5 -139.5t-206.5 -44.5h-20q-118 0 -202.5 38t-138.5 104t-79.5 155
t-25.5 191v40zM823 510q0 68 -11.5 130.5t-42 110.5t-83.5 76.5t-136 28.5h-20q-84 0 -137 -28.5t-83 -76t-41 -110t-11 -131.5v-40q0 -66 12 -128t42.5 -110t83.5 -77t134 -29h20q81 0 134 29t84 77t43 110t12 128v40zM1419 567q40 0 65.5 17.5t25.5 59.5q0 55 -18 95
t-50 66t-76.5 38.5t-96.5 12.5h-20q-59 0 -106 -21.5t-79.5 -58t-49.5 -86t-17 -104.5v-19h422z" />
    <glyph glyph-name="Scedilla" unicode="&#x15e;" horiz-adv-x="941" 
d="M88 194l27 15q28 -12 62.5 -24.5t73 -23t80.5 -17t84 -6.5h20q57 0 106 11t85 33.5t56.5 57.5t20.5 83v20q0 38 -8.5 69.5t-30 59.5t-58 54t-92.5 53l-183 90q-68 33 -113.5 69t-73 79t-39 95.5t-11.5 118.5v20q0 73 27.5 129t75.5 94t114 57t143 19h20q33 0 75 -2.5
t85.5 -8.5t85.5 -15t77 -22l21 -22l-11 -128l-24 -17q-22 11 -54.5 21.5t-69.5 19t-75 13.5t-69 5h-20q-112 0 -169.5 -39.5t-57.5 -109.5v-20q0 -41 10 -72t33.5 -58t62.5 -52.5t98 -53.5l177 -87q61 -30 104 -64.5t70.5 -76.5t40.5 -93t13 -114v-20q0 -76 -21.5 -135
t-59.5 -102t-90 -70t-113 -39v-6q32 -46 47 -85t15 -70q0 -37 -8 -70.5t-28.5 -59.5t-56 -41.5t-90.5 -15.5q-25 0 -43.5 0.5t-35 2t-33.5 4.5t-39 8l-14 21l13 106l21 14h8q39 -12 91 -12q23 0 36.5 7t21 17.5t10 24t2.5 26.5q0 23 -17.5 55.5t-52.5 67.5
q-94 0 -183.5 15.5t-170.5 55.5l-16 28z" />
    <glyph glyph-name="scedilla" unicode="&#x15f;" horiz-adv-x="801" 
d="M674 819l-31 -15q-52 26 -106.5 39t-102.5 13q-92 0 -132.5 -30.5t-40.5 -90.5q0 -23 4 -42.5t15.5 -36t32 -30.5t54.5 -26l145 -51q56 -20 97.5 -44.5t68.5 -57.5t40.5 -76t13.5 -100q0 -46 -11 -91t-38 -83t-71.5 -67t-111.5 -42v-6q32 -46 47 -85t15 -70
q0 -37 -8 -70.5t-28.5 -59.5t-56 -41.5t-90.5 -15.5q-25 0 -43.5 0.5t-35 2t-33.5 4.5t-39 8l-14 21l13 106l21 14h8q39 -12 91 -12q23 0 37 7t21.5 17.5t10 24t2.5 26.5q0 23 -20 55.5t-51 67.5q-85 4 -153 26.5t-119 60.5v29l43 97h35q45 -32 104.5 -50.5t120.5 -18.5
q92 0 140 33t48 99q0 33 -7 56.5t-22.5 40.5t-39.5 30t-58 25l-146 51q-57 20 -95 46t-61 60.5t-32.5 79t-9.5 102.5q0 53 16.5 99t53.5 79.5t96.5 53t145.5 19.5q45 0 81.5 -2.5t68.5 -7.5t63.5 -13.5t67.5 -21.5l14 -30z" />
    <glyph glyph-name="Scaron" unicode="&#x160;" horiz-adv-x="941" 
d="M88 194l27 15q28 -12 62.5 -24.5t73 -23t80.5 -17t84 -6.5h20q57 0 105 11t83 33.5t54.5 57.5t19.5 83v20q0 38 -7.5 69.5t-28 59.5t-56 54t-91.5 53l-183 90q-68 33 -113.5 69t-73 79t-39 95.5t-11.5 118.5v20q0 73 27.5 129t75.5 94t114 57t143 19h20q33 0 75 -2.5
t85.5 -8.5t85.5 -15t77 -22l21 -22l-11 -128l-24 -17q-22 11 -54.5 21.5t-69.5 19t-75 13.5t-69 5h-20q-112 0 -169.5 -39.5t-57.5 -109.5v-20q0 -40 10 -71.5t33.5 -58.5t62.5 -52.5t98 -53.5l177 -87q61 -30 104 -64.5t70.5 -76.5t40.5 -93t13 -114v-20q0 -96 -33 -163
t-90 -109t-133 -61t-161 -19h-20q-94 0 -183.5 15.5t-170.5 55.5l-16 28zM660 1736h127l3 -12l-203 -244h-214l-203 244l3 12h127l174 -154h12z" />
    <glyph glyph-name="scaron" unicode="&#x161;" horiz-adv-x="801" 
d="M674 819l-31 -15q-52 26 -106.5 39t-102.5 13q-92 0 -132.5 -30.5t-40.5 -90.5q0 -23 4 -42.5t15.5 -36t32 -30.5t54.5 -26l145 -51q56 -20 97.5 -44.5t68.5 -57.5t40.5 -76t13.5 -100q0 -54 -16 -106t-56 -92.5t-108 -65.5t-171 -25q-97 0 -173.5 22.5t-132.5 64.5v29
l43 97h35q45 -32 104.5 -50.5t120.5 -18.5q92 0 140 33t48 99q0 33 -7 56.5t-22.5 40.5t-39.5 30t-58 25l-146 51q-57 20 -95 46t-61 60.5t-32.5 79t-9.5 102.5q0 53 16.5 99t53.5 79.5t96.5 53t145.5 19.5q45 0 81.5 -2.5t68.5 -7.5t63.5 -13.5t67.5 -21.5l14 -30z
M592 1384h127l3 -12l-203 -244h-214l-203 244l3 12h127l174 -154h12z" />
    <glyph glyph-name="Ydieresis" unicode="&#x178;" horiz-adv-x="998" 
d="M586 20l-20 -20h-134l-20 20v496l-390 796l11 20h167l296 -615h6l296 615h167l11 -20l-390 -796v-496zM593 1666l19 18h142l19 -18v-168l-19 -18h-145l-16 18v168zM225 1666l19 18h142l19 -18v-168l-19 -18h-145l-16 18v168z" />
    <glyph glyph-name="Zcaron" unicode="&#x17d;" horiz-adv-x="959" 
d="M877 1332l20 -21v-109l-621 -1046h621l20 -21v-115l-20 -20h-807l-20 20v110l618 1045h-560l-20 20v116l20 20zM679 1736h127l3 -12l-203 -244h-214l-203 244l3 12h127l174 -154h12z" />
    <glyph glyph-name="zcaron" unicode="&#x17e;" horiz-adv-x="809" 
d="M749 862l-486 -718h466l20 -20v-104l-20 -20h-649l-20 20v100l488 718h-441l-20 20v104l20 20h622l20 -20v-100zM604 1384h127l3 -12l-203 -244h-214l-203 244l3 12h127l174 -154h12z" />
    <glyph glyph-name="florin" unicode="&#x192;" horiz-adv-x="625" 
d="M44 943l19 17h224q11 93 24.5 165.5t43 122.5t80 76t135.5 26q54 0 102.5 -6t102.5 -13l16 -17l-15 -101l-20 -22q-19 4 -33.5 7t-28.5 5t-29.5 3.5t-35.5 1.5q-46 0 -73.5 -10t-43.5 -37.5t-25 -76t-18 -124.5h217l18 -17v-114l-18 -18h-235l-54 -579
q-10 -105 -31.5 -180.5t-64 -124t-109.5 -71t-168 -22.5q-35 0 -74.5 6t-81.5 15l-18 18l10 111l18 16q42 -6 81.5 -11.5t74.5 -5.5q45 0 77 13t53 42.5t33.5 77t18.5 116.5l53 579h-206l-19 18v114z" />
    <glyph glyph-name="circumflex" unicode="&#x2c6;" horiz-adv-x="809" 
d="M410 1282h-12l-174 -154h-127l-3 12l203 244h214l203 -244l-3 -12h-127z" />
    <glyph glyph-name="caron" unicode="&#x2c7;" horiz-adv-x="809" 
d="M584 1384h127l3 -12l-203 -244h-214l-203 244l3 12h127l174 -154h12z" />
    <glyph glyph-name="breve" unicode="&#x2d8;" horiz-adv-x="780" 
d="M228 1350l20 -20v-11q0 -32 6.5 -53.5t23 -35t44 -19.5t69.5 -6q41 0 68 6t43.5 19.5t23 35t6.5 53.5v11l20 20h84l20 -20v-11q0 -53 -13.5 -95.5t-44.5 -72t-82 -45.5t-125 -16q-75 0 -126 16t-82.5 45.5t-45 72t-13.5 95.5v11l20 20h84z" />
    <glyph glyph-name="dotaccent" unicode="&#x2d9;" horiz-adv-x="462" 
d="M126 1332l18 18h174l18 -18v-180l-18 -18h-177l-15 18v180z" />
    <glyph glyph-name="ring" unicode="&#x2da;" horiz-adv-x="657" 
d="M116 1232q0 54 17.5 91.5t46.5 60.5t67.5 33.5t80.5 10.5q43 0 81.5 -10.5t67.5 -33.5t46 -60.5t17 -91.5t-17 -91.5t-46 -60.5t-67.5 -33.5t-81.5 -10.5q-42 0 -80.5 10.5t-67.5 33.5t-46.5 60.5t-17.5 91.5zM224 1232q0 -58 28 -82t76 -24q46 0 75 24t29 82t-29 82
t-75 24q-48 0 -76 -24t-28 -82z" />
    <glyph glyph-name="ogonek" unicode="&#x2db;" horiz-adv-x="639" 
d="M473 -209l27 -64l-6 -17q-29 -18 -79 -29t-100 -11q-85 0 -123.5 38t-38.5 102q0 120 124 202h113l7 -12q-18 -11 -38 -26t-36.5 -33.5t-27 -40.5t-10.5 -47q0 -36 19 -55.5t57 -19.5q59 0 97 19z" />
    <glyph glyph-name="tilde" unicode="&#x2dc;" horiz-adv-x="922" 
d="M191 1128l-17 18v20q0 92 46 135t121 43q27 0 67.5 -18t86.5 -43q26 -14 50 -22.5t40 -8.5q27 0 36 14t9 40v20l17 18h90l17 -18v-20q0 -49 -12 -83t-33.5 -55t-51.5 -30.5t-66 -9.5q-27 0 -66.5 14.5t-84.5 40.5q-30 17 -55.5 27t-38.5 10q-29 0 -38.5 -14t-9.5 -40v-20
l-18 -18h-89z" />
    <glyph glyph-name="hungarumlaut" unicode="&#x2dd;" horiz-adv-x="961" 
d="M729 1384h197v-18l-254 -238h-130l-8 19zM399 1384h197v-18l-254 -238h-130l-8 19z" />
    <glyph glyph-name="gravecomb" unicode="&#x300;" horiz-adv-x="0" 
d="M196 1147l-8 -19h-130l-254 238v18h197z" />
    <glyph glyph-name="acutecomb" unicode="&#x301;" horiz-adv-x="0" 
d="M19 1384h197v-18l-254 -238h-130l-8 19z" />
    <glyph glyph-name="uni0302" unicode="&#x302;" horiz-adv-x="0" 
d="M6 1282h-12l-174 -154h-127l-3 12l203 244h214l203 -244l-3 -12h-127z" />
    <glyph glyph-name="tildecomb" unicode="&#x303;" horiz-adv-x="0" 
d="M-273 1128l-17 18v20q0 92 46 135t121 43q27 0 67.5 -18t86.5 -43q26 -14 50 -22.5t40 -8.5q27 0 36 14t9 40v20l17 18h90l17 -18v-20q0 -49 -12 -83t-33.5 -55t-51.5 -30.5t-66 -9.5q-27 0 -66.5 14.5t-84.5 40.5q-30 17 -55.5 27t-38.5 10q-29 0 -38.5 -14t-9.5 -40
v-20l-18 -18h-89z" />
    <glyph glyph-name="uni0305" unicode="&#x305;" horiz-adv-x="0" 
d="M-569 1624h1138v-132h-1138v132z" />
    <glyph glyph-name="uni0306" unicode="&#x306;" horiz-adv-x="0" 
d="M-162 1350l20 -20v-11q0 -32 6.5 -53.5t23 -35t44 -19.5t69.5 -6q41 0 68 6t43.5 19.5t23 35t6.5 53.5v11l20 20h84l20 -20v-11q0 -53 -13.5 -95.5t-44.5 -72t-82 -45.5t-125 -16q-75 0 -126 16t-82.5 45.5t-45 72t-13.5 95.5v11l20 20h84z" />
    <glyph glyph-name="uni0307" unicode="&#x307;" horiz-adv-x="0" 
d="M105 1154l-20 -20h-170l-20 20v176l20 20h170l20 -20v-176z" />
    <glyph glyph-name="uni0308" unicode="&#x308;" horiz-adv-x="0" 
d="M94 1314l19 18h142l19 -18v-168l-19 -18h-145l-16 18v168zM-274 1314l19 18h142l19 -18v-168l-19 -18h-145l-16 18v168z" />
    <glyph glyph-name="uni030A" unicode="&#x30a;" horiz-adv-x="0" 
d="M-212 1232q0 54 17.5 91.5t46.5 60.5t67.5 33.5t80.5 10.5q43 0 81.5 -10.5t67.5 -33.5t46 -60.5t17 -91.5t-17 -91.5t-46 -60.5t-67.5 -33.5t-81.5 -10.5q-42 0 -80.5 10.5t-67.5 33.5t-46.5 60.5t-17.5 91.5zM-104 1232q0 -58 28 -82t76 -24q46 0 75 24t29 82t-29 82
t-75 24q-48 0 -76 -24t-28 -82z" />
    <glyph glyph-name="uni030B" unicode="&#x30b;" horiz-adv-x="0" 
d="M229 1384h197v-18l-254 -238h-130l-8 19zM-101 1384h197v-18l-254 -238h-130l-8 19z" />
    <glyph glyph-name="uni030C" unicode="&#x30c;" horiz-adv-x="0" 
d="M180 1384h127l3 -12l-203 -244h-214l-203 244l3 12h127l174 -154h12z" />
    <glyph glyph-name="uni0327" unicode="&#x327;" horiz-adv-x="0" 
d="M107 32v-51q32 -46 47 -84.5t15 -69.5q0 -37 -8 -70.5t-28.5 -59.5t-56 -41.5t-90.5 -15.5q-25 0 -43.5 0.5t-35 2t-33.5 4.5t-39 8l-14 21l13 106l21 14h8q39 -12 91 -12q23 0 36.5 7t21 17.5t10 24t2.5 26.5q0 27 -28 69.5t-70 84.5l15 19h166z" />
    <glyph glyph-name="uni0328" unicode="&#x328;" horiz-adv-x="0" 
d="M173 -209l27 -64l-6 -17q-29 -18 -79 -29t-100 -11q-85 0 -123.5 38t-38.5 102q0 120 124 202h113l7 -12q-18 -11 -38 -26t-36.5 -33.5t-27 -40.5t-10.5 -47q0 -36 19 -55.5t57 -19.5q59 0 97 19z" />
    <glyph glyph-name="uni0400" unicode="&#x400;" horiz-adv-x="1000" 
d="M338 769h486l19 -18v-120l-19 -18h-486v-457h568l19 -18v-120l-19 -18h-723l-19 18v1296l19 18h723l19 -18v-120l-19 -18h-568v-407zM646 1499l-8 -19h-130l-254 238v18h197z" />
    <glyph glyph-name="afii10023" unicode="&#x401;" horiz-adv-x="1000" 
d="M338 769h486l19 -18v-120l-19 -18h-486v-457h568l19 -18v-120l-19 -18h-723l-19 18v1296l19 18h723l19 -18v-120l-19 -18h-568v-407zM634 1666l19 18h142l19 -18v-168l-19 -18h-145l-16 18v168zM266 1666l19 18h142l19 -18v-168l-19 -18h-145l-16 18v168z" />
    <glyph glyph-name="afii10051" unicode="&#x402;" horiz-adv-x="1279" 
d="M528 760h245q111 0 190.5 -26.5t130.5 -74.5t75.5 -114t24.5 -144q0 -92 -28.5 -166t-82.5 -126t-132.5 -80.5t-178.5 -28.5h-76l-20 20v104l20 20h76q66 0 112 18t75 49.5t42 75.5t13 96q0 55 -13 98.5t-42 73.5t-74.5 45.5t-111.5 15.5h-245v-596l-20 -20h-134l-20 20
v1156h-308l-20 20v116l20 20h790l20 -20v-116l-20 -20h-308v-416z" />
    <glyph glyph-name="afii10052" unicode="&#x403;" horiz-adv-x="880" 
d="M338 20l-20 -20h-134l-20 20v1292l20 20h650l20 -20v-116l-20 -20h-496v-1156zM549 1736h197v-18l-254 -238h-130l-8 19z" />
    <glyph glyph-name="afii10053" unicode="&#x404;" horiz-adv-x="1121" 
d="M1046 88l-15 -24q-51 -25 -99 -41t-96 -25t-99 -12.5t-108 -3.5h-14q-149 1 -250.5 49.5t-163.5 135t-89.5 208t-27.5 270.5v36q0 147 27 269t88.5 210.5t161 138t244.5 51.5h15q55 0 106 -4t100 -13t96.5 -25t97.5 -40l18 -22l-16 -136l-18 -11h-10q-45 30 -89 48.5
t-89 29t-91.5 14t-95.5 3.5h-14q-96 -2 -160.5 -36.5t-104.5 -92t-59.5 -135t-25.5 -164.5h596l18 -18v-120l-18 -18h-597q2 -98 20 -183.5t59 -149t109 -101t171 -38.5h16q55 0 101.5 4t90 15.5t86 31t88.5 51.5h7l15 -14z" />
    <glyph glyph-name="afii10054" unicode="&#x405;" horiz-adv-x="941" 
d="M88 194l27 15q28 -12 62.5 -24.5t73 -23t80.5 -17t84 -6.5h20q57 0 105 11t83 33.5t54.5 57.5t19.5 83v20q0 38 -7.5 69.5t-28 59.5t-56 54t-91.5 53l-183 90q-68 33 -113.5 69t-73 79t-39 95.5t-11.5 118.5v20q0 73 27.5 129t75.5 94t114 57t143 19h20q33 0 75 -2.5
t85.5 -8.5t85.5 -15t77 -22l21 -22l-11 -128l-24 -17q-22 11 -54.5 21.5t-69.5 19t-75 13.5t-69 5h-20q-112 0 -169.5 -39.5t-57.5 -109.5v-20q0 -40 10 -71.5t33.5 -58.5t62.5 -52.5t98 -53.5l177 -87q61 -30 104 -64.5t70.5 -76.5t40.5 -93t13 -114v-20q0 -96 -33 -163
t-90 -109t-133 -61t-161 -19h-20q-94 0 -183.5 15.5t-170.5 55.5l-16 28z" />
    <glyph glyph-name="afii10055" unicode="&#x406;" horiz-adv-x="516" 
d="M348 18l-17 -18h-146l-17 18v1296l17 18h146l17 -18v-1296z" />
    <glyph glyph-name="afii10056" unicode="&#x407;" horiz-adv-x="516" 
d="M348 18l-17 -18h-146l-17 18v1296l17 18h146l17 -18v-1296zM352 1666l19 18h142l19 -18v-168l-19 -18h-145l-16 18v168zM-16 1666l19 18h142l19 -18v-168l-19 -18h-145l-16 18v168z" />
    <glyph glyph-name="afii10057" unicode="&#x408;" horiz-adv-x="653" 
d="M121 1314l17 18h348l17 -18v-911q0 -97 -12.5 -174t-43.5 -131t-84 -83t-133 -29h-25q-28 0 -50.5 2.5t-43.5 6.5t-43 9.5t-49 10.5l-15 18l17 114l19 18q35 -7 67 -15t78 -8h24q44 0 68 17.5t35.5 51.5t14 84t2.5 114v767h-191l-17 18v120z" />
    <glyph glyph-name="afii10058" unicode="&#x409;" horiz-adv-x="1786" 
d="M901 1176h-440v-119q0 -281 -10 -483t-42.5 -332t-93.5 -191.5t-163 -61.5q-36 0 -65 2.5t-63 9.5l-17 21v109l25 18q20 -4 43 -5.5t46 -1.5q30 0 54.5 16.5t43.5 56.5t33 108.5t23 172t13.5 246.5t4.5 333v239l20 18h743l19 -20v-541h157q237 0 363.5 -90t126.5 -284
v-18q0 -194 -125 -286.5t-365 -92.5h-311l-20 20v1156zM1075 144h139q88 0 150 14.5t101.5 43.5t58 73.5t18.5 103.5v18q0 59 -18.5 102.5t-58 72t-101.5 42t-150 13.5h-139v-483z" />
    <glyph glyph-name="afii10059" unicode="&#x40a;" horiz-adv-x="1795" 
d="M883 626h-545v-608l-17 -18h-141l-16 18v1296l16 18h141l17 -18v-544h545v542l20 20h135l19 -20v-542h188q118 0 209.5 -22t154 -67.5t94.5 -116t32 -167.5v-18q0 -194 -125 -286.5t-365 -92.5h-342l-20 20v606zM1057 144h170q88 0 150 14.5t101.5 43.5t58 73.5
t18.5 103.5v18q0 59 -18.5 102.5t-58 71.5t-101.5 41.5t-150 13.5h-170v-482z" />
    <glyph glyph-name="afii10060" unicode="&#x40b;" horiz-adv-x="1266" 
d="M528 760q31 9 67 16.5t73.5 12.5t74 8t67.5 3q111 0 184.5 -28.5t118 -78t63 -117t18.5 -145.5v-411l-20 -20h-134l-20 20v393q0 55 -8 100t-31 76.5t-64 49t-107 17.5q-31 0 -67.5 -3t-74 -8t-73.5 -12.5t-67 -16.5v-596l-20 -20h-134l-20 20v1156h-308l-20 20v116
l20 20h790l20 -20v-116l-20 -20h-308v-416z" />
    <glyph glyph-name="afii10061" unicode="&#x40c;" horiz-adv-x="1112" 
d="M338 764h117l418 568h198l13 -18l-465 -616l487 -680l-12 -18h-194l-434 620h-128v-602l-19 -18h-136l-19 18v1296l19 18h136l19 -18v-550zM615 1736h197v-18l-254 -238h-130l-8 19z" />
    <glyph glyph-name="uni040D" unicode="&#x40d;" horiz-adv-x="1314" 
d="M1146 18l-17 -18h-139l-18 18v1008h-5l-615 -1026h-167l-17 18v1296l17 18h139l18 -16v-1010h4l616 1026h167l17 -16v-1298zM792 1500l-8 -19h-130l-254 238v18h197z" />
    <glyph glyph-name="afii10062" unicode="&#x40e;" horiz-adv-x="1080" 
d="M1069 1332l11 -18l-593 -1314h-158l-11 18l172 387h-72l-416 909l11 18h168l360 -800h6l355 800h167zM378 1700l20 -20v-11q0 -32 6.5 -53.5t23 -35t44 -19.5t69.5 -6q41 0 68 6t43.5 19.5t23 35t6.5 53.5v11l20 20h84l20 -20v-11q0 -53 -13.5 -95.5t-44.5 -72t-82 -45.5
t-125 -16q-75 0 -126 16t-82.5 45.5t-45 72t-13.5 95.5v11l20 20h84z" />
    <glyph glyph-name="afii10145" unicode="&#x40f;" horiz-adv-x="1269" 
d="M156 1314l19 18h135l20 -18v-1152h610v1152l20 18h135l19 -18v-1296l-19 -18h-377v-250l-19 -20h-128l-19 20v250h-377l-19 18v1296z" />
    <glyph glyph-name="afii10017" unicode="&#x410;" horiz-adv-x="1185" 
d="M869 353h-553l-120 -353h-158l-12 20l444 1292l20 20h206l20 -20l444 -1292l-12 -20h-158zM370 509h446l-220 643h-6z" />
    <glyph glyph-name="afii10018" unicode="&#x411;" horiz-adv-x="1101" 
d="M164 1314l20 18h762l18 -18v-126l-18 -18h-608v-385h171q120 0 215 -23.5t161 -70.5t101 -119t35 -169v-18q0 -97 -35 -169.5t-101 -120.5t-161 -71.5t-215 -23.5h-325l-20 18v1296zM338 153h173q92 0 155 14t102 42.5t56 72.5t17 103v18q0 60 -17 103t-56 71t-102 41.5
t-155 13.5h-173v-479z" />
    <glyph glyph-name="afii10019" unicode="&#x412;" horiz-adv-x="1114" 
d="M542 1347q129 0 214.5 -27.5t135.5 -74.5t70.5 -110t20.5 -133v-20q0 -91 -45 -159t-145 -119v-7q54 -16 98 -43.5t76 -65.5t49.5 -86t17.5 -105v-19q0 -95 -25.5 -166t-79.5 -118t-137.5 -70.5t-200.5 -23.5h-411l-16 18v1296l16 18q49 4 90 7t81 4.5t81.5 2.5t90.5 1
h19zM854 397q0 67 -21.5 110t-60.5 68t-94.5 35t-123.5 10h-216v-468h241q74 0 126.5 14t85.5 42t48 70.5t15 99.5v19zM809 982q0 63 -16 104t-49 65t-84 34t-121 10h-20q-30 0 -51 -0.5t-39.5 -2t-39.5 -3.5t-51 -5v-426h130q85 0 149 9t106.5 32.5t64 62.5t21.5 99v21z
" />
    <glyph glyph-name="afii10020" unicode="&#x413;" horiz-adv-x="880" 
d="M338 20l-20 -20h-134l-20 20v1292l20 20h650l20 -20v-116l-20 -20h-496v-1156z" />
    <glyph glyph-name="afii10021" unicode="&#x414;" horiz-adv-x="1319" 
d="M1140 156h113l21 -18v-389l-21 -19h-124l-21 19v251h-918v-251l-21 -19h-124l-21 19v386l20 18l21 3q66 8 113 59t78 142t45.5 222t14.5 298v437l22 18h782l20 -18v-1158zM966 1176h-480v-254q0 -115 -4 -221.5t-18.5 -203t-42.5 -181t-76 -155.5v-5h621v1020z" />
    <glyph glyph-name="afii10022" unicode="&#x415;" horiz-adv-x="1000" 
d="M338 769h486l19 -18v-120l-19 -18h-486v-457h568l19 -18v-120l-19 -18h-723l-19 18v1296l19 18h723l19 -18v-120l-19 -18h-568v-407z" />
    <glyph glyph-name="afii10024" unicode="&#x416;" horiz-adv-x="1640" 
d="M734 1314l19 18h136l19 -18v-550h71l418 568h198l13 -18l-461 -616l483 -680l-12 -18h-194l-434 620h-82v-602l-19 -18h-136l-19 18v598h-82l-434 -616h-194l-12 18l483 680l-461 616l13 18h198l418 -568h71v550z" />
    <glyph glyph-name="afii10025" unicode="&#x417;" horiz-adv-x="970" 
d="M467 138q74 0 124.5 16t81.5 47t44.5 75.5t13.5 101.5v19q0 67 -21.5 108t-60.5 64t-94.5 31t-123.5 8h-157l-18 18v120l18 18h157q54 0 100.5 8.5t81 30t54 60t19.5 98.5v21q0 63 -18.5 104t-50 65t-73.5 34t-88 10h-25q-77 0 -158 -19t-169 -73h-10l-19 11l-14 132
l15 22q89 43 174 62.5t181 19.5h24q119 0 197 -29t124.5 -77t65 -111t18.5 -131v-20q0 -91 -45 -159t-145 -119v-7q54 -16 98 -43.5t76 -65.5t49.5 -86t17.5 -105v-19q0 -95 -24.5 -168.5t-77 -124t-135 -77t-199.5 -26.5h-15q-56 0 -105.5 3.5t-96.5 12.5t-93.5 25
t-96.5 41l-16 24l11 132l16 14h5q45 -28 88 -46.5t87.5 -29.5t91.5 -15.5t101 -4.5h15z" />
    <glyph glyph-name="afii10026" unicode="&#x418;" horiz-adv-x="1314" 
d="M1146 18l-17 -18h-139l-18 18v1008h-5l-615 -1026h-167l-17 18v1296l17 18h139l18 -16v-1010h4l616 1026h167l17 -16v-1298z" />
    <glyph glyph-name="afii10027" unicode="&#x419;" horiz-adv-x="1314" 
d="M1146 18l-17 -18h-139l-18 18v1008h-5l-615 -1026h-167l-17 18v1296l17 18h139l18 -16v-1010h4l616 1026h167l17 -16v-1298zM494 1700l20 -20v-11q0 -32 6.5 -53.5t23 -35t44 -19.5t69.5 -6q41 0 68 6t43.5 19.5t23 35t6.5 53.5v11l20 20h84l20 -20v-11
q0 -53 -13.5 -95.5t-44.5 -72t-82 -45.5t-125 -16q-75 0 -126 16t-82.5 45.5t-45 72t-13.5 95.5v11l20 20h84z" />
    <glyph glyph-name="afii10028" unicode="&#x41a;" horiz-adv-x="1112" 
d="M338 764h117l418 568h198l13 -18l-465 -616l487 -680l-12 -18h-194l-434 620h-128v-602l-19 -18h-136l-19 18v1296l19 18h136l19 -18v-550z" />
    <glyph glyph-name="afii10029" unicode="&#x41b;" horiz-adv-x="1251" 
d="M1075 18l-20 -18h-135l-19 18v1158h-440v-119q0 -281 -10 -483t-42.5 -332t-93.5 -191.5t-163 -61.5q-36 0 -65 2.5t-63 9.5l-17 21v109l25 18q20 -4 43 -5.5t46 -1.5q30 0 54.5 16.5t43.5 56.5t33 108.5t23 172t13.5 246.5t4.5 333v239l20 18h742l20 -18v-1296z" />
    <glyph glyph-name="afii10030" unicode="&#x41c;" horiz-adv-x="1751" 
d="M190 1312l19 20h256l21 -18l392 -1036h6l390 1036l21 18h248l19 -20l30 -1294l-17 -18h-136l-17 18l-24 1135h-6l-426 -1113l-22 -20h-136l-22 20l-426 1113h-6l-24 -1135l-17 -18h-136l-17 18z" />
    <glyph glyph-name="afii10031" unicode="&#x41d;" horiz-adv-x="1276" 
d="M164 18v1296l16 18h141l17 -18v-546h600v546l18 18h139l17 -18v-1296l-17 -18h-139l-18 18v594h-600v-594l-17 -18h-141z" />
    <glyph glyph-name="afii10032" unicode="&#x41e;" horiz-adv-x="1356" 
d="M90 681q0 148 32 271.5t101.5 211.5t178 137t261.5 49h29q153 0 262 -49t178.5 -137t101.5 -211.5t32 -271.5v-36q0 -149 -32 -271t-101.5 -209t-178.5 -135t-262 -48h-29q-153 0 -261.5 48t-178 135t-101.5 209t-32 271v36zM663 1188q-114 0 -189 -39.5t-119.5 -108.5
t-62 -161.5t-17.5 -197.5v-36q0 -105 17.5 -196.5t62 -159t119.5 -106.5t189 -39h29q115 0 190 39t119 106.5t61.5 159t17.5 196.5v36q0 105 -17.5 197.5t-61.5 161.5t-119 108.5t-190 39.5h-29z" />
    <glyph glyph-name="afii10033" unicode="&#x41f;" horiz-adv-x="1273" 
d="M168 18v1296l19 18h899l19 -18v-1296l-19 -18h-135l-20 18v1152h-589v-1152l-20 -18h-135z" />
    <glyph glyph-name="afii10034" unicode="&#x420;" horiz-adv-x="1058" 
d="M322 18l-17 -18h-140l-17 18v1296l17 18q38 4 82.5 7.5t91 5t92 2.5t86.5 1q95 0 179.5 -25.5t148 -77t100.5 -131t37 -187.5v-18q0 -108 -38.5 -189.5t-104 -136.5t-151.5 -82.5t-180 -27.5h-186v-455zM322 629h160q69 0 127.5 15.5t101.5 49t67 86.5t24 128v18
q0 74 -25.5 125t-69 82.5t-100 45t-117.5 13.5q-18 0 -40.5 -0.5t-45 -1.5t-44.5 -3.5t-38 -6.5v-551z" />
    <glyph glyph-name="afii10035" unicode="&#x421;" horiz-adv-x="1092" 
d="M1017 88l-14 -24q-48 -25 -93 -41t-90.5 -25t-93 -12.5t-101.5 -3.5h-14q-139 1 -238 49.5t-162.5 135t-93 208t-29.5 270.5v36q0 147 30.5 269t94.5 210.5t163 138t235 51.5h14q52 0 100 -4t93.5 -13t90.5 -25t92 -40l16 -22l-14 -142l-17 -11h-9q-42 30 -84 48.5
t-84 29t-86 14t-90 3.5h-13q-101 -2 -169 -42.5t-108.5 -109.5t-57.5 -160.5t-17 -194.5v-36q0 -104 17 -195t57.5 -158.5t108.5 -107t169 -40.5h13q52 0 99.5 4t91.5 15.5t87 31t86 51.5h6l14 -14v-144z" />
    <glyph glyph-name="afii10036" unicode="&#x422;" horiz-adv-x="998" 
d="M586 20l-20 -20h-134l-20 20v1156h-348l-20 20v116l20 20h870l20 -20v-116l-20 -20h-348v-1156z" />
    <glyph glyph-name="afii10037" unicode="&#x423;" horiz-adv-x="1080" 
d="M1069 1332l11 -18l-593 -1314h-158l-11 18l172 387h-72l-416 909l11 18h168l360 -800h6l355 800h167z" />
    <glyph glyph-name="afii10038" unicode="&#x424;" horiz-adv-x="1428" 
d="M628 206h-19q-269 0 -401 114.5t-132 341.5v16q0 225 132.5 345.5t400.5 120.5h19v188l20 18h134l20 -18v-188h20q267 0 399.5 -120.5t132.5 -345.5v-16q0 -226 -132.5 -341t-399.5 -115h-20v-206l-20 -18h-134l-20 18v206zM802 350h20q103 0 171.5 19t110 58t59 97.5
t17.5 137.5v16q0 79 -17 139t-58 100.5t-110 61.5t-173 21h-20v-650zM628 1000h-19q-105 0 -174 -21t-110 -61.5t-58 -100.5t-17 -139v-16q0 -79 17.5 -137.5t59 -97.5t110.5 -58t172 -19h19v650z" />
    <glyph glyph-name="afii10039" unicode="&#x425;" horiz-adv-x="1063" 
d="M528 550l-314 -550h-173l-9 20l377 653l-363 639l14 20h168l300 -538h6l300 538h168l14 -20l-363 -639l377 -653l-9 -20h-173l-314 550h-6z" />
    <glyph glyph-name="afii10040" unicode="&#x426;" horiz-adv-x="1308" 
d="M168 1314l19 18h136l19 -18v-1161h611v1161l19 18h136l19 -18v-1161h111l19 -18v-386l-19 -19h-128l-19 19v251h-904l-19 18v1296z" />
    <glyph glyph-name="afii10041" unicode="&#x427;" horiz-adv-x="1138" 
d="M800 1314l20 18h134l20 -18v-1296l-20 -18h-134l-20 18v548q-36 -15 -70.5 -27t-70 -20.5t-74 -12.5t-82.5 -4h-29q-110 0 -184 26.5t-119 79t-64 131t-19 182.5v393l20 18h134l20 -18v-366q0 -71 9.5 -127t33.5 -95t66.5 -59.5t108.5 -20.5h30q80 0 148 15t142 50v603z
" />
    <glyph glyph-name="afii10042" unicode="&#x428;" horiz-adv-x="1778" 
d="M1610 20l-19 -20h-1404l-19 20v1292l19 20h136l19 -20v-1159h460v1159l20 20h134l20 -20v-1159h460v1159l19 20h136l19 -20v-1292z" />
    <glyph glyph-name="afii10043" unicode="&#x429;" horiz-adv-x="1822" 
d="M818 1312l20 20h135l19 -20v-1156h474v1156l20 20h134l20 -20v-1156h114l19 -20v-386l-19 -20h-128l-19 20v250h-1418l-19 20v1292l19 20h136l19 -20v-1156h474v1156z" />
    <glyph glyph-name="afii10044" unicode="&#x42a;" horiz-adv-x="1259" 
d="M316 1177l-7 -1h-264l-21 18v120l21 18h426l19 -20v-541h204q237 0 363.5 -90t126.5 -284v-18q0 -194 -125 -286.5t-365 -92.5h-358l-20 20v1157zM490 144h186q88 0 150 14.5t101.5 43.5t58 73.5t18.5 103.5v18q0 59 -18.5 102.5t-58 72t-101.5 42t-150 13.5h-186v-483z
" />
    <glyph glyph-name="afii10045" unicode="&#x42b;" horiz-adv-x="1560" 
d="M1388 18l-18 -18h-138l-18 18v1296l18 18h138l18 -16v-1298zM172 1312l20 20h135l19 -20v-541h204q237 0 363.5 -90t126.5 -284v-18q0 -194 -125 -286.5t-365 -92.5h-358l-20 20v1292zM346 144h192q88 0 150 14.5t101.5 43.5t58 73.5t18.5 103.5v18q0 59 -18.5 102.5
t-58 72t-101.5 42t-150 13.5h-192v-483z" />
    <glyph glyph-name="afii10046" unicode="&#x42c;" horiz-adv-x="1088" 
d="M153 1312l20 20h135l19 -20v-541h194q237 0 363.5 -90t126.5 -284v-18q0 -194 -125 -286.5t-365 -92.5h-348l-20 20v1292zM327 144h176q88 0 150 14.5t101.5 43.5t58 73.5t18.5 103.5v18q0 59 -18.5 102.5t-58 72t-101.5 42t-150 13.5h-176v-483z" />
    <glyph glyph-name="afii10047" unicode="&#x42d;" horiz-adv-x="1122" 
d="M93 220l16 14h5q45 -28 88 -46.5t87.5 -29.5t91.5 -15.5t101 -4.5h15q101 1 169.5 38t110.5 100.5t61 148.5t22 183h-479l-18 18v120l18 18h478q-6 87 -26.5 164.5t-62 136t-106 93t-158.5 36.5h-15q-97 0 -183 -18.5t-174 -72.5h-10l-19 11l-14 132l15 22q49 24 96 40
t95 25t98 13t104 4h16q142 -2 240.5 -51.5t160.5 -138t90 -210.5t28 -269v-36q0 -149 -28 -270.5t-91 -208.5t-164 -135t-246 -49h-15q-56 0 -105.5 3.5t-96.5 12.5t-93.5 25t-96.5 41l-16 24z" />
    <glyph glyph-name="afii10048" unicode="&#x42e;" horiz-adv-x="1800" 
d="M336 772h265q7 131 41.5 237t100.5 181t166.5 115.5t241.5 40.5h18q155 0 261 -53t171 -144t93.5 -212.5t28.5 -257.5v-26q0 -91 -12 -175.5t-39 -158.5t-70 -135.5t-104.5 -105.5t-143 -68t-185.5 -24h-18q-150 0 -254 49t-169 134.5t-95 201.5t-32 250h-265v-603
l-19 -18h-136l-19 18v1296l19 18h136l19 -16v-544zM1543 679q0 101 -14.5 193.5t-55.5 163t-114 112.5t-190 42h-18q-116 0 -188.5 -42.5t-113 -114t-54.5 -164.5t-14 -194v-18q0 -68 6 -132t21 -121.5t41.5 -105.5t67.5 -82.5t98.5 -54t135.5 -19.5h18q117 0 190 42
t114 112.5t55.5 163t14.5 193.5v26z" />
    <glyph glyph-name="afii10049" unicode="&#x42f;" horiz-adv-x="1137" 
d="M383 543q-148 36 -226.5 129.5t-78.5 243.5v18q0 113 40 191.5t107.5 127.5t156 71t185.5 22h18q52 0 96 -0.5t86.5 -2t86.5 -4.5t97 -7l18 -18v-1296l-18 -18h-138l-18 18v513h-220l-379 -531h-182l-11 18zM795 1180q-31 3 -55.5 4.5t-48 2t-48 1t-54.5 0.5h-19
q-63 0 -118.5 -13t-97.5 -42t-66 -77t-24 -118v-18q0 -84 27.5 -133t75.5 -73.5t113.5 -31.5t141.5 -7h173v505z" />
    <glyph glyph-name="afii10065" unicode="&#x430;" horiz-adv-x="981" 
d="M148 936l15 18q77 23 159 34.5t160 11.5h17q82 0 145.5 -19.5t106 -63t64.5 -112.5t22 -167v-620l-15 -18h-122l-17 18l-8 91h-4q-73 -59 -148.5 -93t-165.5 -34q-61 0 -110.5 17t-85 50.5t-54.5 82.5t-19 113v17q0 78 30.5 141t97 106.5t171.5 67t254 23.5h30v17
q0 63 -7 108t-29.5 74t-65 43t-114.5 14h-17q-69 0 -129 -14t-125 -40h-11l-17 14zM671 464h-57q-80 0 -147.5 -9.5t-116.5 -32.5t-76.5 -61t-27.5 -94v-18q0 -24 7 -47.5t25 -42t50 -30t83 -11.5q76 0 138 30.5t122 82.5v233z" />
    <glyph glyph-name="afii10066" unicode="&#x431;" horiz-adv-x="1091" 
d="M120 741q0 158 21.5 275t71.5 194t132.5 114.5t205.5 37.5h97q38 0 69.5 4.5t59.5 12.5t54.5 20t56.5 27h11l21 -17l27 -107l-15 -24q-62 -27 -131 -43.5t-160 -16.5h-103q-61 0 -108 -18.5t-79 -58.5t-48.5 -102.5t-16.5 -149.5v-29h6q37 27 73.5 47t73.5 33t76.5 19
t84.5 6h18q106 0 180.5 -31t120.5 -91t67 -148t21 -202v-26q0 -128 -27.5 -219.5t-81.5 -150.5t-135.5 -87t-189.5 -28h-18q-108 0 -189.5 25.5t-136 86.5t-82 162.5t-27.5 253.5v231zM286 543q0 -128 14 -209t45.5 -127t83 -63.5t127.5 -17.5h18q69 0 118.5 17.5t81.5 58
t47 105.5t15 160v26q0 94 -15 157.5t-46.5 101t-81 53.5t-117.5 16h-17q-85 0 -151.5 -38.5t-121.5 -98.5v-141z" />
    <glyph glyph-name="afii10067" unicode="&#x432;" horiz-adv-x="981" 
d="M150 964l19 18q45 6 79 9.5t66 6t66.5 3t80.5 0.5q88 0 163.5 -8.5t131 -34t87 -72.5t31.5 -124v-18q0 -78 -45.5 -137.5t-130.5 -88.5v-6q59 -15 99.5 -35.5t66 -48.5t37 -66t11.5 -88v-18q0 -53 -22 -100t-70 -81.5t-123.5 -54.5t-182.5 -20h-345l-19 18v946zM316 140
h173q132 0 192.5 30.5t60.5 105.5v17q0 46 -15 74t-53 43t-102.5 19.5t-162.5 4.5h-93v-294zM316 574h103q88 0 144 9.5t87 28t42.5 46.5t11.5 65v17q0 41 -23 66.5t-58.5 39.5t-78 18.5t-80.5 4.5q-42 0 -81 -3t-67 -7v-285z" />
    <glyph glyph-name="afii10068" unicode="&#x433;" horiz-adv-x="708" 
d="M669 982l19 -18v-109l-19 -17h-353v-820l-19 -18h-128l-19 18v946l19 18h500z" />
    <glyph glyph-name="afii10069" unicode="&#x434;" horiz-adv-x="1143" 
d="M180 -223l-18 -17h-129l-19 17v342l25 22q67 5 108.5 58.5t64 136t30.5 186.5t8 212v230l19 18h660l18 -18v-820h95l18 -18v-349l-18 -17h-129l-19 17v223h-714v-223zM781 144v694h-371v-100q0 -95 -5 -181.5t-18.5 -161.5t-36.5 -137t-59 -109l1 -5h489z" />
    <glyph glyph-name="afii10070" unicode="&#x435;" horiz-adv-x="1019" 
d="M916 74l-12 -26q-39 -16 -78.5 -28t-82 -20.5t-90 -13t-103.5 -4.5h-17q-120 0 -205 27.5t-139.5 87.5t-79.5 155t-25 229v27q0 127 29 220t84.5 153.5t137 89.5t185.5 29h17q101 0 177.5 -24.5t128 -69.5t77.5 -108.5t26 -141.5v-18q0 -60 -20.5 -100t-56 -64t-82.5 -34
t-99 -10h-438v-20q0 -150 71.5 -218.5t217.5 -68.5h17q50 0 88.5 4.5t71.5 13t64 22t66 31.5h11l25 -14zM701 570q48 0 67.5 16t19.5 53v14q0 44 -16 82t-48 65.5t-79 43t-108 15.5h-17q-57 0 -106.5 -14.5t-86 -47t-57 -84.5t-20.5 -127v-16h451z" />
    <glyph glyph-name="afii10072" unicode="&#x436;" horiz-adv-x="1411" 
d="M790 571h95l295 411h176l11 -18l-330 -463l352 -483l-11 -18h-177l-316 427h-95v-409l-19 -18h-128l-19 18v409h-95l-316 -427h-177l-12 18l353 483l-330 463l11 18h176l295 -411h95v393l19 18h128l19 -16v-395z" />
    <glyph glyph-name="afii10073" unicode="&#x437;" horiz-adv-x="866" 
d="M83 928l15 21q37 13 78 22.5t83 16t83 9.5t78 3h17q66 0 127 -12.5t108 -41.5t75 -77t28 -120v-17q0 -70 -34.5 -125.5t-115.5 -87.5v-6q87 -29 128.5 -84t41.5 -150v-14q0 -75 -30 -128.5t-81.5 -88t-120 -50.5t-145.5 -16h-17q-88 0 -171 12t-163 41l-15 18v125l15 18
h11q73 -35 150 -52.5t144 -17.5h18q77 0 123.5 10t71 28.5t32.5 46t8 62.5v11q0 45 -17 74.5t-50 47t-82.5 24t-114.5 6.5h-101l-18 18v105l18 18h95q128 0 194 32.5t66 112.5v12q0 30 -12 53t-38 38t-68 23t-103 8h-18q-71 0 -131 -13.5t-125 -45.5h-9l-18 15z" />
    <glyph glyph-name="afii10074" unicode="&#x438;" horiz-adv-x="1107" 
d="M950 20l-15 -20h-134l-17 20v688h-5l-457 -708h-150l-16 20v942l16 20h133l17 -18v-690h4l458 708h149l17 -20v-942z" />
    <glyph glyph-name="afii10075" unicode="&#x439;" horiz-adv-x="1107" 
d="M950 20l-15 -20h-134l-17 20v688h-5l-457 -708h-150l-16 20v942l16 20h133l17 -18v-690h4l458 708h149l17 -20v-942zM408 1333l20 -20v-11q0 -32 6.5 -53.5t23 -35t44 -19.5t69.5 -6q41 0 68 6t43.5 19.5t23 35t6.5 53.5v11l20 20h84l20 -20v-11q0 -53 -13.5 -95.5
t-44.5 -72t-82 -45.5t-125 -16q-75 0 -126 16t-82.5 45.5t-45 72t-13.5 95.5v11l20 20h84z" />
    <glyph glyph-name="afii10076" unicode="&#x43a;" horiz-adv-x="950" 
d="M306 574h86l345 408h184l12 -18l-393 -460l416 -485l-12 -19h-181l-369 430h-88v-410l-18 -20h-129l-19 20v942l19 20h129l18 -18v-390z" />
    <glyph glyph-name="afii10077" unicode="&#x43b;" horiz-adv-x="1045" 
d="M893 18l-19 -18h-128l-19 18v815h-321v-21q0 -201 -6 -354.5t-33.5 -258t-84 -157.5t-157.5 -53q-49 0 -99 11l-19 16v117l19 18q18 -8 38.5 -10t40.5 -2q30 0 52.5 11t38 39.5t25.5 77.5t15.5 125t7.5 182t2 249v141l19 18h609l19 -16v-948z" />
    <glyph glyph-name="afii10078" unicode="&#x43c;" horiz-adv-x="1385" 
d="M178 964l18 18h163l334 -618h7l335 618h153l18 -18l36 -946l-18 -18h-129l-19 18l-20 693h-8l-315 -580l-10 -8h-64l-9 8l-317 590h-5l-20 -703l-19 -18h-129l-18 18z" />
    <glyph glyph-name="afii10079" unicode="&#x43d;" horiz-adv-x="1095" 
d="M316 582h462v380l18 20h130l18 -18v-944l-18 -20h-130l-18 20v418h-462v-418l-19 -20h-128l-19 20v942l19 20h128l19 -18v-382z" />
    <glyph glyph-name="afii10080" unicode="&#x43e;" horiz-adv-x="1080" 
d="M84 511q0 121 31 212.5t89 153t140.5 92.5t185.5 31h20q103 0 185.5 -31t140.5 -92.5t89 -153t31 -212.5v-40q0 -121 -31 -212.5t-89 -153t-140.5 -92.5t-185.5 -31h-20q-103 0 -185.5 31t-140.5 92.5t-89 153t-31 212.5v40zM254 471q0 -176 70.5 -260.5t205.5 -84.5h20
q133 0 204.5 84.5t71.5 260.5v40q0 175 -71.5 260t-204.5 85h-20q-135 0 -205.5 -85t-70.5 -260v-40z" />
    <glyph glyph-name="afii10081" unicode="&#x43f;" horiz-adv-x="1066" 
d="M316 18l-18 -18h-129l-19 18v946l19 18h729l18 -16v-948l-18 -18h-129l-19 18v820h-434v-820z" />
    <glyph glyph-name="afii10082" unicode="&#x440;" horiz-adv-x="1076" 
d="M150 962l20 20h114l20 -20l6 -64h6q32 25 63 44.5t65 32t71.5 19t82.5 6.5h18q112 0 185 -37t115.5 -102t59 -154t16.5 -193v-29q0 -86 -21.5 -175t-70.5 -162t-128.5 -119.5t-194.5 -46.5h-15q-125 0 -246 46v-370l-18 -18h-130l-18 18v1304zM316 179q55 -29 107 -41
t114 -12h18q81 0 133 28t81.5 77t41 114.5t11.5 139.5v29q0 79 -7.5 142t-32.5 107.5t-71.5 68.5t-125.5 24h-18q-40 0 -73 -6t-62.5 -18.5t-57.5 -31.5t-58 -45v-576z" />
    <glyph glyph-name="afii10083" unicode="&#x441;" horiz-adv-x="866" 
d="M790 819l-19 -16h-12q-34 15 -60.5 25t-52.5 16t-55.5 9t-69.5 3h-17q-72 0 -120.5 -22t-78 -66.5t-42 -110.5t-12.5 -153v-27q0 -87 12.5 -152.5t42 -110t78 -66.5t120.5 -22h17q37 0 66.5 2.5t56.5 8.5t54 16t60 26h15l17 -18l18 -117l-16 -20q-38 -12 -70 -20.5
t-62.5 -13t-64 -6.5t-74.5 -2h-17q-117 0 -197 32.5t-129.5 95t-71 155t-21.5 212.5v27q0 120 24 212.5t75 155.5t130.5 95.5t189.5 32.5h17q39 0 72.5 -2t65 -7t62.5 -14t67 -23l16 -20z" />
    <glyph glyph-name="afii10084" unicode="&#x442;" horiz-adv-x="793" 
d="M479 18l-19 -18h-129l-18 18v820h-267l-18 17v109l18 18h709l9 -18v-109l-9 -17h-276v-820z" />
    <glyph glyph-name="afii10085" unicode="&#x443;" horiz-adv-x="927" 
d="M563 4l-132 -364h-154l-16 21l149 385h-50l-335 916l12 20h149l280 -779h6l279 779h148l13 -20z" />
    <glyph glyph-name="afii10086" unicode="&#x444;" horiz-adv-x="1278" 
d="M723 144h30q66 0 120 22.5t92.5 66.5t59 109.5t20.5 152.5v27q0 87 -20.5 150t-59 104t-92.5 60.5t-120 19.5h-30v-712zM557 0h-32q-104 0 -188.5 30t-144 91t-92 154.5t-32.5 219.5v27q0 120 32.5 209.5t92 149.5t144 89.5t188.5 29.5h32v312l19 20h128l19 -20v-312h30
q104 0 188.5 -29.5t144.5 -89.5t92.5 -149.5t32.5 -209.5v-27q0 -126 -32.5 -219.5t-92.5 -154.5t-144.5 -91t-188.5 -30h-30v-340l-19 -20h-128l-19 20v340zM557 856h-32q-66 0 -120 -19.5t-92 -60.5t-58.5 -104t-20.5 -150v-27q0 -87 20.5 -152.5t58.5 -109.5t92 -66.5
t120 -22.5h32v712z" />
    <glyph glyph-name="afii10087" unicode="&#x445;" horiz-adv-x="887" 
d="M829 982l11 -19l-291 -467l308 -478l-11 -18h-164l-235 376h-6l-235 -376h-165l-11 18l309 478l-292 467l12 19h161l221 -357h6l221 357h161z" />
    <glyph glyph-name="afii10088" unicode="&#x446;" horiz-adv-x="1109" 
d="M326 144h452v817l18 21h129l19 -19v-819h96l20 -20v-344l-20 -20h-126l-20 20v220h-715l-19 21v940l19 21h129l18 -19v-819z" />
    <glyph glyph-name="afii10089" unicode="&#x447;" horiz-adv-x="960" 
d="M413 499q40 0 72.5 3.5t60 10t51 15t47.5 19.5v413l18 22h129l19 -20v-941l-19 -21h-129l-18 21v381q-63 -22 -124.5 -34.5t-129.5 -12.5q-92 0 -152 20.5t-95 60.5t-49 99.5t-14 137.5v287l18 22h129l19 -20v-284q0 -52 8 -86.5t27 -55t51 -29t81 -8.5z" />
    <glyph glyph-name="afii10090" unicode="&#x448;" horiz-adv-x="1492" 
d="M663 961l18 21h130l18 -21v-817h343v817l19 21h128l19 -21v-940l-19 -21h-1146l-19 21v940l19 21h128l19 -21v-817h343v817z" />
    <glyph glyph-name="afii10091" unicode="&#x449;" horiz-adv-x="1534" 
d="M676 961l18 21h130l18 -21v-817h350v817l19 21h128l19 -21v-817h88l20 -20v-344l-20 -20h-125l-21 20v220h-1121l-19 21v940l19 21h128l19 -21v-817h350v817z" />
    <glyph glyph-name="afii10092" unicode="&#x44a;" horiz-adv-x="1098" 
d="M290 838h-238l-19 19v105l19 20h386l18 -18v-374h167q85 0 159 -13t128.5 -45.5t86 -88.5t31.5 -141v-17q0 -84 -31.5 -140.5t-86 -88t-128.5 -44t-159 -12.5h-314l-19 20v818zM456 144h148q48 0 94 5t81.5 20t57 43.5t21.5 76.5v17q0 47 -21.5 75t-57 42.5t-81.5 18.5
t-94 4h-148v-302z" />
    <glyph glyph-name="afii10093" unicode="&#x44b;" horiz-adv-x="1364" 
d="M1204 20l-18 -20h-129l-19 20v942l19 20h129l18 -18v-944zM160 962l19 20h129l18 -18v-374h167q85 0 159 -13.5t128.5 -47t86 -90t31.5 -141.5v-17q0 -84 -31.5 -138.5t-86 -86t-128.5 -44t-159 -12.5h-314l-19 21v941zM326 144h148q48 0 94 5t81.5 20t57 43.5t21.5 76.5
v17q0 47 -21.5 75t-57 42.5t-81.5 18.5t-94 4h-148v-302z" />
    <glyph glyph-name="afii10094" unicode="&#x44c;" horiz-adv-x="962" 
d="M150 962l19 20h129l18 -18v-374h167q85 0 159 -13.5t128.5 -47t86 -90t31.5 -141.5v-17q0 -84 -31.5 -138.5t-86 -86t-128.5 -44t-159 -12.5h-314l-19 21v941zM316 144h148q48 0 94 5t81.5 20t57 43.5t21.5 76.5v17q0 47 -21.5 75t-57 42.5t-81.5 18.5t-94 4h-148v-302z
" />
    <glyph glyph-name="afii10095" unicode="&#x44d;" horiz-adv-x="907" 
d="M87 932l16 22q77 28 150.5 37t158.5 9h19q122 0 199.5 -31.5t121 -93.5t59.5 -155t16 -216v-27q0 -123 -19.5 -216t-68.5 -155t-132 -93t-210 -31h-19q-44 0 -78.5 2.5t-67 8t-65.5 14.5t-75 21l-18 20l20 116l18 18h16q72 -32 133.5 -44t116.5 -12h19q80 0 130.5 19.5
t79.5 58.5t39.5 97t10.5 135h-347l-20 20v104l20 20h348q0 69 -10 121t-37 86.5t-75 51.5t-124 17h-18q-31 0 -60 -2t-59 -7t-62 -14t-69 -24h-13l-20 16z" />
    <glyph glyph-name="afii10096" unicode="&#x44e;" horiz-adv-x="1478" 
d="M318 578h206q8 100 37 178.5t81 132t128 81.5t179 28h19q109 0 189 -33.5t132.5 -97t78.5 -155.5t26 -208v-27q0 -116 -26 -207.5t-78.5 -155t-132.5 -97t-189 -33.5h-19q-107 0 -185 30t-130 88t-79.5 141.5t-31.5 190.5h-205v-414l-18 -20h-129l-19 20v942l19 20h129
l18 -18v-386zM1224 504q0 84 -12.5 149t-42.5 109.5t-79 67.5t-122 23h-19q-73 0 -122 -23t-79 -67.5t-42.5 -109.5t-12.5 -149v-27q0 -84 12.5 -149t42.5 -109.5t79 -67.5t122 -23h19q73 0 122 23t79 67.5t42.5 109.5t12.5 149v27z" />
    <glyph glyph-name="afii10097" unicode="&#x44f;" horiz-adv-x="971" 
d="M819 20l-19 -20h-128l-19 20v368h-140l-318 -388h-183l-12 20l311 374q-124 30 -182 97.5t-58 185.5v18q0 83 33.5 140.5t88.5 93t125.5 51.5t144.5 16h19q45 0 83.5 -1t75 -2.5t75 -4t84.5 -6.5l19 -20v-942zM653 843q-26 3 -45 4.5t-36 2.5t-36 1.5t-45 0.5h-19
q-43 0 -84.5 -6t-74 -23t-52.5 -47.5t-20 -80.5v-18q0 -51 21.5 -82.5t57 -48t81 -22t92.5 -5.5h160v324z" />
    <glyph glyph-name="uni0450" unicode="&#x450;" horiz-adv-x="1019" 
d="M916 74l-12 -26q-39 -16 -78.5 -28t-82 -20.5t-90 -13t-103.5 -4.5h-17q-120 0 -205 27.5t-139.5 87.5t-79.5 155t-25 229v27q0 127 29 220t84.5 153.5t137 89.5t185.5 29h17q101 0 177.5 -24.5t128 -69.5t77.5 -108.5t26 -141.5v-18q0 -60 -20.5 -100t-56 -64t-82.5 -34
t-99 -10h-438v-20q0 -150 71.5 -218.5t217.5 -68.5h17q50 0 88.5 4.5t71.5 13t64 22t66 31.5h11l25 -14zM701 570q48 0 67.5 16t19.5 53v14q0 44 -16 82t-48 65.5t-79 43t-108 15.5h-17q-57 0 -106.5 -14.5t-86 -47t-57 -84.5t-20.5 -127v-16h451zM696 1147l-8 -19h-130
l-254 238v18h197z" />
    <glyph glyph-name="afii10071" unicode="&#x451;" horiz-adv-x="1019" 
d="M916 74l-12 -26q-39 -16 -78.5 -28t-82 -20.5t-90 -13t-103.5 -4.5h-17q-120 0 -205 27.5t-139.5 87.5t-79.5 155t-25 229v27q0 127 29 220t84.5 153.5t137 89.5t185.5 29h17q101 0 177.5 -24.5t128 -69.5t77.5 -108.5t26 -141.5v-18q0 -60 -20.5 -100t-56 -64t-82.5 -34
t-99 -10h-438v-20q0 -150 71.5 -218.5t217.5 -68.5h17q50 0 88.5 4.5t71.5 13t64 22t66 31.5h11l25 -14zM701 570q48 0 67.5 16t19.5 53v14q0 44 -16 82t-48 65.5t-79 43t-108 15.5h-17q-57 0 -106.5 -14.5t-86 -47t-57 -84.5t-20.5 -127v-16h451zM626 1314l19 18h142
l19 -18v-168l-19 -18h-145l-16 18v168zM258 1314l19 18h142l19 -18v-168l-19 -18h-145l-16 18v168z" />
    <glyph glyph-name="afii10099" unicode="&#x452;" horiz-adv-x="1107" 
d="M336 1226h212l18 -18v-74l-18 -18h-212v-252h5q76 67 153 92.5t158 25.5h15q83 0 140 -32.5t92.5 -86.5t51 -124.5t15.5 -147.5v-570q0 -96 -13.5 -167.5t-44.5 -119t-82 -71t-126 -23.5q-46 0 -98 13l-17 21v96l20 14h47q38 0 66 12.5t46 41.5t27 76.5t9 118.5v531
q0 57 -6.5 107t-26.5 87t-57 58.5t-98 21.5h-15q-74 0 -143 -37t-118 -100v-683l-19 -18h-128l-19 16v1100h-146l-17 18v74l17 18h146v182l19 18h128l19 -16v-184z" />
    <glyph glyph-name="afii10100" unicode="&#x453;" horiz-adv-x="708" 
d="M669 982l19 -18v-109l-19 -17h-353v-820l-19 -18h-128l-19 18v946l19 18h500zM443 1384h197v-18l-254 -238h-130l-8 19z" />
    <glyph glyph-name="afii10101" unicode="&#x454;" horiz-adv-x="909" 
d="M818 819l-19 -16h-13q-36 15 -63.5 25t-55 16t-58.5 9t-72 3h-18q-74 0 -123.5 -17t-80.5 -51.5t-44.5 -86.5t-13.5 -121h434l19 -18v-108l-19 -18h-433q0 -77 13.5 -135t45 -97t83 -58.5t128.5 -19.5h18q39 0 71 3t62.5 9.5t60.5 17t65 26.5h16l17 -18v-116l-17 -20
q-40 -12 -72 -21t-63 -14.5t-64.5 -8t-75.5 -2.5h-18q-122 0 -206 31t-136 93t-75 155t-23 216v27q0 123 20.5 216t68.5 155t127.5 93.5t196.5 31.5h18q82 0 152.5 -9t144.5 -37l15 -22z" />
    <glyph glyph-name="afii10102" unicode="&#x455;" horiz-adv-x="801" 
d="M674 819l-31 -15q-52 26 -106.5 39t-102.5 13q-92 0 -132.5 -30.5t-40.5 -90.5q0 -23 4 -42.5t15.5 -36t32 -30.5t54.5 -26l145 -51q56 -20 97.5 -44.5t68.5 -57.5t40.5 -76t13.5 -100q0 -54 -16 -106t-56 -92.5t-108 -65.5t-171 -25q-97 0 -173.5 22.5t-132.5 64.5v29
l43 97h35q45 -32 104.5 -50.5t120.5 -18.5q92 0 140 33t48 99q0 33 -7 56.5t-22.5 40.5t-39.5 30t-58 25l-146 51q-57 20 -95 46t-61 60.5t-32.5 79t-9.5 102.5q0 53 16.5 99t53.5 79.5t96.5 53t145.5 19.5q45 0 81.5 -2.5t68.5 -7.5t63.5 -13.5t67.5 -21.5l14 -30z" />
    <glyph glyph-name="afii10103" unicode="&#x456;" horiz-adv-x="470" 
d="M318 18l-18 -18h-130l-18 18v946l20 18h128l18 -18v-946zM152 1332l18 18h130l18 -18v-154l-18 -18h-133l-15 18v154z" />
    <glyph glyph-name="afii10104" unicode="&#x457;" horiz-adv-x="470" 
d="M318 18l-19 -18h-128l-19 18v946l19 18h128l19 -18v-946zM329 1314l19 18h142l19 -18v-168l-19 -18h-145l-16 18v168zM-39 1314l19 18h142l19 -18v-168l-19 -18h-145l-16 18v168z" />
    <glyph glyph-name="afii10105" unicode="&#x458;" horiz-adv-x="490" 
d="M336 -79q0 -59 -13.5 -110t-44.5 -89t-82 -60t-126 -22q-46 0 -98 13l-17 21v96l20 14h47q76 0 112 35.5t36 113.5v905h-90l-20 20v106l20 18h238l18 -18v-1043zM170 1332l18 18h130l18 -18v-154l-18 -18h-133l-15 18v154z" />
    <glyph glyph-name="afii10106" unicode="&#x459;" horiz-adv-x="1538" 
d="M764 833h-358v-21q0 -201 -6 -354.5t-33.5 -258t-84 -157.5t-157.5 -53q-49 0 -99 11l-19 16v117l19 18q18 -8 38.5 -10t40.5 -2q30 0 52.5 11t38 39.5t25.5 77.5t15.5 125t7.5 182t2 249v141l19 18h647l18 -18v-373h143q85 0 159 -13t128.5 -46t86 -89t31.5 -141v-17
q0 -84 -31.5 -138.5t-86 -88t-128.5 -46t-159 -12.5h-290l-19 21v812zM930 144h124q48 0 94 5t81.5 20t57 43.5t21.5 76.5v17q0 47 -21.5 75t-57 42.5t-81.5 18.5t-94 4h-124v-302z" />
    <glyph glyph-name="afii10107" unicode="&#x45a;" horiz-adv-x="1576" 
d="M776 444h-460v-424l-19 -20h-128l-19 20v942l19 20h128l19 -18v-376h460v374l19 20h129l18 -18v-376h161q85 0 159 -13.5t128.5 -46.5t86 -89t31.5 -141v-17q0 -84 -31.5 -138.5t-86 -86t-128.5 -44t-159 -12.5h-308l-19 21v423zM942 144h142q48 0 94 4.5t81.5 19.5
t57 43t21.5 76v17q0 47 -21.5 75t-57 42.5t-81.5 18.5t-94 4h-142v-300z" />
    <glyph glyph-name="afii10108" unicode="&#x45b;" horiz-adv-x="1091" 
d="M326 1226h212l18 -18v-74l-18 -18h-212v-252h5q76 67 153 92.5t158 25.5h15q83 0 140 -32.5t92 -86.5t50.5 -124.5t15.5 -147.5v-573l-19 -18h-128l-19 16v548q0 57 -6.5 107t-26.5 87t-56.5 58.5t-97.5 21.5h-15q-74 0 -143 -37t-118 -100v-683l-19 -18h-128l-19 16
v1100h-136l-17 18v74l17 18h136v182l19 18h128l19 -16v-184z" />
    <glyph glyph-name="afii10109" unicode="&#x45c;" horiz-adv-x="950" 
d="M306 574h86l345 408h184l12 -18l-393 -460l416 -485l-12 -19h-181l-369 430h-88v-410l-18 -20h-129l-19 20v942l19 20h129l18 -18v-390zM551 1384h197v-18l-254 -238h-130l-8 19z" />
    <glyph glyph-name="uni045D" unicode="&#x45d;" horiz-adv-x="1107" 
d="M950 20l-15 -20h-134l-17 20v688h-5l-457 -708h-150l-16 20v942l16 20h133l17 -18v-690h4l458 708h149l17 -20v-942zM696 1147l-8 -19h-130l-254 238v18h197z" />
    <glyph glyph-name="afii10110" unicode="&#x45e;" horiz-adv-x="927" 
d="M563 4l-132 -364h-154l-16 21l149 385h-50l-335 916l12 20h149l280 -779h6l279 779h148l13 -20zM306 1333l20 -20v-11q0 -32 6.5 -53.5t23 -35t44 -19.5t69.5 -6q41 0 68 6t43.5 19.5t23 35t6.5 53.5v11l20 20h84l20 -20v-11q0 -53 -13.5 -95.5t-44.5 -72t-82 -45.5
t-125 -16q-75 0 -126 16t-82.5 45.5t-45 72t-13.5 95.5v11l20 20h84z" />
    <glyph glyph-name="afii10193" unicode="&#x45f;" horiz-adv-x="1075" 
d="M150 964l19 18h129l18 -18v-820h444v820l19 18h129l18 -18v-948l-18 -16h-287v-217l-20 -23h-125l-21 23v217h-286l-19 18v946z" />
    <glyph glyph-name="afii10050" unicode="&#x490;" horiz-adv-x="886" 
d="M323 18l-18 -18h-138l-18 18v1296l18 18h537v225l19 18h128l19 -18v-369l-19 -18h-528v-1152z" />
    <glyph glyph-name="afii10098" unicode="&#x491;" horiz-adv-x="725" 
d="M140 964l19 18h398v202l18 17h119l19 -17v-329l-19 -17h-388v-820l-18 -18h-129l-19 18v946z" />
    <glyph glyph-name="uni0496" unicode="&#x496;" horiz-adv-x="1714" 
d="M734 1314l19 18h136l19 -18v-550h71l418 568h198l13 -18l-461 -616l386 -544h109l21 -18v-389l-21 -19h-124l-21 19v253h-73l-434 620h-82v-602l-19 -18h-136l-19 18v598h-82l-434 -616h-194l-12 18l483 680l-461 616l13 18h198l418 -568h71v550z" />
    <glyph glyph-name="uni0497" unicode="&#x497;" horiz-adv-x="1472" 
d="M1297 144h95l18 -18v-349l-18 -17h-129l-19 17v223h-43l-316 427h-95v-409l-19 -18h-128l-19 18v409h-95l-316 -427h-177l-12 18l353 483l-330 463l11 18h176l295 -411h95v393l19 18h128l19 -16v-395h95l295 411h176l11 -18l-330 -463z" />
    <glyph glyph-name="uni04A2" unicode="&#x4a2;" horiz-adv-x="1316" 
d="M1112 156h113l21 -18v-389l-21 -19h-124l-21 19v251h-124l-18 18v594h-600v-594l-17 -18h-141l-16 18v1296l16 18h141l17 -18v-546h600v546l18 18h139l17 -18v-1158z" />
    <glyph glyph-name="uni04A3" unicode="&#x4a3;" horiz-adv-x="1137" 
d="M944 144h95l18 -18v-349l-18 -17h-129l-19 17v223h-95l-18 20v418h-462v-418l-19 -20h-128l-19 20v942l19 20h128l19 -18v-382h462v380l18 20h130l18 -18v-820z" />
    <glyph glyph-name="uni04AE" unicode="&#x4ae;" horiz-adv-x="998" 
d="M586 20l-20 -20h-134l-20 20v496l-390 796l11 20h167l296 -615h6l296 615h167l11 -20l-390 -796v-496z" />
    <glyph glyph-name="uni04AF" unicode="&#x4af;" horiz-adv-x="925" 
d="M401 -361l-26 20v348l-359 957l11 18h153l280 -794h6l280 794h153l11 -18l-369 -955v-350l-26 -20h-114z" />
    <glyph glyph-name="uni04BA" unicode="&#x4ba;" horiz-adv-x="1138" 
d="M177 1312l20 20h134l20 -20v-552q31 9 67 16.5t73.5 12.5t74 8t67.5 3q111 0 184.5 -28.5t118 -78t63 -117t18.5 -145.5v-411l-20 -20h-134l-20 20v393q0 55 -8 100t-31 76.5t-64 49t-107 17.5q-31 0 -67.5 -3t-74 -8t-73.5 -12.5t-67 -16.5v-596l-20 -20h-134l-20 20
v1292z" />
    <glyph glyph-name="uni04BB" unicode="&#x4bb;" horiz-adv-x="960" 
d="M251 882h5q76 67 153 92.5t158 25.5h15q83 0 139 -26t90.5 -72.5t49 -111t14.5 -141.5v-631l-19 -18h-128l-19 16v606q0 57 -5.5 100.5t-24.5 73.5t-55 45t-97 15h-15q-74 0 -143 -37t-118 -100v-701l-19 -18h-128l-19 16v1392l19 18h128l19 -16v-528z" />
    <glyph glyph-name="uni04D8" unicode="&#x4d8;" horiz-adv-x="1317" 
d="M108 537q0 60 15.5 98.5t47.5 60t81.5 30t117.5 8.5h652q-6 99 -28.5 183t-67.5 145.5t-115 96.5t-172 35h-15q-97 0 -193 -18.5t-184 -72.5h-10l-19 11l-14 132l15 22q99 48 201.5 65t211.5 17h16q149 0 253.5 -49.5t170 -138t95.5 -211.5t30 -270v-36q0 -149 -28 -271
t-91 -209t-164 -135t-246 -48h-31q-146 1 -246.5 45t-163.5 117.5t-91 170t-28 203.5v19zM280 504q0 -84 22.5 -151.5t68.5 -115t114 -73t160 -26.5h15q101 1 169.5 32t110.5 88t61 138t22 182h-671q-40 0 -56 -12.5t-16 -38.5v-23z" />
    <glyph glyph-name="afii10846" unicode="&#x4d9;" horiz-adv-x="1019" 
d="M104 908l12 26q39 16 78.5 28.5t82 20.5t90 12.5t103.5 4.5h17q120 0 205 -27.5t139.5 -87.5t79.5 -155t25 -229v-27q0 -128 -29 -220.5t-84.5 -153t-137 -89.5t-185.5 -29h-17q-101 0 -177.5 28t-128 75.5t-77.5 110t-26 130.5v18q0 60 11.5 100t38.5 64t70.5 34
t107.5 10h468v20q0 150 -71.5 218.5t-217.5 68.5h-17q-50 0 -88.5 -4.5t-71.5 -13t-64 -22t-66 -31.5h-11l-25 14zM329 412q-48 0 -67.5 -16t-19.5 -53v-14q0 -44 16 -82t48 -65.5t78.5 -43t108.5 -15.5h17q57 0 106.5 14.5t86 47t57 84.5t20.5 127v16h-451z" />
    <glyph glyph-name="uni04E8" unicode="&#x4e8;" horiz-adv-x="1356" 
d="M90 681q0 148 32 271.5t101.5 211.5t178 137t261.5 49h29q153 0 262 -49t178.5 -137t101.5 -211.5t32 -271.5v-36q0 -149 -32 -271t-101.5 -209t-178.5 -135t-262 -48h-29q-153 0 -261.5 48t-178 135t-101.5 209t-32 271v36zM663 1188q-114 0 -189 -39.5t-119.5 -108.5
t-62.5 -162q-13 -72 -17 -151h804q-3 79 -17 151q-17 93 -61 162t-119 108.5t-190 39.5h-29zM292 448q18 -91 62.5 -158.5t119.5 -106.5t189 -39h29q115 0 190 39t119 106.5t61 158.5q12 64 16 135h-802q4 -71 16 -135z" />
    <glyph glyph-name="uni04E9" unicode="&#x4e9;" horiz-adv-x="1073" 
d="M84 511q0 121 31 212.5t89 153t140.5 92.5t185.5 31h20q103 0 185.5 -31t140.5 -92.5t89 -153t31 -212.5v-40q0 -121 -31 -212.5t-89 -153t-140.5 -92.5t-185.5 -31h-20q-103 0 -185.5 31t-140.5 92.5t-89 153t-31 212.5v40zM324 210q71 -84 206 -84h20q133 0 204 84
q61 72 70 211h-569q9 -139 69 -211zM754 771q-71 85 -204 85h-20q-135 0 -206 -85q-59 -72 -69 -206h569q-10 134 -70 206z" />
    <glyph glyph-name="endash" unicode="&#x2013;" 
d="M1027 612l21 -18v-108l-21 -18h-1035l-20 18v108l20 18h1035z" />
    <glyph glyph-name="emdash" unicode="&#x2014;" horiz-adv-x="1854" 
d="M1689 612l21 -18v-108l-21 -18h-1525l-20 18v108l20 18h1525z" />
    <glyph glyph-name="quoteleft" unicode="&#x2018;" horiz-adv-x="511" 
d="M345 1003l-19 -18h-162l-19 18v161q0 42 11 67l103 195h73l13 -19l-101 -194v-12h85l16 -18v-180z" />
    <glyph glyph-name="quoteright" unicode="&#x2019;" horiz-adv-x="511" 
d="M175 1408l19 18h162l19 -18v-161q0 -42 -11 -67l-103 -195h-73l-13 19l101 194v12h-85l-16 18v180z" />
    <glyph glyph-name="quotesinglbase" unicode="&#x201a;" horiz-adv-x="511" 
d="M165 198l19 18h162l19 -18v-161q0 -42 -11 -67l-103 -195h-73l-13 19l101 194v12h-85l-16 18v180z" />
    <glyph glyph-name="quotedblleft" unicode="&#x201c;" horiz-adv-x="857" 
d="M726 1003l-19 -18h-162l-19 18v161q0 42 11 67l103 195h73l13 -19l-101 -194v-12h85l16 -18v-180zM356 1003l-19 -18h-162l-19 18v161q0 42 11 67l103 195h73l13 -19l-101 -194v-12h85l16 -18v-180z" />
    <glyph glyph-name="quotedblright" unicode="&#x201d;" horiz-adv-x="857" 
d="M165 1408l19 18h162l19 -18v-161q0 -42 -11 -67l-103 -195h-73l-13 19l101 194v12h-85l-16 18v180zM535 1408l19 18h162l19 -18v-161q0 -42 -11 -67l-103 -195h-73l-13 19l101 194v12h-85l-16 18v180z" />
    <glyph glyph-name="quotedblbase" unicode="&#x201e;" horiz-adv-x="857" 
d="M535 198l19 18h162l19 -18v-161q0 -42 -11 -67l-103 -195h-73l-13 19l101 194v12h-85l-16 18v180zM144 198l19 18h162l19 -18v-161q0 -42 -11 -67l-103 -195h-73l-13 19l101 194v12h-85l-16 18v180z" />
    <glyph glyph-name="dagger" unicode="&#x2020;" 
d="M369 982l53 50v300l19 18h137l18 -16v-302l54 -50h286l18 -18v-126l-18 -18h-286l-54 -52v-990l-18 -18h-137l-19 18v990l-53 52h-287l-18 18v126l18 18h287z" />
    <glyph glyph-name="daggerdbl" unicode="&#x2021;" 
d="M369 982l53 50v300l19 18h137l18 -16v-302l54 -50h286l18 -18v-126l-18 -18h-286l-54 -52v-456l53 -52h287l18 -18v-126l-18 -18h-287l-53 -50v-300l-19 -18h-137l-18 16v302l-54 50h-286l-18 18v126l18 18h286l54 52v456l-53 52h-287l-18 18v126l18 18h287z" />
    <glyph glyph-name="bullet" unicode="&#x2022;" 
d="M168 575q0 88 25.5 152.5t70.5 107t107.5 63t136.5 20.5q175 0 259 -84t84 -259q0 -176 -84 -259.5t-259 -83.5q-176 0 -258 83.5t-82 259.5z" />
    <glyph glyph-name="ellipsis" unicode="&#x2026;" horiz-adv-x="1414" 
d="M778 0h-145l-16 18v180l19 18h142l19 -18v-180zM1215 0h-145l-16 18v180l19 18h142l19 -18v-180zM341 0h-145l-16 18v180l19 18h142l19 -18v-180z" />
    <glyph glyph-name="perthousand" unicode="&#x2030;" horiz-adv-x="2126" 
d="M1550 334q0 76 15 135.5t48.5 100t86.5 61.5t129 21h16q77 0 130.5 -20.5t86.5 -61t47.5 -100t14.5 -136.5v-17q0 -81 -14 -143.5t-46 -105t-86 -64.5t-133 -22h-16q-80 0 -133.5 22t-85.5 64.5t-46 105t-14 143.5v17zM1829 518q-46 0 -72.5 -12.5t-40.5 -36t-18 -57.5
t-4 -78v-17q0 -47 4 -84t18 -62.5t40.5 -39.5t72.5 -14h16q46 0 72.5 14t40.5 40.5t18 63.5t4 82v17q0 43 -4 77t-18 58t-40.5 36.5t-72.5 12.5h-16zM64 1033q0 76 15 135t48.5 99.5t86.5 61.5t129 21h16q77 0 130.5 -20.5t86.5 -60.5t47.5 -99.5t14.5 -136.5v-17
q0 -81 -14 -144t-46 -105.5t-86 -64.5t-133 -22h-16q-80 0 -133.5 22t-85.5 64.5t-46 105.5t-14 144v17zM343 1216q-46 0 -72.5 -12t-40.5 -35.5t-18 -57.5t-4 -78v-17q0 -47 4 -84t18 -63t40.5 -40t72.5 -14h16q46 0 72.5 14t40.5 40.5t18 63.5t4 83v17q0 42 -4 76t-18 58
t-40.5 36.5t-72.5 12.5h-16zM1133 1332l14 -18l-708 -1314h-112l-15 18l708 1314h113zM850 334q0 76 15 135.5t48.5 100t86.5 61.5t129 21h16q77 0 130.5 -20.5t86.5 -61t47.5 -100t14.5 -136.5v-17q0 -81 -14 -143.5t-46 -105t-86 -64.5t-133 -22h-16q-80 0 -133.5 22
t-85.5 64.5t-46 105t-14 143.5v17zM1129 518q-46 0 -72.5 -12.5t-40.5 -36t-18 -57.5t-4 -78v-17q0 -47 4 -84t18 -62.5t40.5 -39.5t72.5 -14h16q46 0 72.5 14t40.5 40.5t18 63.5t4 82v17q0 43 -4 77t-18 58t-40.5 36.5t-72.5 12.5h-16z" />
    <glyph glyph-name="guilsinglleft" unicode="&#x2039;" horiz-adv-x="694" 
d="M142 483l272 418h127l11 -18l-239 -400l239 -398l-11 -19h-127z" />
    <glyph glyph-name="guilsinglright" unicode="&#x203a;" horiz-adv-x="694" 
d="M280 66h-127l-11 19l239 398l-239 400l11 18h127l272 -418z" />
    <glyph glyph-name="fraction" unicode="&#x2044;" horiz-adv-x="689" 
d="M13 0h-100l-13 18l776 1332h99l14 -18z" />
    <glyph glyph-name="Euro" unicode="&#x20ac;" horiz-adv-x="1038" 
d="M1007 120l-11 -30l-71 -42q-19 -11 -55.5 -23t-80.5 -21.5t-92.5 -15.5t-91.5 -6q-113 0 -193.5 39t-131.5 103t-75 145t-24 164h-119l-20 21v93l20 19h119v192h-119l-20 20v92l20 20h119q0 54 11 109.5t33.5 106.5t57 95.5t81.5 77.5t107.5 52t134.5 19q96 0 168.5 -7
t137.5 -35l24 -7l17 -34l-30 -102l-30 -13q-24 16 -50.5 26t-58.5 15.5t-71 7.5t-87 2q-66 0 -116.5 -23.5t-85 -65.5t-52 -99.5t-17.5 -124.5h392l17 -20l-47 -112h-362v-192h272l17 -20l-47 -113h-242q0 -146 65.5 -222.5t205.5 -76.5q54 0 101.5 8t87.5 20.5t70.5 27.5
t49.5 30l31 -5z" />
    <glyph glyph-name="uni20BD" unicode="&#x20bd;" horiz-adv-x="1038" 
d="M682 392l21 -18v-96l-21 -18h-360v-242l-17 -18h-140l-17 18v242h-78l-20 18v96l20 18h78v142h-78l-20 18v96l20 18h78v648l17 18q38 4 82.5 7t91 5t92 3t86.5 1q95 0 179.5 -22t148 -70.5t100.5 -124.5t37 -184v-18q0 -108 -38.5 -183t-104 -122.5t-151.5 -68.5
t-180 -21h-186v-142h360zM322 666h160q69 0 127.5 13t101.5 43t67 80.5t24 125.5v18q0 74 -25.5 122t-69 75.5t-100 38t-117.5 10.5q-18 0 -40.5 -0.5t-45 -1.5t-44.5 -3.5t-38 -6.5v-514z" />
    <glyph glyph-name="uni20BD" unicode="&#xa750;" horiz-adv-x="1038" 
d="M682 392l21 -18v-96l-21 -18h-360v-242l-17 -18h-140l-17 18v242h-78l-20 18v96l20 18h78v142h-78l-20 18v96l20 18h78v648l17 18q38 4 82.5 7t91 5t92 3t86.5 1q95 0 179.5 -22t148 -70.5t100.5 -124.5t37 -184v-18q0 -108 -38.5 -183t-104 -122.5t-151.5 -68.5
t-180 -21h-186v-142h360zM322 666h160q69 0 127.5 13t101.5 43t67 80.5t24 125.5v18q0 74 -25.5 122t-69 75.5t-100 38t-117.5 10.5q-18 0 -40.5 -0.5t-45 -1.5t-44.5 -3.5t-38 -6.5v-514z" />
    <glyph glyph-name="afii61352" unicode="&#x2116;" horiz-adv-x="2099" 
d="M1998 632q0 -81 -19 -147.5t-59.5 -114.5t-104 -74t-152.5 -26h-18q-89 0 -152.5 26t-104 74t-59.5 114.5t-19 147.5v16q0 81 19 147.5t60 113.5t104 73t152 26h18q90 0 153.5 -26t104 -73t59 -113.5t18.5 -147.5v-16zM1476 632q0 -46 5.5 -86t23 -69t51 -46t89.5 -17h18
q55 0 88.5 17t51.5 46.5t23.5 69.5t5.5 85v16q0 45 -6 84t-24 68.5t-51.5 46.5t-87.5 17h-18q-56 0 -89.5 -16.5t-51 -46t-23 -69t-5.5 -84.5v-16zM1980 153l18 -20v-113l-18 -20h-652l-18 20v113l18 20h652zM1131 20l-18 -20h-156l-627 988h-6v-968l-18 -20h-138l-18 20
v1292l18 20h156l627 -988h6v968l16 20h140l18 -20v-1292z" />
    <glyph glyph-name="trademark" unicode="&#x2122;" horiz-adv-x="1444" 
d="M249 1206h-216l-21 18v90l21 18h577l20 -18v-90l-20 -18h-221v-594l-20 -20h-97l-23 20v594zM692 1314l20 18h155l190 -421l193 421h151l21 -18v-702l-21 -20h-99l-20 20v481l-167 -360h-123l-161 360v-481l-19 -20h-100l-20 20v702z" />
    <glyph glyph-name="minus" unicode="&#x2212;" 
d="M933 690l21 -18v-126l-21 -18h-847l-20 18v126l20 18h847z" />
    </font>
</defs>
</svg>
